<?xml version="1.0" encoding="UTF-8"?>
<svg version="1.1" viewBox="0 0 2000 2000" width="500" height="500" xmlns="http://www.w3.org/2000/svg">
<path transform="translate(652,191)" d="m0 0 15 1 10 3 11 7 10 9 10 13 11 18 14 27 7 16 11 29 12 38 12 46 12 53 8 42 11 75 9 73 6 65 5 82 3 67 1 30v186l-3 76-5 79-8 83-8 66-9 56-7 41-12 60-10 42-9 31-15 44-11 27-12 25-12 22-10 13-12 12-11 7-10 4h-15l-13-5-11-7-14-14-12-18-10-18-9-20-12-30-15-44-10-35-10-42-9-43-6-32-9-57-6-45-7-68-7-78-4-63-2-44-1-31v-193l3-65 4-69 5-62 5-46 9-69 11-70 8-44 12-55 9-34 12-39 10-27 13-29 13-24 11-17 9-11 13-13 10-5z" fill="#E9C9EA"/>
<path transform="translate(931,204)" d="m0 0 5 1 8 11 6 13 5 15 6 29 4 32 3 34 2 38 1 123 1 186 2 39 3 30 5 25 6 17 3 6 2 1h16l46-1h73l7-14 5-15 3-14 2-18 2-66 1-292 2-40 3-36 4-29 8-36 5-17 7-13 5-6 6-1 8 7 6 9 5 11 5 18 7 39 4 32 3 38 1 28 1 76v1083l-1 41-2 32-3 29-7 41-6 26-6 17-6 11-7 8-4 1-6-4-6-7-5-10-5-15-7-33-4-27-3-36-2-42-1-311-1-51-2-30-5-25-6-21-4-10-5-3h-129l-5 4-5 9-5 15-5 31-2 25-1 25-1 342-2 42-3 33-5 33-6 26-7 19-7 13-5 6-6 2-6-4-6-7-6-14-7-25-7-39-4-38-2-39-1-33-1-295v-325l1-504 1-50 2-39 3-33 7-43 6-26 6-16 6-11 4-5z" fill="#061021"/>
<path transform="translate(1408,203)" d="m0 0h55l35 1 14 1 7 4 7 11 5 11 7 23 6 29 4 33 3 41v69l-5 47-6 32-5 19-6 15-6 11-6 4-4 1-13 1h-58l-35-1-5 7-6 19-4 30-3 33-1 23v32l2 36 3 30 4 23 5 12 1 1h114l4 5 5 12 6 20 6 26 5 32 3 31 1 19v62l-1 20-5 37-5 26-8 27-6 14-8 9-11 4h-42l-41-2-16-1-6 12-4 17-3 22-2 18-1 19v65l2 32 3 30 4 24 6 18h44l30-1h30l10 1 6 4 8 14 6 15 6 25 4 24 3 31 2 45v29l-2 39-4 33-8 39-7 24-7 16-7 10-8 5-4 1-15 1h-54l-38-1-13-1-10-4-10-9-9-16-11-28-9-28-6-26-6-35-6-45-4-49-3-55-1-31v-916l3-63 4-47 5-42 6-37 7-31 6-21 10-26 8-18 8-12 8-6 6-2 7-1z" fill="#061021"/>
<path transform="translate(1738,171)" d="m0 0h10l11 4 9 6 10 9 8 10 12 20 8 17 9 25 12 42 7 36 5 35 3 37v75l-4 42-6 34-6 23-8 19-6 9-3 2-5-4-8-14-6-14-15-44-15-31-9-10-7-4-6 1-6 7-8 16-5 15-4 18-4 32-2 30 1 30 3 40 4 27 7 24 7 16 9 15 13 18 15 20 12 19 14 27 10 21 11 29 9 29 7 29 8 39 6 38 8 62 4 46 2 30 1 34v117l-2 44-4 61-4 38-8 58-8 45-10 49-8 30-12 36-9 22-8 16-6 10-10 14-12 13-9 7-11 3h-9l-13-4-9-7-12-12-10-13-9-14-11-23-11-28-9-27-12-48-5-28-4-30-2-33v-60l3-36 5-35 6-28 5-16 5-9 6-6 5 1 7 9 9 17 14 36 9 20 8 14 9 12 10 12 10 7 7 1 8-6 6-9 8-16 6-20 6-27 3-20 1-24v-29l-1-37-3-23-6-32-5-15-10-22-9-15-14-19-12-17-13-20-10-18-9-19-9-24-10-31-10-38-9-43-8-51-6-52-4-50-3-54v-115l2-60 3-43 5-49 6-45 7-39 12-54 8-29 11-32 8-19 8-16 10-17 9-11 10-7z" fill="#061021"/>
<path transform="translate(288,160)" d="m0 0h15l10 4 11 8 8 9 10 15 11 21 9 23 13 44 8 36 5 33 3 26 1 15v76l-2 27-5 34-5 26-5 19-5 13-6 8-2 2-6-1-8-10-6-13-17-48-11-23-10-14-8-8-3-2-6 1-7 10-7 15-5 17-4 20-3 29-1 15v55l2 31 4 25 6 22 7 17 9 16 12 17 14 18 10 15 12 21 8 16 10 22 11 30 9 28 8 32 10 51 6 37 6 56 3 40 2 55v130l-2 54-4 51-6 51-7 48-8 42-9 40-9 35-11 32-11 26-13 24-9 12-6 7-10 8-8 4-4 1h-14l-12-4-10-6-14-14-10-15-8-14-12-26-10-27-8-26-8-33-6-35-5-40-2-34v-47l2-31 4-33 5-28 4-16 6-15 5-9 6-5 6 5 9 16 13 32 10 23 13 25 12 16 8 8 10 6 5-1 10-9 7-11 6-15 6-23 4-20 3-26 1-18v-51l-2-27-4-28-6-25-7-19-9-16-26-36-10-15-14-24-10-19-13-32-8-24-9-34-8-36-7-39-6-44-4-33-3-33-2-31-2-45v-103l2-69 4-55 6-52 7-49 7-37 7-30 11-40 10-30 10-22 13-22 9-12 8-7 12-6z" fill="#061021"/>
<path transform="translate(652,191)" d="m0 0 15 1 10 3 11 7 10 9 10 13 11 18 14 27 7 16 11 29 12 38 12 46 12 53 8 42 11 75 9 73 6 65 5 82 3 67 1 30v186l-3 76-5 79-8 83-8 66-9 56-7 41-12 60-10 42-9 31-15 44-11 27-12 25-12 22-10 13-12 12-11 7-10 4h-15l-13-5-11-7-14-14-12-18-10-18-9-20-12-30-15-44-10-35-10-42-9-43-6-32-9-57-6-45-7-68-7-78-4-63-2-44-1-31v-193l3-65 4-69 5-62 5-46 9-69 11-70 8-44 12-55 9-34 12-39 10-27 13-29 13-24 11-17 9-11 13-13 10-5zm3 126v2l-4 1-4 8-3 9-4 26-7 49-3 12h-3l-5-1-5 1-11 19-10 32-10 25-1 3h-2l-6 7-4 11-5 27-2 17-2 9-4 23-2 8-4 9-4 11-3 24-5 50-3 42-2 17-3 57-3 55-1 42-1 24-3 22-5 18-2 11-2 17v25l4 42 3 25 5 34 5 25 4 19 4 36 9 51 6 35 4 23 5 23 3 37 4 36 3 17 3 16 9 21 4 10 4 9 7 8 2 1h8l10-5 6 2 2 6 2 37 3 33 3 14 3 18 3 12 6 11 4 3 5-1 6-7 3-6 6-27 3-18 4-40 2-22 3-8 7-1h13l6-2v-2l4-2 6-10 10-21 4-13 5-26 5-42 3-40 3-16 5-20 8-54 3-15 7-49 6-38 6-35 5-31 5-42 1-12v-27l-2-16-4-16-4-20-3-13-3-48-2-35-3-46-4-68-4-62-2-24-8-44-4-10h-2l-2-5-2-6-4-34-6-31-3-10-4-8-8-19-5-12-10-25-4-8-3-7-7-11-6-5h-4l-2-4-3-9-5-35-4-22-2-6-3-14-5-8h-2v-2z" fill="#061021"/>
<path transform="translate(655,317)" d="m0 0 5 1v2l4 2 4 10 4 16 5 27 4 30 4 10 1 3 5 1 6 5 8 13 4 11 5 11 10 26 5 11 6 13 3 6 7 33 4 30 2 14 3 5v2h2l5 14 7 40 4 53 5 80 3 51 2 29 3 57 1 13 6 26 3 14 3 17 1 8v27l-4 39-4 28-8 49-6 35-7 49-3 19-3 17-6 40-7 28-3 32-2 27-5 36-5 25-6 16-8 16-6 9-3 1v2l-6 2h-16l-4 1-3 8-5 53-3 21-5 25-3 10-5 8-5 4-5-1-4-5-5-11-4-19-3-18-2-15-3-39-1-20-2-6-6-2-10 5h-8l-7-6-4-7-5-14-7-15-4-11-4-25-3-20-4-41-1-16-8-39-6-37-9-49-4-34-3-20-4-17-6-35-4-30-4-41-1-11v-25l3-22 5-22 2-8 2-16 1-24 1-42 3-55 3-57 3-28 2-32 5-49 3-24 4-11 4-9 2-8 4-23 2-9 3-22 5-26 5-10 4-4h2l2-6 11-27 6-21 4-10 9-15 9-1 3 2 3-7 6-40 4-29 2-12 6-16 2-2h3zm3 27-5 5-3 10-2 10-1 11-1 27-3 41-2 50-2 19-2 11v29l1 74v28l-1 43-4 20-1 2-2 18-3 12h-3l-7-41-2-14-2-50 1-71 2-31 3-23 4-23 2-4 3 1 1 6 4 3 2-3v-7l-2-8-2-23-3-16-5-5-3 4-5 22-3 19-2 24-2 15-4 51-1 16-1 41v32l3 75 7 28 4 27v39h-1l-2 11-3-4-4-20-6-29-6-27-4-13-1-7-1-112-2-62-3-27-2-6h-2l-2 4v38l1 43v107l-5 1-4-4-1-2h-2l-4-18-1-7-1-17-1-45-1-4h-3l-2 6-1 11-1 49 1 30 2 15 4 12 4 6 4 5 8 7 6 9 6 15 7 33 2 6 2 17 2 5 1 13-1 7v18l1 10-2 14 2 4-4 4-1-6-11-14-6-9-6-10-4-1-4 4-3 9-3 8-2 4h-2l-5-16-1-3-5 1-2 5v20l3 31 3 10 4 2 4-4 3-5 8-1 4-5 3-1v10l-2 17-6 27-5 17-2 9-11 33-4 2-2-6-4-13-6-37-3-16-2-2-4 8v30h2l1 14 2 16 5 23 4 14 4 10 2 2h6l5-6 4-9 3-8 5-19 6-25 5-27 4-21 4-24 2-2 3 8 3 12 3 21 2 27v54l5 14 2 3h2l2 6 4 2 4 8v5l-5 5-1 7v9l-4 6-4 3v2l-8 2-1-2h-5l-5-4-11-6-7-5h-2v-2l-8-5h-5l-1 3v7l5 24 3 9 6 9 3 3 9 3v2l6 5 6 3 1 6-3 17-3 9-3 18v14l-3 14-2 22v46l2 12 2 4h1v-10l-2-3v-16l-1-5 4 1v-2h2l2-26 3-23 4-25 3-11 4-16 8-19 1-4 3-1v-2l7 2 4 5 3 15 1 12 1 5-3-1-3-4-1 1v9l5 5h3l5 2 6 4 6 12 5 19 3 1 1 18v33l-1 5v11l-4 4h-14l-10 8v-2h-2l-7 9-8 16-5 11v3h-2l-1 4 4-1 1-2 2 8-1 4-6 10-5 2h-3v-2l7-1 5-7v-6l-3 1h-10l-2 2 1-6v-3l-2-1-3 2 2 15 4 8 3 3 5-1 4-4 7-9v-2h2l6-9v-2h2l5-8 9-11 1-4 6-2 2 6v20l-1 13v17l1 5 2-2 3-13 4-18 3-4v-2l4 1 3 11 2 7 4 29 3 46-1 34-7 38-2 9 3 2-2 7-1 2 3-1 3-7 5-24 3-40v-24l1-5v-16l-3-34-2-20v-30l1-2h5l6 8h2l2 5 3 5 2 1 3 5 4 6 5 5 9 10 4 4 4 1 6-5 4-8 4-15 1-5 2-1 2-20 1-29v-47l-4-36-5-31-4-19v-13l10-26 4-8 7-19 6-18 4-14 2-14-2-9-1-3h-2v-2l-5 1-3 7-2 7-2 5-1 7-3 6-4 10-9 18v2l-5 2-6-1-6-11-1-8v-20l4-17 3-6 2-17h1l2-19 2-13v-23l-1-2-5 1-5 14v3h-5l3-24 8-33 3-14 3-6 5-1 5 2 1 9 5 24 4 24 6 27 5 15 7 22 3 5 4 4h5l3-5 7-17 5-18 3-20 1-9v-30l-2-8-3-1-2 7-2 16-3 21-3 14-3 12-4 5-3-3-5-14-7-24-6-29-4-25-4-22v-17h3l1 7 3 11 5 8 2 6 4 9 4-1 4-10 5-23 2-17v-23l-4-3-5 11-3 10-4-1-4-24-3-8-5-1-4 5-5 12-3 5-5 4-5 3-5 8v3l-3 1-4 6-1 3-4 1 4-33 3-16 3-27 4-15 5-18 7-20 2-14 5-13 7-6 8-16 3-10 2-15 2-29v-37l-4 1-2 4-5 34-3 15-3 8-1 4-4 1-1-14-1-39-1-126-2-11-3-1-2 8-2 23v167l-2 16-8 32-4 8-3 20-4 18-2 5h-2l-2 8h-3l1-4-2-7v-11l2-24v-7h2l1-2 3-39 2-14 3-33 2-26v-51l-3-57-4-51-4-35-6-40-2-4h-2v-2l-4 2-3 9-2 26-3 13-3 4v2l-2-1-2-11-1-19-2-77-1-14-5-25-4-7z" fill="#D4A1E0"/>
<path transform="translate(655,317)" d="m0 0 5 1v2l4 2 4 10 4 16 5 27 4 30 4 10 1 3 5 1 6 5 8 13 4 11 5 11 10 26 5 11 6 13 3 6 7 33 4 30 2 14 3 5v2h2l5 14 7 40 4 53 5 80 3 51 2 29 3 57 1 13 6 26 3 14 3 17 1 8v27l-4 39-4 28-8 49-6 35-7 49-3 19-3 17-6 40-7 28-3 32-2 27-5 36-5 25-6 16-8 16-6 9-3 1v2l-6 2h-16l-4 1-3 8-5 53-3 21-5 25-3 10-5 8-5 4-5-1-4-5-5-11-4-19-3-18-2-15-3-39-1-20-2-6-6-2-10 5h-8l-7-6-4-7-5-14-7-15-4-11-4-25-3-20-4-41-1-16-8-39-6-37-9-49-4-34-3-20-4-17-6-35-4-30-4-41-1-11v-25l3-22 5-22 2-8 2-16 1-24 1-42 3-55 3-57 3-28 2-32 5-49 3-24 4-11 4-9 2-8 4-23 2-9 3-22 5-26 5-10 4-4h2l2-6 11-27 6-21 4-10 9-15 9-1 3 2 3-7 6-40 4-29 2-12 6-16 2-2h3zm1 23-4 4-4 12-3 24-2 41-3 37-1 22-2 3-2-8-5-24-3-8-4-3-4 5-4 12-5 28-4 30-3 12-2 3-3 12-2 13-2 5h-3l-3-5-4-17-2-6-4 1-2 4-1 8-1 124-2 9-4 10v22h-2l-3-12-1-12-1-39-1-14-1-3-5 2-2 7-2 29v62l2 22 2 9 4 11 1 2h3v3l5 5 2 3 4 2 1 2h2l2 5 2 6v8l-3 1v3h-2l-2 3-1 6-2 3 1 7 3 3 1 9-1 10-3 3-6 3-2 3 1 13-3 5-2 11-2 6v8l-1 3-2-1-4-16-3-2-4 2-3 8-1 6v16l3 34 3 16 3 7 1 2 5 3 3 6 1 1h6l-1 13-2 8-5 19-6 23-4 7h-4l-3-10-6-35-3-22-3-4h-2l-3 8-1 5v34l6 37 7 31 5 12 6 7 3-1v-2l2-2 4-6v-2l5-2 3 3 2 9v7l-1 2-9-1-6-4-3 1-2 12 2 15 8 31 6 15 7 6 7 1 2 8-5 3-2 6v11h-2l-2 9-1 6-1 29 3 20 4 12 1 8 1 37 2 26 3 22 6 32 4 11 4 5 3 2h6l6-4 7-8 2-5 4-2 2-5 4-2 3-3v-2l6-2 2 10 1 95 2 26 2 17 5 25 5 14 5 5 4 1 5-5 4-10 4-18 3-24 3-43v-79l2-8h5v2h3l1 3 3 3h2l2 5h2l2 4 5 6h2l1 3h2v2l5 2 7-1 5-5 5-9 4-16 3-17 2-28 1-21 1-39 3-7 4-5 3-10 2-12 1-12v-13l-1-28-1-7-1-11 1-17v-12l1-15 5-24 4-21 4-10 6-5 8-16 6-18 3-15 2-23v-37l-2-12-3-5-2 2-3 13-4 32-3 14-4 12-5-1-3-9-3-13-1-6-2-5-3-21v-13l9-3 4-13 3-12 4-30v-40l-1-23-2-4-4-3h-2l-2-5-4-9-4-7-2-5-1-30-1-4-4-1h-3l-2-4v-7h2l3-3v-2h2l7-14 3-8 2-15 1-14 1-40v-29l-1-11-3-3-5 2-4 6-3 4-2 11v9h-2v2h-2l-1-9-1-31-1-84-2-18-3-7h-2l-3 6-3 21-1 16-1 37-1 6h-2l-1 3-3-5-1-5-2-31v-13l-1-4-2-35-6-46-3-13-3-18-4-12-4-4-5 2-3 7-4 27v4l-4 1-2-43-1-31-2-25-3-19-4-16-2-4z" fill="#895CAD"/>
<path transform="translate(670,508)" d="m0 0 4 3v2l3 1v13l-1 12h-2l1 2v152l2 27 3 23v7l1 1 2 14h-2l3 9 1 6h1l2 16 3-17 2-17 1-21 1-4 2-17 3-25 4-19 3-8h2l1 2-1 25-2 29-3 23-3 28-3 21h-1l-1 27-2 14-2 5-7 45-5 35v6l-2 7-7 34-3 15-3 17v11h1l2 16 1 4 2 10 4 16 4 4 5-38 3-19 2-14 3-38 5-34 3-20 4-9 3 1 1 17-1 4v5l-1 1v9l-3 13-1 15-1 11-2 27-1 2v10l-1 3-2 20-3 40-1 26 1 3 4-2 5-11 9-20 2-2v-8l5-11 3 3-1 15-2 2-3 19-5 17-8 25 1 4-4 10-1 7-1 1 4 11 2 3h3l6 11 2 5h-3l-3-4 4 7 5 1 8-3 4-5 2-1 2-6-1-2 6-14 2 2 5-14 3-10 3-6h4v-4l-4-2 5-3 2 3-1 11-6 23-6 14-5 12-4 8-3 9-4 11-4 13v9l4 20 2 6 1 8v12h-3v-3h-2l-4-15-5-16-5-20 1-3-6-12h-3l-2-5 2 1-2-4-1-3-7-4-4 2-4 11 1 3-5 16-4 13-3 7-5 21-3 9h-2v3h1v5l-2 4-3 24-1 27v14l3 7v3l4 2 7 4v2l5 2 6 6v3h2l5 9 18 27 6 7 8 1v-2h2l4-16 4-23 3 3-1 21-3 19-4 12-5 8-4 3-6-2-7-8-5-6-5-5-4-6-2-4-3-3-4-6v-2l-4-2-4-6h-5l-1 2v30l2 21 3 33v17l-1 4v25l-3 39-6 27-3 5-2-1 3-6v-2l-3-2 2-9 7-38 1-35-3-45-4-29-5-16v-2l-4-1-2 4-4 14-3 16-2 5h-1l-1-8v-18l1-9v-20l-2-6-6 2-2 5-8 10-5 8h-2l-2 5-4 6h-2l-2 4-6 9-5 3-4-1-3-3-4-11-1-12 4-1 2 3-2 4v3l2-2h11l2-1v6l-5 7-7 1v2l7-1 4-5 3-6 1-5-2-7-3 3h-2l1-4h2l1-5 7-16 9-15 3-3 2 1 4-2 6-5h14l4-4v-11l1-8v-30l-1-18-3-1-5-19-4-8-4-6-10-5h-3l-4-4v-9l2-1 2 4 3 1-2-17-3-15-5-6-6-1-1 3h-2l-1 4-8 19-4 16-3 11-6 38-2 19-1 17h-2l-1 2-3-1 1 6v15l2 3v10l-2-2-2-5-1-9v-46l2-22 3-14v-14l4-21 4-16 1-11-4-4-5-3-4-3v-2l-9-3-6-7-4-7-4-15-3-16v-7l2-3 5 1 7 4v2l4 2 12 7 9 6h5l1 2 8-2 2-4 4-3 2-4v-11l2-6 4-4-1-7-3-6-4-2-2-6h-2l-4-8-3-9v-54l-3-35-3-19-4-13-2-1-2 7-6 35-6 32-6 25-6 23-5 10-4 7-2 2h-6l-5-8-4-15-5-21-2-8v-8l-3-19v-23l2-5h3l2 10 3 19v8l4 16 5 14v2l5-1 5-12 7-24 3-12 5-16 8-40v-17l-1-4-4 1-3 4-4 2-7 2-6 5-4-4-2-13-1-19v-13l2-3h3l4 12 2 3 4-1 4-12 4-8 5-2 4 6 5 10v2h2l6 7-1 2-6-6 6 7 6 10 4 16 4 23h1l1 9 1 12 1 6h1l2 22 1 14h1v11h1v11l3 14 1 3h2l7 11 1 1h5l3-5 1-15-2 1-4-28-2-19 1-4 2 6h3l2 5v7l-1 2v11l1 10 3-3 4-3 3-14 8-49 7-17 5-25 3-17 5-29 3-14 3-24v-8l2-10v-45l-2-21h2l-6-24-2-12-4-42-1-30v-28l-1-1 1-42v-93l2-3z" fill="#F3ECF4"/>
<path transform="translate(732,544)" d="m0 0 3 1 2 11 1 126 1 45 1 8 4-1 1-4 3-8 3-15 5-34 2-4 4-1v37l-2 29-2 15-4 13-7 13-7 6-5 13-3 17-8 24-3 11-4 15-4 35-3 16-3 25 4-1 3-6 3-4h2l1-4 4-7 5-3 5-4 10-20 2-2 5 1 3 8 3 19 1 5 4 1 3-10 5-11 4 3v23l-3 23-5 20-4 8-4-1-5-13-4-8-5-15v-4h-3v17l4 22 5 30 6 28 8 27 4 9 3 1 3-5 5-20 3-17 2-21 2-11 2-1 3 3 1 6v30l-3 23-4 16-4 13-6 15-2 2h-5l-4-4-4-8-12-38-7-33-5-30-3-13v-4l-5-2-5 1-4 9-6 28-5 21-2 19h5l2-9 4-9h4l1 2v23l-3 21-1 11h-1l-2 18-4 8-3 14v21l2 10 5 8 6 1 5-2 2-6 10-20 3-9 1-1 2-11 2-3 3-11 2-2h4v2h2l2 5 1 9-4 20-8 24-10 26-5 12-6 15v13l5 23 5 36 3 27v47l-1 29-2 20h-2l1-29-1-2-2 12-5 22-2 4h-2v2l-5 1-5-3-8-10-11-17-5-7-3-6v-2h-2l-3-5-6-5-3-3-7-4-3-2-4-10v-14l1-27 3-20v-5h2l-1-3 1-1-2-2 2-10h2l2-4 5-21 5-14 5-17 2-6-1-3 4-10 5-3 8 5 3 5-1 3 1 2 3 1 6 12-1 6 3 9 2 8 6 18 2 9v4h2l2 3v-12l-2-11-4-16-1-7v-9l5-16 5-12 3-9 6-13 6-15 6-20 2-12-1-6-4 2 4 4-1 3h-4l-4 11-4 13-3 7-2-1-5 11 1 4-3 5-5 5-5 3-6 1-4-2-4-7 1-3 3 5v2h3l-8-13-1-3-2 2-5-10-2-9h1l4-13 1-5-1-2 6-18 7-23 3-19 2-3 1-14-1-2-5 10v8l-5 8-6 14-6 12-4 2-2-4 1-26 3-40 2-20v-5l1-1v-7l1-2 2-28 2-25 3-13v-9l1-1v-7l1-6v-13h-3l-3 8-3 20-5 34-3 40-3 19-7 48-1 2-4-2-3-9-4-16 1-6-2-1-2-15h-1v-12l3-17 6-28 5-27 1-3 2-17 9-62 2-9 3-8h1l2 10 1 6-1 3h3l2-8h2l4-13 3-15 2-15 5-10 3-14 5-22 1-14v-163l2-25z" fill="#E9C9E9"/>
<path transform="translate(656,340)" d="m0 0 5 1 3 7 4 18 3 22 1 17 2 49 1 25 4-1 2-16 2-15 4-8 4-1 4 4 4 12 4 23 3 16 4 31 2 23 1 19 1 10v11l2 27 2 7 2 3 1-3h2l1-6 1-37 2-26 3-14 2-3 3 1 2 6 2 18 1 84 1 31 1 9h2v-2h2v-9l2-11 5-6 3-5 4-1 3 3 1 11v29l-1 40-2 22-2 10-5 12-4 7h-2l-1 2-2 3h-2v7l3 5 4-1 2 1 1 7 1 28 4 8 4 7 4 8v2l4 1 3 3 1 3 1 23v40l-3 22-2 7-2 5-1-4 4-19 2-17v-23l-2-2-5 10-3 8-1 2-4-1-2-7-4-20-2-5-5 1-10 20-3 1-2 4-6 2-2 4-3 7-5 5-3 6h-4l1-16 3-21 3-19 2-20 4-15 5-18 7-20 2-14 5-13 7-6 8-16 3-10 2-15 2-29v-36h-3l-4 24-3 21-4 15-3 5-4 1-2-8-1-45-1-126-2-11-2-1-2 16-1 15v167l-2 16-8 32-4 8-3 20-4 18-7 14-3-1-1-9-1-2v-11l3-31h2l3-41 2-14 3-33 2-26v-51l-3-57-4-51-4-35-6-40-1-4h-2v-2l-4 4-2 7-2 26-3 13-4 6-3-1-2-11-1-19-2-77-1-14-5-25-3-6-4 2-3 7-3 15-1 11-1 27-3 41-2 50-2 19-2 11v29l1 74v28l-1 43-4 20-1 2-2 18-3 12-4 1-2-6-8-50-2-50 1-71 2-31 3-23 4-23 3-5 1 2h2l3 7 2 1 1-6-3-21-2-19-3-12-3-2-3 6-4 21-2 10-3 31-2 15-4 51-1 16-1 41v32l3 75 7 28 4 27v40l-2 4-2 7-3-3-3-10-4-23-10-45-4-13-1-7-1-112-2-62-3-27-1-6h-2l-1 4v38l1 43v105l-5 5-2-1v-2l-3-1-1-4h-2l-4-12-2-13-1-17-1-49h-3l-2 17-1 49 1 30 2 15 4 12 4 6 3 3v2l4 2 7 7 7 14 4 12 6 29 2 6 2 17 2 5 1 13-1 7v18l1 10-2 14 2 4-3 4h-2l-4-9-10-12-9-14-2-4-5 1-4 11-3 8-3 5-3-1-5-16v-3l-5 2-1 4v20l3 31 3 10 3 1 3-1 2-6 2-2 8-1 4-5h3l1 2-1 19-6 30-6 20-2 9-11 33-2 2h-3l-4-8-4-17-7-43-2-4-3 6h-1l1-9 2-4 4 2 2 9 7 46 4 12v2l5-1 4-10 10-38 2-8 1-13h-6l-3-5-3-4-3-1-3-5-3-14-2-14-2-26v-16l2-10 2-4 5-2 3 5 3 13 2 1 1-6v-5l2-6 3-14 2-4-1-12 5-4 5-2 1-2 1-15-2-5-3-4v-5l3-6 1-4 1-2h2l1-4h2v-8l-4-9v-2h-2l-2-3-4-2-4-6-2-1v-3h-3l-6-15-2-16-1-13v-62l2-29 3-8 4-1 1 3 1 14 1 39 2 18 2 6h2v-23l5-13 1-6 1-123 2-11 4-2 2 3 3 11 2 10 3 4h3l2-5 3-17 3-9 1-4 4-15 5-38 5-22 4-8 3-2 4 4 6 25 2 12 2 2 1-3 2-35 2-24 2-41 3-24 4-12z" fill="#D5A2E1"/>
<path transform="translate(655,292)" d="m0 0h5l7 6 2 6v2l3 7 3 15v7l-1 2 3 13 2 3v10h2l3 12 2 5 3 13 2 4 4 2 4 7 8 16 5 9v2l4 2 2 6 4 2 3 9 5 10 4 6 4 8 1 8-1 2 2 3 2 17 5 18 2 14 1 1 2 25 5 16 4 9 5 11 3 17 2 26 2 13 2 20v21l1 2v8h1l2 23 2 12v34l2 37 2 48 3 34 4 33 4 25 1 2 4 36 1 20v18l-1 3v10l-2 4 2 1-1 8v1l-2 6 1 3-2 17-2 12v4l-2 9v4 2h-2l1 6-1 9-2 1v6h-2l1 7-3 16-1 3-1 10-1 1-1 13-3 18-3 22-1 9-2 7-1 10-4 24-3 14v13l-2 15-2 10-3 11h-2l1 5-2 9-1 7-1 6-1 3v11l-1 16-2 5v6l-1 1v6l-1 3-1 19-2 4v27l-4 13-3 4-2 14-3 7-7 6-5 1-12 2-10-2-6 1-3 7h-1l-2 17-2 27v18l-3 22v6l2 3v10l1 10-5 15-5 5-4 8-5 7-3 3 1 5 2 6-3 8-4 4h-6l-3-12-3-2v3l-4 1-2-13-2-8-2-9-1-29 2 4 2 11h2l-2-6-3-14-4-29-2-11v-26l-1-16-1-18h2v-13h-2v-2l-9 4-5 2h-7l1 1h7l5-3 9 1-1 5h2v4h-2l-2-4-3-1-9 5-11-3-3-3-3-1-2-4-3-2v-2l-4-1v2h2v2l-5 1-4 12-4 2-2-5-4-1-4-5-5-15 1-4 9 2 1-9 1-10-3-11-4-9v-13l1-13-4-17-2-21v-34l-8-11-2-2-3-14h2l-1-3-1-19-1-5v-10l2-9h-1l1-8-2-1-1-8-10-56-2-16-4-24-2-4-4-13-3-15-1-15v-16l-2-18-1-3v-13l-1-11-1-2-5-47 2-25 5-21 2-6 2-8 1-10 1-7v-8-3l1-14 1-9v-21l1-18v-19l1-13-1-4 1-22v-43l1-26 3-15 2-18 3-9v-6l2-9 1-6 3-28 1-3v-7l3-16 3-12 4-10v-7l2-3v-5l1-1v-8l2-6-1-11 2-12 3-12 5-13v-4h2l1-9 2-9 3-7 2-1 3-10 4-9 5-9 4-13 2-9 5-13 4-7 4-9 2-6 9-7 1-2 5-1 2-10 1-6v-15l2-13 4-10 3-14 5-19 4-6 5-7zm0 25v2l-4 1-4 8-3 9-4 26-7 49-3 12h-3l-5-1-5 1-11 19-10 32-10 25-1 3h-2l-6 7-4 11-5 27-2 17-2 9-4 23-2 8-4 9-4 11-3 24-5 50-3 42-2 17-3 57-3 55-1 42-1 24-3 22-5 18-2 11-2 17v25l4 42 3 25 5 34 5 25 4 19 4 36 9 51 6 35 4 23 5 23 3 37 4 36 3 17 3 16 9 21 4 10 4 9 7 8 2 1h8l10-5 6 2 2 6 2 37 3 33 3 14 3 18 3 12 6 11 4 3 5-1 6-7 3-6 6-27 3-18 4-40 2-22 3-8 7-1h13l6-2v-2l4-2 6-10 10-21 4-13 5-26 5-42 3-40 3-16 5-20 8-54 3-15 7-49 6-38 6-35 5-31 5-42 1-12v-27l-2-16-4-16-4-20-3-13-3-48-2-35-3-46-4-68-4-62-2-24-8-44-4-10h-2l-2-5-2-6-4-34-6-31-3-10-4-8-8-19-5-12-10-25-4-8-3-7-7-11-6-5h-4l-2-4-3-9-5-35-4-22-2-6-3-14-5-8h-2v-2z" fill="#10162B"/>
<path transform="translate(654,334)" d="m0 0h7l2 2 4 13 5 26 3 28 1 25 1 16v4l4 1 2-10 3-5 5-1 4 2 4 8 10 37 3 14 2 8 2 15 3 10 2 10 6 2 3-9 5-1 3 9 2 17 1 17 1 53 1 7 2 2 7-1 4-1 4 2 3 10 2 16 1 68 1 35 1 18 2 23 3 18 3 36v81l-2 18 1 18 2 5h9v-2l3 1 3 8 2 13v42l-3 29-2 10-10 30-3 11-2 10-3 7-4 24-1 16-1 30-3 26-6 54-3 15-5 13-3 6-1 9-1 35-2 30-3 25-5 22-6 11-3 1v2l-5 3-8 1-8-6-5-4-8-1-6 2-2 4-1 14-1 29-3 49-3 27-4 21-6 15-6 5-6-3-5-9-4-14-4-22-3-24-1-19-1-41-2-36-1-8-2-4-8 1-4 4-3 5-4 6-10 5-8-2-5-5-5-10-3-13-5-28-3-27-1-18-1-34-4-13-4-16-3-28-2-29v-27l-4-16-5-22-2-8-5-18-3-19-4-16-6-26-4-26-3-20v-35l2-11 3-8 5 1 3 5 2 6v19l1 5 4 22 2 6 1 2 6 1 2-9-1-7-7-8v-3h-2l-3-15v-8l-1-3h2l2-6 2-8-1-15-2-16-2-26-1-17 2-21 2-5v-26l1-22 1-14 2-10 3-33v-78l1-37 2-26 3-12 4-2 3 4v2l4-2 5-10 2-29 1-43 2-13 3-8 2-1 4 4 1 4 4 1v-2h2l1-4 4-8 1-5h2l1-6 4-16 6-23 2-13 6-14 4-5h4v2h2l3 9 2 10 3-2 4-36 3-46 3-19 4-13zm2 6-4 4-4 12-3 24-2 41-3 37-1 22-2 3-2-8-5-24-3-8-4-3-4 5-4 12-5 28-4 30-3 12-2 3-3 12-2 13-2 5h-3l-3-5-4-17-2-6-4 1-2 4-1 8-1 124-2 9-4 10v22h-2l-3-12-1-12-1-39-1-14-1-3-5 2-2 7-2 29v62l2 22 2 9 4 11 1 2h3v3l5 5 2 3 4 2 1 2h2l2 5 2 6v8l-3 1v3h-2l-2 3-1 6-2 3 1 7 3 3 1 9-1 10-3 3-6 3-2 3 1 13-3 5-2 11-2 6v8l-1 3-2-1-4-16-3-2-4 2-3 8-1 6v16l3 34 3 16 3 7 1 2 5 3 3 6 1 1h6l-1 13-2 8-5 19-6 23-4 7h-4l-3-10-6-35-3-22-3-4h-2l-3 8-1 5v34l6 37 7 31 5 12 6 7 3-1v-2l2-2 4-6v-2l5-2 3 3 2 9v7l-1 2-9-1-6-4-3 1-2 12 2 15 8 31 6 15 7 6 7 1 2 8-5 3-2 6v11h-2l-2 9-1 6-1 29 3 20 4 12 1 8 1 37 2 26 3 22 6 32 4 11 4 5 3 2h6l6-4 7-8 2-5 4-2 2-5 4-2 3-3v-2l6-2 2 10 1 95 2 26 2 17 5 25 5 14 5 5 4 1 5-5 4-10 4-18 3-24 3-43v-79l2-8h5v2h3l1 3 3 3h2l2 5h2l2 4 5 6h2l1 3h2v2l5 2 7-1 5-5 5-9 4-16 3-17 2-28 1-21 1-39 3-7 4-5 3-10 2-12 1-12v-13l-1-28-1-7-1-11 1-17v-12l1-15 5-24 4-21 4-10 6-5 8-16 6-18 3-15 2-23v-37l-2-12-3-5-2 2-3 13-4 32-3 14-4 12-5-1-3-9-3-13-1-6-2-5-3-21v-13l9-3 4-13 3-12 4-30v-40l-1-23-2-4-4-3h-2l-2-5-4-9-4-7-2-5-1-30-1-4-4-1h-3l-2-4v-7h2l3-3v-2h2l7-14 3-8 2-15 1-14 1-40v-29l-1-11-3-3-5 2-4 6-3 4-2 11v9h-2v2h-2l-1-9-1-31-1-84-2-18-3-7h-2l-3 6-3 21-1 16-1 37-1 6h-2l-1 3-3-5-1-5-2-31v-13l-1-4-2-35-6-46-3-13-3-18-4-12-4-4-5 2-3 7-4 27v4l-4 1-2-43-1-31-2-25-3-19-4-16-2-4z" fill="#9D6CC0"/>
<path transform="translate(654,440)" d="m0 0h5l2 10 2 13 1 19 1 52 1 38v23l-1 31-1 2h2l-1 55 1 21 4 38 5 35 4 20v13l1 7v31l-4 25-2 13-5 27-3 21-2 9-4 24-1 3-5-1-3-16-4-17-6-36-3-25-2-26-1-24 4-50 3-28 3-16 3-19 2-3 2-16v-18l-2-42-2-68 2-58 2-46z" fill="#EAABE7"/>
<path transform="translate(579,542)" d="m0 0h2l3 12 2 21 2 70 1 104 3 14 4 15 8 36 4 23 1 12 7 33 4 25 3 20 4 31 2 22 1 5 2 23 3 20v6l-2-1-1-5h-3l-2-5 1 13 3 25 2 9 2 3-1 14-4 6h-5l-8-11v-2h-2l-3-6-2-11v-10l-1-3v-8h-1l-1-15-2-20-1-4-2-11v-8l-2-4-4-25-4-16-6-10-6-6 1-2 6 6-5-6v-2h-2l-8-15-1-3-5 2-2 6-4 11-3 5-4-1-4-8-1-7-3 1-1 4v11l2 29 2 5 3 1 6-6 7-2 3-1 4-5 4 1 1 4v17l-3 14-5 26-3 9-7 25-7 24-5 8-4-1-5-12-4-18-1-4-1-10-3-25-3 1-1 4-1 23h-1v-30l4-8 2 2 4 22 5 31 5 16 1 3 4-2 12-36 3-12 5-19 5-25 1-19v-2l-4 2-3 4-8 1-3 5-4 4-4-2-3-10-3-31v-20l2-5 5-1 5 17 1 2 3-1 3-10 3-7 3-6 5-1 6 9 6 10 10 12 3 6v3l4-4-2-5 2-13-1-18v-13l1-6-1-11-2-7-2-15-4-16-6-26-6-14-6-8-7-6-6-7-4-9-3-14-1-8-1-41 1-38 2-15 1-2h3l1 4 1 45 1 17 3 17 2 8h2l2 4 5 2 3-1v-113l-1-37v-38z" fill="#E9C9E9"/>
<path transform="translate(584,960)" d="m0 0 4 2 2 9 3 9 3 15 4 39 2 16 3 19 5 16 4 15 9 19 1 4h-2l8 17 3 13 3 6 4 2 2-1-1-4v-2l3 1 4 8 3 13-2 1 2 9 3 6 5 1 4-8 7-22 3-10 4-5h2l-2-6-2-2 4-1 2 9 1 10-1 8-2 3-3 16-2 16-3 15-6 24 1 16-2 1-1-3-6-2-3-3-8-15-3-4h-4l2 8 4 18 4 13-2 1 3 2-1 5 3 5-1 6h2l-1 6h-3l-5-19-4-8-4-6-10-5h-3l-4-4v-9l2-1 2 4 3 1-2-17-3-15-5-6-6-1-1 3h-2l-1 4-8 19-4 16-3 11-6 38-2 19-1 17h-2l-1 2-3-1 1 6v15l2 3v10l-2-2-2-5-1-9v-46l2-22 3-14v-14l4-21 4-16 1-11-4-4-5-3-4-3v-2l-9-3-6-7-4-7-4-15-3-16v-7l2-3 5 1 7 4v2l4 2 12 7 9 6h5l1 2 8-2 2-4 4-3 2-4v-11l2-6 4-4-1-7-3-6-4-2-2-6h-2l-4-8-3-9v-54l-3-35-3-19-4-13-2-1-2 7-6 35-6 32-6 25-6 23-5 10-4 7-2 2h-6l-5-8-4-15-5-21-2-8v-5h2l1 9 2 1v10l2 1-1 2 2 1-1 2h2l1 7 3 8 1 5 4 4 5-2 8-15 6-23 4-16 3-13 5-29 3-16 4-23 2-4-2 1z" fill="#E9CAEA"/>
<path transform="translate(696,448)" d="m0 0 2 2 3 14 3 16 4 28 3 23 2 35 1 10v11l2 27 2 7 2 3 1-3h2l1-6 1-37 2-26 3-14 2-3 3 1 2 6 2 18 1 84 1 31 1 9h2v-2h2v-9l2-11 5-6 3-5 4-1 3 3 1 11v29l-1 40-2 22-2 10-5 12-4 7h-2l-1 2-2 3h-2v7l3 5 4-1 2 1 1 7 1 28 4 8 4 7 4 8v2l4 1 3 3 1 3 1 23v40l-3 22-2 7-2 5-1-4 4-19 2-17v-23l-2-2-5 10-3 8-1 2-4-1-2-7-4-20-2-5-5 1-10 20-3 1-2 4-6 2-2 4-3 7-5 5-3 6h-4l1-16 3-21 3-19 2-20 4-15 5-18 7-20 2-14 5-13 7-6 8-16 3-10 2-15 2-29v-36h-3l-4 24-3 21-4 15-3 5-4 1-2-8-1-45-1-126-2-16-1-1-3 7-2 19-1 24v118l1 16v12l-1 15-2 9-3 7-1 5-2 8-2 4h-2l-2 9-2-1-1-9-5-12 1-5 2-9 1-28 3-37v-65l-1-29-2-31v-17l-6-57-5-30-2-10z" fill="#CB8EDD"/>
<path transform="translate(696,1204)" d="m0 0h2l7 8v2h2l12 36 5 16 3 17 1 4 2 23 1 8 1 12v40l-2 17-3 20-4 8-7-3-10-13-8-13-3-5-1-3-3-1-7-11-4-5-2-1v-2l-3-1v-2l-4-2-6-5-2-4-1-15 1-22 3-20 3-12 2-9 3-8 2 3 4-13v-3l-2 2v-6l3-9 10-24 2-3z" fill="#CB8EDD"/>
<path transform="translate(732,544)" d="m0 0 3 1 2 11 1 126 1 45 1 8 4-1 1-4 3-8 3-15 5-34 2-4 4-1v37l-2 29-2 15-4 13-7 13-7 6-5 13-3 17-8 24-3 11-4 15-4 35-3 16-3 25-2 4-5 57-1 7-2-3v-7l1-2 2-28 2-25 3-13v-9l1-1v-7l1-6v-13h-3l-3 8-3 20-5 34-3 40-3 19-7 48-1 2-4-2-3-9-4-16 1-6-2-1-2-15h-1v-12l3-17 6-28 5-27 1-3 2-17 9-62 2-9 3-8h1l2 10 1 6-1 3h3l2-8h2l4-13 3-15 2-15 5-10 3-14 5-22 1-14v-163l2-25z" fill="#E9C9EA"/>
<path transform="translate(614,463)" d="m0 0h1l-1 12-2 11-2 22-4 29-1 6-2 28-1 18v111l-1 24-1 5-1 7v19l2 6 1 14-2 4h-1l-3-14-3-7v-3h-2l-1-3-1-52v-55h-2l-2-70-3-27-1-6h-2l-1 4v38l1 43v105l-5 5-2-1v-2l-3-1-1-4h-2l-4-12-2-13-1-17-1-49h-3l-2 17-1 49 1 30 2 15 4 12 4 6 3 3v2l4 2 7 7 7 14 4 12 6 29 2 6 2 17 2 5 1 13-1 7v18l1 10-2 14 2 4-3 4h-2l-4-9-10-12-9-14-2-4-5 1-4 11-3 8-3 5-3-1-5-16v-3l-5 2-1 4v20l3 31 3 10 3 1 3-1 2-6 2-2 8-1 4-5h3l1 2-1 19-6 30-6 20-2 9-11 33-2 2h-3l-4-8-4-17-7-43-2-4-3 6h-1l1-9 2-4 4 2 2 9 7 46 4 12v2l5-1 4-10 10-38 2-8 1-13h-6l-3-5-3-4-3-1-3-5-3-14-2-14-2-26v-16l2-10 2-4 5-2 3 5 3 13 2 1 1-6v-5l2-6 3-14 2-4-1-12 5-4 5-2 1-2 1-15-2-5-3-4v-5l3-6 1-4 1-2h2l1-4h2v-8l-4-9v-2h-2l-2-3-4-2-4-6-2-1v-3h-3l-6-15-2-16-1-13v-62l2-29 3-8 4-1 1 3 1 14 1 39 2 18 2 6h2v-23l5-13 1-6 1-123 2-11 4-2 2 3 3 11 2 10 3 4h3l2-5 3-17 3-9 1-4 4-15 5-38z" fill="#D4A1E0"/>
<path transform="translate(610,1208)" d="m0 0h6l6 7 3 15 1 12 1 6-5-2-2-3v11l4 2h3l5 2 4 2 3 3 6 12 5 19 1 22v17l-2 14-2 4-3 1h-10l-3 1-2 4-6 9-6 7-9 17-4 7-6 12-2 2-5-1-3-8-4-16-2-9-1-10v-32l2-26 3-23 4-25 3-11 4-16 8-19 2-4z" fill="#CB8EDD"/>
<path transform="translate(579,1266)" d="m0 0h1l-1 10-3 19-1 13v46l2 12 1 3v-9l-2-3v-21h2l1-2 2 1 1 32 2 15 4 16 3 11 5 1 4-7 6-12 8-14 5-8 7-8 5-8 3-2h11l2-1 2-7 1-15v-33h3l1 18v33l-1 5v11l-5 5h-14l-10 8-2-3-1 3h-2l-2 5-8 14-7 17h-2l-1 4 4-1 1-3 3 9-1 4-6 10-5 3-4-1v-2l7-2 4-7v-4l-2 1h-10l-2 5h-1v-7l2-5-2-1-2 1 2 15 4 8 2 2 5-1 3-1 2-5 6-8h2l2-4 4-7h2l2-6 8-9 5-8 6-2 3 6v20l-1 13v17l1 3 3-13 4-18 4-6 4 1 4 11 2 7 4 29 3 46-1 34-7 38-2 9 3 2-2 7 3-6 5-24 3-40v-24l1-5v-16l-3-34-2-20v-30l2-3h5l4 5 5 6 4 6v2l3 1 3 5 4 6 1 3 4 2 9 10 1 3 6 1 5-4 4-8 4-15 2-6h1l-1 11-5 18-6 9-3 2h-5l-16-16-8-10-11-15-5-6h-4v13l4 52v55l-3 41-5 27-4 11-4 4-5-2-4-6-5-16-5-20-3-28-1-17v-38l2-76-5-1-2 4-9 11-3 5h-2l-2 5-10 13-4 5-4 2h-6l-5-5-5-16-4-24-5-35-1-22v-35l2-21 2-15z" fill="#E9C9E9"/>
<path transform="translate(656,351)" d="m0 0 4 2 3 8 2 12 2 30v37l-4-4-3-9-6 1-2 16-2 42-1 14-1 27v72l1 32 2 41v26l-1 12-3 13-3 21-3 16-4 28h-1l-2 19-1 32 3 33v16l-3-1-2-9-1-3-5-33-2-23-3-19-2-21-3-17-4-23-3-16-2-18-1-21-1-16v-57l2-31 1-6 1-17 2-15 2-1 1 10-1 27-1 16v79l1 5 1 18 5 37v6l1 4-1 2h2v5l1 3 2 11-1 5 3 6h3l3-8h-2l4-25 2-12 4-30 1-128v-41l3-28 2-50 3-30 1-37 3-26z" fill="#F3ECF4"/>
<path transform="translate(585,969)" d="m0 0 3 2 4 13 4 27 2 27v30l-2 8-1 15v8l3 6 3 2v2h2l3 6 1 6-5 17v4l-4 1-10-4-4-2v2h2l1 5-1 1h-6l-3-3-3-1h-7l-12-6-3-2h-4l-2 9 5 24v6l-2-4-5-22-1-10 1-8 2-4 5 2 6 3h6l1-2v-7l-2-10-3-2-5 2-2 5-2 4-2 2-1 2-4-2-4-5-5-12-7-31-6-37v-34h1v30h2l3 22 1 8 5 23 4 14 4 10 1 1h6l4-5 4-9 3-8 5-19 6-25 5-27 4-21 4-24z" fill="#CB8EDD"/>
<path transform="translate(683,484)" d="m0 0 5 1 2 5 2 8 1 11 1 2 4 31 1 12 2 44 2 29v38l-4 28-3 22-2 13-3 19-2 7-2 4h-2l-4-15-3-27-2-27v-104l1-39 2-24 4-27z" fill="#CB8EDD"/>
<path transform="translate(717,1030)" d="m0 0h4l1 2v23l-3 21-1 11h-1l-2 18-4 8-3 14v21l2 10 5 8 6 1 5-2 2-6 10-20 3-9 1-1 2-11 2-3 3-11 2-2h4v2h2l2 5 1 9-4 20-8 24-10 26-5 12-6 15v13l5 23 5 36 3 27v47l-1 29-2 20h-2l1-29-1-2-2 12-5 22-2 4h-2v2l-5 1-5-3-8-10-11-17-5-7-3-6v-2h-2l-3-5-6-5-3-3-7-4-3-2-4-10v-14l1-27 3-20v-5h2l-1-3 1-1-2-2 2-10h2l2-4 5-21 5-14 5-17 2-6-1-3 4-10 5-3 8 5 3 5-1 3 1 2 3 1 6 12-1 6 3 9 2 8 6 18 2 9v4h2l2 3v-12l-2-11-4-16-1-7v-9l5-16 5-12 3-9 6-13 6-15 6-20 2-12-1-6-4 2 4 4-1 3h-4l-4 11-4 13-3 7-2-1-5 11 1 4-3 5-5 5-5 3-6 1-4-2-4-7 1-3 3 5v2h3l-8-13-1-3-2 2-5-10-2-9h1l4-13 1-5-1-2 6-18 7-23 3-19 2-3 1-14-1-2-6 11-3 3-4 7-5 8-3 9-2 3h-3v-8l2-3 2-4 5-19 2-3h3 5l2-9zm-21 174-3 1-7 14-5 14-3 8v6l2-2-2 10-2 6-2-3-4 11-3 15-3 17-1 9-1 20 1 14 2 4 8 7h2l1 3h2v2l5 5 7 10 2 3h2l2 4 8 14 8 11 5 6 6 2 4-8 4-25 1-12v-40l-1-15-2-14-1-14-3-13-2-11-4-13-12-36h-2l-2-4-5-6z" fill="#E9C9EA"/>
<path transform="translate(670,508)" d="m0 0 4 3v2l3 1v13l-1 12h-2l1 2v152l2 27 3 23v7l1 1 2 14h-2l3 9 1 6h1l2 16 3-17 2-17 1-21 1-4 2-17 3-25 4-19 3-8h2l1 2-1 25-2 29-3 23-3 28-3 21h-1l-1 27-2 14-2 5-7 45-5 35v6l-2 7-5 25-4 3h-3v-10l2-9-1-1v-8l5-29 3-14 3-24v-8l2-10v-45l-2-21h2l-6-24-2-12-4-42-1-30v-28l-1-1 1-42v-93l2-3z" fill="#F3ECF4"/>
<path transform="translate(724,969)" d="m0 0 5 1 4 2 6 27 4 24 2 20 2 7 3 14 2 7 2 11-1 5-7 15-3 15-2 8-3 8h-2l-2 6-5 8-2 5-3 2h-4v-6l3-7v-2h-2l-3-8-3-4-1-8 1-12 1-5 2-27 3-20v-25l-4 1-6 17-5 1-1-2 3-23 8-33 3-14 3-6z" fill="#CB8EDD"/>
<path transform="translate(696,448)" d="m0 0 2 2 3 14 3 16 4 28 3 23 2 35 1 10v11l2 27 2 7 2 3 1-3h2l1-6 1-37 2-26 3-14 2-3 3 1 2 6 2 18 1 84 1 31 1 9h2v-2h2v-9l2-11 5-6 3-5 4-1 3 3 1 11v29l-1 9h-1l-1-33h-3l-4 24-3 21-4 15-3 5-4 1-2-8-1-45-1-126-2-16-1-1-3 7-2 19-1 24v118l1 16v12l-1 15-2 9-3 7-1 5-2 8-2 4h-2l-2 9-2-1-1-9-5-12 1-5 2-9 1-28 3-37v-65l-1-29-2-31v-17l-6-57-5-30-2-10z" fill="#CB8EDD"/>
<path transform="translate(597,849)" d="m0 0 2 4 2 9 4 20 4 28 5 37 4 33 4 29 4 26 2 14v12l-1 10-4 3 2 2h3l1-3 1 4-2 4-5-2-6-9-3-7-4-21h-2l-1-15-2-20-1-4-2-11v-8l-2-4-4-25-4-16-6-10-6-6 1-2 6 6-5-6v-2h-2l-8-15-1-3-5 2-2 6-4 11-3 5-4-1-4-8-1-7-3 1-1 4v11l2 29 2 5 3 1 6-6 7-2 3-1 4-5 4 1 1 4v17l-3 14-5 26-3 9-7 25-7 24-5 8-4-1-5-12-4-18-1-4-1-10-3-25-3 1-1 4-1 23h-1v-30l4-8 2 2 4 22 5 31 5 16 1 3 4-2 12-36 3-12 5-19 5-25 1-19v-2l-4 2-3 4-8 1-3 5-4 4-4-2-3-10-3-31v-20l2-5 5-1 5 17 1 2 3-1 3-10 3-7 3-6 5-1 6 9 6 10 10 12 3 6v3l4-4-2-5 2-13-1-18v-13l1-6-1-11-2-7z" fill="#EAABE8"/>
<path transform="translate(748,893)" d="m0 0 3 1 2 8 1 10-1 4 2 1 1 8 2 4 5-3 2-9 5-8 2 1v20l-3 21-4 15-2 2h-4l-10-20-1-8-3-9-2-3-3-1-1 10-1 5 4 28 3 15 4 24 6 26 6 23 5 13 3 3 3-1 5-12 3-11 3-16 2-23 2-7 2-1 2 4v23l-1 12-3 11v4h-2l-1 8-1 6h-2l1 5-3 1-1 10-5 8-6-1-1-3h-2l-5-14-3-7-4-11-2-12-3-12-2-14-3-12-2-15-1-13h-2l-1-5-1-8-6-16h-3l-7 15-2 5v6l-3 9-1 7-4-1-1-1-1-8 1-21 3-16 3-7 3-1 2-4 4-5 6-5 7-9 5-12-1-2 4-7z" fill="#F3ECF4"/>
<path transform="translate(688,433)" d="m0 0 6 1 5 9 10 37 3 14 2 8 2 15 3 10 2 10 6 2 3-9 5-1 3 9 2 17 1 17 1 53 1 7 2 2 7-1 4-1 4 2 3 10 2 16 1 68 1 35 1 18 2 23 3 18 3 36v32h-1l-1-29-2-16v-5l-4-2-4-3-1-5h-2l-1-6v-48l1-2 1-20 1-7v-83l-1-13-6 1-4 6-3 4-2 11v7l-1 2h-2v2h-2l-2-9-1-31-1-84-2-18-2-6-2-1-3 10-2 17-1 16-1 37-2 6h-2l-1 4-3-4-2-7-2-31v-13l-1-4-2-35-6-46-3-13-3-18-4-12-3-3-4 1-3 7-4 27-1 4-4 1-1-2-1-29h2l2 10 2 3 2-8 1-11 4-8z" fill="#A37AC2"/>
<path transform="translate(563,1157)" d="m0 0 8 5 11 9 8 4h8l-5-1 4-2h2v-2l12-9 4-2h8l5 3 3 4 3 6 4 25 4 17 4 10-1 3-5-7-3-1v-13l-1-4v13l-3-1v-2l-4-1-10-14-3-2h-6l-4 6-1 7-2 5h-2l-1 7-3 8-8 31-4 24-4 36-1 7v11l-4-1 1 6v15l2 3v10l-2-2-2-5-1-9v-46l2-22 4-21 4-20 4-16 3-15 1-13 1-4-5-1 3 4-8-1-6-5-5-3-6-2-4-7v-4l-4-8v-11z" fill="#F3ECF4"/>
<path transform="translate(741,935)" d="m0 0h3l5 18 5 8 2 6 3 8h3l4-10h2l2-6 1 2-7 25-9 3v14l2 16 2 7 2 6 2 12 3 9 2 4h4l5-15 4-25 3-24 3-9 3 3 2 7 1 7v37l-2 23-2 3v3h-2l1 4-7 21-6 12h-2v2l-5 1-1 3h-2l-4 19-7 28-4 10-4 17-1 5-3 9-2 1-2 5-3 3v7l-1 4h-2l-2 4-1 1 1 10 3 13 4 30 2 16v10h-1l-6-44-6-30v-13l10-26 4-8 7-19 6-18 4-14 2-14-2-12h-2v-2l-5 2-4 13-2 5-1 7-3 6-4 10-10 20h-2l-1 2-5 1-4-2-6-11-1-8v-20l4-17 3-6 1-5 1-14 2 2-1 17-2 11v8l3 7 3 5v4h2l1 3-3 6-1 6 4-1 2-3 1 1 3-7 6-11h2l4-16 3-15 7-15 1-7-3-15-3-9-2-12-1-3-1-12 2 4 5 23 5 15 7 22 2 2v3l3 1 1 2h5l5-11 5-14 4-14 3-20 1-9v-30l-1-8h-3l-2 11-3 27-4 19-3 12-4 6-4-2-5-12-8-28-6-29-4-25-4-22v-15z" fill="#D4A1E0"/>
<path transform="translate(551,744)" d="m0 0h2l3 15 2 9 4 2 1 3 5 2v2h2v2l4 2 7 10 4 14 1 11v7h3l2 4 1 13v11l2 8 1 8-1 11v7l-4 20-4 2-7-6 2-2 3-1-1-2h2l1-10-2-7-5 5-5 3-6 1-3 3h-2l-1 8-4 15-4 3-3-7-2-10-3-4h-3l-1 10v20l3 31 3 10 3 1 3-1 2-6 2-2 8-1 4-5h3l1 2-1 19-6 30-6 20-2 9-11 33-2 2h-3l-4-8-4-17-7-43-2-4-3 6h-1l1-9 2-4 4 2 2 9 7 46 4 12v2l5-1 4-10 10-38 2-8 1-13h-6l-3-5-3-4-3-1-3-5-3-14-2-14-2-26v-16l2-10 2-4 5-2 3 5 3 13 2 1 1-6v-5l2-6 3-14 2-4-1-12 5-4 5-2 1-2 1-15-2-5-3-4v-5l3-6 1-4 1-2h2l1-4h2v-8l-4-9v-2h-2l-2-3-4-2-4-6-2-1v-3h-3l-6-15z" fill="#CB8EDD"/>
<path transform="translate(623,523)" d="m0 0 4 1 3 5 2-4h2l3 81v48l-1 18-5 10-3 4-4 19-5 1-3-15-2-21v-95l3-23 2-7 1-10 2-11z" fill="#CB8EDD"/>
<path transform="translate(654,440)" d="m0 0h5l2 10 2 13 1 19 1 52 1 38v23l-2 54-1 4-3 21-2 5-4 2-1 3-2-26-2-54-1-39 2-58 2-46z" fill="#CB8EDD"/>
<path transform="translate(604,714)" d="m0 0 2 2 3 23 8 48 4 34 3 26 3 27 4 26 5 28 2 13 2 9 3 21 5 22v15l-3 15-1 15-3 9-4-1-6-39-2-22-3-25-2-19-7-49-5-25-5-24 1-4 4 10h1l2-11h1v-40l-4-26-7-28z" fill="#EBABE8"/>
<path transform="translate(733,561)" d="m0 0 3 1v122l1 47 1 13-2-1v3h2v3l7-3h-1-5l4-2v-2h2l-1-3h2l3-11 3-10 3-17 3-8 2 1v17l-2 25-4 18-7 14-6 5-1 1-5 10-1 5-5 20-5 10-4 14-5 27-3 11-2 21-1 7h-1l-1-13 2-24-1-4v-9l2-16 1-1 3-21 4-10 4-19 4-15 2-5 1-8 1-5 1-3v-91l-1-33v-48l1-12z" fill="#F3ECF4"/>
<path transform="translate(695,837)" d="m0 0 3 3 1 6-1 3h3l2-8h2l2-2 1 5-4 21-2 10-3 16-4 33-3 21-6 57-5 36-1 10-4 3-3-7-6-25v-22l10-50 4-24 6-41 4-23 3-11z" fill="#EAAAE7"/>
<path transform="translate(614,463)" d="m0 0h1l-1 12-2 11-2 22-4 29-1 6-2 28-1 18v111l-1 24-1 5-1 7v19l2 6 1 14-2 4h-1l-3-14-3-7v-3h-2l-1-3-1-52v-55h-2l1-14 1-22-2-35-3-24-3-12-2-1-2 8h-1v-8l3-5h3l4 14 2 10 3 4h3l2-5 3-17 3-9 1-4 4-15 5-38z" fill="#CB8EDD"/>
<path transform="translate(654,334)" d="m0 0h7l2 2 4 13 5 26 3 28 1 25 1 16v4l4 1 1-3-1 13-3 3-3-8v-6h-2l-1-12-1-31-2-25-3-19-4-16-1-3-5-1-3 3-4 12-3 24-2 41-3 37-1 22-2 4-3-3-5-26-3-11-4-3-3 4-4 12-5 28-4 30-3 12-2 3-3 12-2 13-3 6-4-1-3-5-4-17-2-5-3 1-2 11-1 124-2 9-4 10-1 22-4-1-2-11-1-12v-39h1v5l5-2 2-6 1-7h2l1-39v-53l2-13 3-8 2-1 4 4 1 4 4 1v-2h2l1-4 4-8 1-5h2l1-6 4-16 6-23 2-13 6-14 4-5h4v2h2l3 9 2 10 3-2 4-36 3-46 3-19 4-13z" fill="#A47BC3"/>
<path transform="translate(520 1e3)" d="m0 0h1l1 34 6 37 7 31 5 12 5 6 2-1 7-11 4-1 1-2 3 1 3 12v7l-2 3-9-1-5-3-1-2-2 2-2 10 2 16 8 31 6 15 8 6 5 1 3 6-1 3-4 2-2 6-1 11h-2l-2 15-1 29 3 20 4 12 1 8 1 37 2 26 3 22 6 32 4 11 6 6h6l6-4 6-7 3-5 15-15 4-1 2 3 1 7 1 95 2 26 2 17 5 25 5 14 1 3 4 2 6-1 2-4 5-16 4-24 3-38h2l-1 21-3 27-4 21-6 15-6 5-6-3-5-9-4-14-4-22-3-24-1-19-1-41-2-36-1-8-2-4-8 1-4 4-3 5-4 6-10 5-8-2-5-5-5-10-3-13-5-28-3-27-1-18-1-34-4-13-4-16-3-28-2-29v-27l-4-16-5-22-2-8-5-18-3-19-4-16-6-26-4-26-3-20z" fill="#A47BC3"/>
<path transform="translate(789,1062)" d="m0 0h1l-1 10-5 16-5 13-6 10-5 4-4 10-6 31-3 16-1 22v10l-1 15 2 11v12l1 18v13l-2 19-3 13-4 6-3 4-1 4-1 39h-1l-1-47-3-30-4-27-3-16-2-9v-6l4-5h2v-11l4-4 2-5 5-11 1-8 4-15 4-11 6-24 4-17 4-5 5-1v-2h2l8-20 4-13v-4h2l-1-4z" fill="#CB8EDD"/>
<path transform="translate(605,707)" d="m0 0h2l3 24 8 40 2 14 1 17 3 18 3 30 4 27 2 7 1 3 2 1-3-41-1-16 1-26 2-21 2-3 3-21h1v8l-2 16-3 43 1 25 2 23 4 31 5 30 4 17 3 16 4 1 2-14 3-20 2-7 3-20 4-23 3-20 3-18 2-2-1 7-2 20-3 25-3 13-6 36-5 25-3 10-5 12-7 44-3 16-3 5-5 2-2 4-1-14v-9l2-8 2 1 2 11h3l2-8 1-15 3-15v-15l-5-22-4-27-2-7-3-19-6-37-4-31-2-20-4-35-5-34-3-16-3-19-1-10-1-3z" fill="#E9CAEA"/>
<path transform="translate(580,581)" d="m0 0 4 1 1 26 1 66v14l1 21v13l-1 9v14l2 13 1 7-1 2h2l1 7 1 2 1 9 2 4 7 34 4 22 3 17 2 16-2 3-5-12-3-13-1-13h-2l-4-20-3-13v-4l-2-1-1-5 1-2h-2l-7-17-10-12-10-10-4-12-2-9v-9l-1-5v-47l1-15 1-5 2 4 1 14 2 38 5 19 4 8 3 4-4-1 6 5h3l-3-3 7-2v-107l-1-21z" fill="#F3ECF4"/>
<path transform="translate(778,1421)" d="m0 0 4 1 1 3v6h5l-2 6-3 3h4l1-2 2 2h3l1 3v7l-1 4-5 1-3 5h-3l-1 13 3 1-1 10-3 1-2 6-7 1-3 5 1 6 4 2-2 10-4 10-3 11-2 5h-2l-2 5-6 2-2-1v-8l-3-4-5 1-2-2-6 1-3 3-3 15-4 6-4-4 3-1v-2l3-3 2-10 3-9 2-10 1-4 10 2 6-1v-5l6-14-1-7 4-2 2-9 3-10 2-5 1-6h-2v-4h-2l-1-7 2-10 1-2h2v-5l4-8 1 2 4 1v-4z" fill="#06121F"/>
<path transform="translate(696,1204)" d="m0 0h2l7 8v2h2l12 36 5 16 3 17 1 4 2 23 1 8 1 12v40l-2 17-3 20-4 8-7-3-10-13-8-13-3-5-1-3-3-1-7-11-4-5-2-1v-2l-3-1v-2l-4-2-6-5-2-4-1-15 1-22 3-20 3-12 2-9 3-8 2 3 4-13v-3l-2 2v-6l3-9 10-24 2-3zm9 32-3 5-2 9h-8l-7-3-3 3-5 13-4 9-3 11v10l3 8v12l-4 13v12l4 8 9 12 2 3h2l1 2 2-10 12 5 8 10 5 2-6 2-2 2-1 7v9l6 12 7 8 5-1 4-10 1-22 2-3 1-5v-33l-2-24-3-25-3-16-3-9-2-7-5-14-6-5z" fill="#D5A2E1"/>
<path transform="translate(1227,464)" d="m0 0h1v900h-1l-1-200-1-28v-23l-1-77-1-137 1-310v-15l1-2v-61l1-4z" fill="#1B162E"/>
<path transform="translate(550,730)" d="m0 0h1l2 22 2 9 4 11v2h3v3l3 1 4 6 5 3v2h2l4 8 1 9-3 3-1 3h-2l-2 6 2 1h-2l-2 5 1 7 3 3 1 9-1 10-4 4-6 3-1 5 1 10-3 5-2 11-1 6h-2l1 8-2 4-3-1-4-17-2-1-4 1-1 4-2 10h-1v-8l3-11 2-4 3-1 1-5-1-3 1-1-1-11 3-6h2v-8l1-2-4-2-1-1v-12l4-7 5-2 1-8 1-9-3-22-3-12-3-24z" fill="#A47BC3"/>
<path transform="translate(739,1302)" d="m0 0h1l1 9v68l-2 28-4 23-4 13-6 9-5 3-7-1-3-1v-2l-3-1v-2l-3-1-6-7v-2h-2l-2-5h-2l-4-4v-2h-3v-2h-5l-2 8v79l-3 43-3 24-4 18-4 10-5 5-4-1-5-5-6-18-4-21-3-26-1-17-1-95-1-7-1-3-6 2-2 4-3 3h-2l-2 5-4 2-2 5-7 8-6 4h-6l-5-4-4-7-4-17-5-27-3-27-1-16v-31h1l2 44 4 31 4 20 3 16 4 9 1 3h8l4-2 13-17 3-5h2l2-5 9-11 3-4 5 1v45l-1 31v38l2 26 2 19 7 28 4 10 2 4 7 1 2-5 4-13 4-23 3-41v-55l-4-52v-10l1-3 4-1 10 12 8 11 3 4v2l3 1 7 8 9 9h5l5-5 4-8 5-20 3-26 1-29z" fill="#D19BDF"/>
<path transform="translate(642,451)" d="m0 0h1v24l-1 23-2 19-2 11v29l1 74v28l-1 43-4 20-1 2-2 18-3 12-4 1-2-6-8-50-2-50 1-71 2-2v96l2 19 2 15 5-1 1-9 3-12 4-5 3-7 1-28v-40l-2-56v-23l-2 1-2 5-2-4-2-3h-3l-2 14-2 10-3 18-1 9h-1v-17l3-27 5-30 3-5 1 2h2l3 7 2 1 1-6-3-21v-13h1l4 24 2 5h1l2-28z" fill="#D4A1E0"/>
<path transform="translate(619,449)" d="m0 0 1 3-4 21-2 10-3 31-2 15-4 51-1 16-1 41v32l3 75 7 28 4 27v40l-2 4-2 7-3-3-3-10-4-23-10-45-4-13-1-7-1-103 2-1 1 43v17l1 50h2l4 10 3 13 1-6-2-16-1-1v-19l1-10 1-2 1-27v-116l1-15 2-26 2-12 4-27 2-22 5-25z" fill="#D5A2E1"/>
<path transform="translate(655,1425)" d="m0 0 3 4 2 10 3 20 2 37v40l-2 14-4 16-4-1-3-6-3-15-1-9-1-24v-23l1-38 3-19 2-5z" fill="#9E6FC0"/>
<path transform="translate(746,886)" d="m0 0 5 1 3 8 3 19 1 5 4 1 3-10 5-11 4 3v23l-3 23-5 20-4 8-4-1-5-13-4-8-5-15v-4h-3v17l4 22 5 30 6 28 8 27 4 9 3 1 3-5 5-20 3-17 2-21 2-11 2-1 3 3 1 6v30l-1 9h-1v-35l-2-3-2 7-2 23-5 24-5 13-3 4-4-2-3-5-4-10-6-23-5-21-7-41-3-17-2-18 1-2 1-7 1-2 4 1 4 8 2 12 9 18v2l5-2 4-15 3-21v-20l-3 3-3 9-2 5-5 3-3-5-1-8-1-5-2-18-6 1-4 7 1 2-6 14-11 12-10 10-3 7-3 16-2 7-4 37-1 11-5 1 1-14 3-28 3-36 1-6 1 2 5-1 3-6 3-4h2l1-4 4-7 5-3 5-4 10-20z" fill="#E9C9E9"/>
<path transform="translate(785,1086)" d="m0 0 1 4-7 22-4 12-1 8-3 7-4 24-1 16-1 30-3 26-6 54-3 15-5 13-3 6-1 9-1 35-2 30-3 25-5 22-6 11-3 1v2l-5 3-8 1-8-6-5-4-8-1-6 2-2 4-1 14-1 29-2 28h-1v-95l2-9 6 1v2h3l4 4v2h2l2 5h2l7 9 5 4v2l10 1 5-3 6-11 4-16 3-17 2-28 1-21 1-39 3-7 4-5 3-10 2-12 2-16 1-25 2-20 1-18v-34l2-15 1-16 3-12 2-3h2l1-5 8-16z" fill="#A37AC2"/>
<path transform="translate(761,705)" d="m0 0h1v21l-3 24-2 12-3 10-7 9-2 2h-3l-2 5-2 6-1 20-2 6h-2l-2 5-4 19-7 21-1 23v16h2l2-5 10-5h2v-2l2-2-3-11 1-2v-5l3-1 2 5 11 3 3 2 4 18 1 3 3 2 4-8 4-4h2l2 3v7l-3-2-5 10-3 8-1 2-4-1-2-7-4-20-2-5-5 1-10 20-3 1-2 4-6 2-2 4-3 7-5 5-3 6h-4l1-16 3-21 3-19 2-20 4-15 5-18 7-20 2-14 5-13 7-6 8-16 3-10 2-15z" fill="#D4A1E0"/>
<path transform="translate(683,484)" d="m0 0 5 1 2 5 2 8 1 11 1 2 4 31 1 12 2 44 2 29v38l-4 28-3 22-2 13-3 19-2 7-2 4h-2l-4-15-3-27-2-27v-104l1-39 2-24 4-27zm3 36v4h-2l-1 5v8l2 1-6 6-2 129 1 22 2 17 5 18h2l2-9 2-12 3-12 4-22 1-4 1-13v-50l-2-35-1-9-2-32-1-5-2 2-1 4-1-8z" fill="#D4A1E0"/>
<path transform="translate(656,351)" d="m0 0 4 2 3 8 2 12 2 30v37l-4-4-3-9-6 1-2 16-2 42-1 14-1 27-1 7h-1l-1-9h-2l-1 8-2 2 2-21 2-33 1-28 3-30 1-37 3-26z" fill="#F4EDF5"/>
<path transform="translate(678,1231)" d="m0 0 1 2-3 9-4 16-5 22-3 14-1 14 1 2-1 20 1 14 1 4 4 2 6 5 3 3v2l3 1 10 14 7 8 4 8 7 11 8 10 6 2 3-7 4-25 1-12v-40l-1-13 1-1v-12l-1-13v-6l4 1 2 7 2 2 2 19v47l-1 29-2 20h-2l1-29-1-2-2 12-5 22-2 4h-2v2l-5 1-5-3-8-10-11-17-5-7-3-6v-2h-2l-3-5-6-5-3-3-7-4-3-2-4-10v-14l1-27 3-20v-5h2l-1-3 1-1-2-2 2-10h2l2-4 5-21 3-7z" fill="#E9CAEA"/>
<path transform="translate(623,445)" d="m0 0 5 5 3 16 2 23 2 11-1 6h-3l-3-4v-4h-4l-3 15-4 26-2 19-1 20-3-1 1-32-1-1-2 13-1 17-2 20-1 21v60l1 9 1 22-2 7h-1l-2-51v-36l1-30 2-29 3-38 3-23 2-25 2-10 5-22z" fill="#E9CAEA"/>
<path transform="translate(1484,1727)" d="m0 0 14 1 10 2 3 1 1 4-6 6-5 1-7 2-2 1h-38l-19 1-39-2-10-2-7-3-6-4-1-4 6-2 3 1 30 3h44l14-2z" fill="#040612"/>
<path transform="translate(625,1255)" d="m0 0 7 3 4 2 3 3 6 12 5 19 1 22v17l-2 14-2 4-3 1h-10l-3 1-2 4-6 9-6 7-9 17-4 7-6 12-2 2-5-1-3-8-4-16-2-9-1-10v-32h1l1 30 4 24 4 14 2 3 3 1 2-4 2-6h2l3-9 5-7 7-14 5-6 5-9 2-4h2v-10l2-9 5-8v-7l-5-10v-8l2-9-3-15-5-13-2-1z" fill="#D5A2E1"/>
<path transform="translate(579,542)" d="m0 0h2l3 12 2 21 2 70v77l-2-2v-12l-1-22v-28l-1-55-1-19-2-2v41l1 14v104l-4 4-2 1 5 4-9-2-5-5 1-2 2 1-4-5-5-15-2-9-2-43-1-9-1 1-1 15v47l1 7v12l-2-1-1-8-1-41 1-38 2-15 1-2h3l1 4 1 45 1 17 3 17 2 8h2l2 4 5 2 3-1v-113l-1-37v-38z" fill="#E9CAEA"/>
<path transform="translate(717,1030)" d="m0 0h4l1 2v23l-3 21-1 11h-1l-2 18-4 8-3 14v21l2 10 5 8 6 1 5-2 2-6 6-8 7-14h1l-1 11-2 5-2-1-5 11 1 4-3 5-5 5-5 3-6 1-4-2-4-7 1-3 3 5v2h3l-8-13-1-3-2 2-5-10-2-9h1l4-13 1-5-1-2 6-18 7-23 3-19 2-3 1-14-1-2-6 11-3 3-4 7-5 8-3 9-2 3h-3v-8l2-3 2-4 5-19 2-3h3 5l2-9z" fill="#E9CAEA"/>
<path transform="translate(733,538)" d="m0 0 2 2 1 8-4-4-2 16-1 15v167l-2 16-8 32-4 8-3 20-4 18-7 14-3-1-1-9-1-2v-11l3-31h2l3-41 3-21 2-1v23l-2 9-1 5 5 13 1 8 3-8h2v-4h2l1-12 3-4 2-9 1-4 1-22v-13l-1-15v-111l1-24 2-19z" fill="#D4A1E0"/>
<path transform="translate(655,1057)" d="m0 0 5 1 4 8 4 10 1 7v21l-2 3-5 30v3l-1 6-5 3-4-4-4-18v-13l-1-12h-1v-12l2-13 4-15z" fill="#E9C8E9"/>
<path transform="translate(543,968)" d="m0 0h2l4 12 4 1 3 4 2 4 6 1 1 7-2 12-3 9-7 28-4 11-3 4-4-1-5-14-5-31-3-22-4-4-3 13h-1v-8l4-11 5 1 3 5 2 6v19l1 5 4 22 2 6 1 2 6 1 2-9-1-7-7-8v-3h-2l-3-15v-8l-1-3h2l2-6 2-8z" fill="#9D6CC0"/>
<path transform="translate(741,935)" d="m0 0h3l5 18 5 8 2 6 3 8h3l4-10h2l2-6 1 2-7 25-9 3v14l2 16 2 7 2 6 2 12 3 9 2 4h4l5-15 4-25 3-24 3-9 3 3 2 7 1 7v37l-1 12h-1v-47l-1-8h-3l-2 11-3 27-4 19-3 12-4 6-4-2-5-12-8-28-6-29-4-25-4-22v-15z" fill="#CB8EDD"/>
<path transform="translate(553,1179)" d="m0 0 2 2 5 12 4 4 10 5 4 3v2l5 2 4 3-1 8-2 5-3 4h-2l-2 5 2 2 1 2-1 10-1 5v10l-5 25-2 27h-1l-3-13-3-10-2-19 1-25 2-13 1-2h2v-11l3-7 4-2-2-8-7-1-7-6-6-15z" fill="#CB8EDD"/>
<path transform="translate(568,894)" d="m0 0 4 1 9 15 8 10 2 7 4 8 4 15 4 25v9l-3-4-4-25-4-16-6-10-6-6 1-2 6 6-5-6v-2h-2l-8-15-1-3-5 2-2 6-4 11-3 5-4-1-4-8-1-7-3 1-1 4v11l2 29 2 5 3 1 6-6 7-2 3-1 4-5 4 1 1 4v17l-3 14-5 26-3 9-7 25-7 24-5 8-4-1-5-12-4-18-1-4-1-10-3-25-3 1-1 4-1 23h-1v-30l4-8 2 2 4 22 5 31 5 16 1 3 4-2 12-36 3-12 5-19 5-25 1-19v-2l-4 2-3 4-8 1-3 5-4 4-4-2-3-10-3-31v-20l2-5 5-1 5 17 1 2 3-1 3-10 3-7 3-6z" fill="#E9CAEA"/>
<path transform="translate(607,502)" d="m0 0h1v8l-4 17-2 3-3 12-2 13-3 6-4-1-3-5-4-17-2-5-3 1-2 11-1 124-2 9-4 10-1 22-4-1-2-11-1-12v-39h1v5l5-2 2-6 1-7h2l1-39v-53l2-13 3-8 2-1 3 2v4l4 11 3-1 3-4 2-4 3-7h2l1-7 3-10z" fill="#A47BC3"/>
<path transform="translate(740,572)" d="m0 0h1l1 53 1 7 2 2 7-1 4-1 4 2 3 10 2 16 1 68 1 35 1 18 2 23 3 18 3 36v32h-1l-1-29-2-16v-5l-4-2-4-3-1-5h-2l-1-6v-48l1-2 1-20 1-7v-83l-2-20-8 1-4 4-5 3-3-1-1-8z" fill="#9D6CC0"/>
<path transform="translate(991,810)" d="m0 0 13 2h6l3-1h13l25-1h68l3 1-1 6-2 1-3-3-9-1-10 2-10 1-23 1-19 3-14 4h-8l-2-1-10-1-1-1h-5l-4 1-2 4-3 2h-6l-4-4-1-6 2-7z" fill="#040612"/>
<path transform="translate(668,1281)" d="m0 0h1v5l2 1 1 9 2 5v12l-4 13v12l4 8 9 12 3 3 3-8 4 1 9 4 8 10 4 2-1 2-5 1-2 5v12l6 12 6 7h4l3-6 2-1-1 7-3 6-7-3-10-13-8-13-3-5-1-3-3-1-7-11-4-5-2-1v-2l-3-1v-2l-4-2-6-5-2-4-1-15 1-22 3-20z" fill="#D4A1E0"/>
<path transform="translate(763,693)" d="m0 0h1v54l-1 11-1 16-1 4v52h2l3 6 6 4 3 21 1 29v49l-2 5-1-4 1-9v-40l-1-23-2-3-1-3-4-1-5-10-4-7-4-9-1-30v-4l-6 1-4-6 1-7h2l2-4 3-1 2-6 4-8 3-8 2-15 1-14z" fill="#A37AC2"/>
<path transform="translate(594,1276)" d="m0 0 4 2 1 5-4 10v18l1 4-1 2h-2l2 7 1 13v25l1 4 6-3h2l-1-4 5-5 1 7-1 7-5 5 1 2-2 12-5 10h-5l-3-11v-16h-2l-2-6-1-18v-21l5-31 1-6z" fill="#A47BC3"/>
<path transform="translate(570,953)" d="m0 0h3l1 2-1 19-6 30-6 20-2 9-11 33-2 2h-3l-4-8-4-17-7-43-2-4-3 6h-1l1-9 2-4 4 2 2 9 7 46 4 12v2l5-1 4-10 10-38 2-8 1-13h-6l-3-5-3-4-3-1-3-5-2-7v-11h1l3 10 3 1 3-1 2-6 2-2 8-1z" fill="#CE95DE"/>
<path transform="translate(1046,1115)" d="m0 0h6l-1 2 6 1 3-1h12l20 4v-2l12 2 10 3v3l-12 1h-93l-14-1 5-4 13-5h7l3-1h23z" fill="#060714"/>
<path transform="translate(584,960)" d="m0 0 4 2 2 9 3 9 3 15 4 39 2 16 3 19 5 16 4 15 9 19 1 4-5-1-9-16-4-16-3-8-3-17-2-25-1-2-3-35-3-19-4-13-2-1-2 7-6 35-6 32-6 25-6 23-5 10-4 7-2 2h-6l-5-8-4-15-5-21-2-8v-5h2l1 9 2 1v10l2 1-1 2 2 1-1 2h2l1 7 3 8 1 5 4 4 5-2 8-15 6-23 4-16 3-13 5-29 3-16 4-23 2-4-2 1z" fill="#E9CAEA"/>
<path transform="translate(786,982)" d="m0 0h3v2h2l3 16v42l-3 29-2 10-2 5h-2l-2 9-4 12-8 16-1 3h-2l-3 9-1 6-2 23-1 8v34l-1 18-2 20-1 25h-1l-2-27v-15l-2-9 1-21v-12l1-15 5-24 4-21 4-10 6-5 8-16 6-18 3-15 2-23v-37l-2-12-2-4-3 8-2 15h-1v-10l2-10z" fill="#A47BC3"/>
<path transform="translate(1751,181)" d="m0 0 4 2 3 2v3l4 2 8 1 3-1v10l-2 1v-3l-4 2-8 1-5 2h-7l-4 3-9 1-6 2-4 1-4-1-7 2-2 2-2-4 4-11h2l2-4 7-6 6-2v2l3-1 4 1 3-3h5v-2z" fill="#040612"/>
<path transform="translate(631,1419)" d="m0 0h2l2 3 1 7 1 95 2 26 2 17 5 25 5 14 1 3 4 2 6-1 2-4 5-16 4-24 3-38h2l-1 21-3 27-4 21-6 15-6 5-6-3-5-9-4-14-4-22-3-24-1-19-1-41-2-36-1-8-2-4-8 1-4 4-3 5-4 6-10 5-8-2-5-5-5-10-2-7v-5l2 1 4 13 4 6 3 2h6l6-4 6-7 3-5 15-15z" fill="#A37AC2"/>
<path transform="translate(278,173)" d="m0 0h16l5 1 4-1 3 3 6 3 5 3 1 1v5l-11 3-3-3-6-1-3 2-4 1-11 6-19 3-4-1-1-8h-2l2-5 7-5 4-4h3z" fill="#040612"/>
<path transform="translate(654,440)" d="m0 0h5l2 10 2 13 1 19 1 52 1 38v23l-2 54-1 4-1 9h-1v-23l1-18 1-50-1-35v-15l-1-28-2-28-1-6-3 1-1 11v34l-1 9-1 25-1 11v39l1 34 1 31 1 15 1 5v7l-2 3-2-26-2-54-1-39 2-58 2-46z" fill="#D5A2E1"/>
<path transform="translate(655,1417)" d="m0 0 4 4 4 18 3 24 2 25v40l-2 21-5 25-2 4-5-1-4-11-4-24-2-48 2-42 2-16 4-16zm0 8-3 3-3 13-1 9-1 38v23l1 24 3 20 3 9 2 2h3l5-21 1-9v-42l-2-35-4-27-3-7z" fill="#CB8EDD"/>
<path transform="translate(726,951)" d="m0 0 4 1 4 10 3 9v10h2l3 17 2 17 3 11 2 13 3 12 2 10 5 15 5 12v3h2l1 2 6 1 4-7v-6l2-4 2-2 1-7 3-11 1-4 3-11h1v9l-4 18-5 16-6 15-2 2h-5l-4-4-4-8-12-38-7-33-5-30-3-13v-4l-5-2-5 1-4 9-1 5h-3v-7h2l-1-6 4-10z" fill="#E9C8E9"/>
<path transform="translate(770,961)" d="m0 0h1l-1 12-1 9 1 5 1 7-4 6-2 2v7l1 3h2l1 6 1 14-1 7 1 4 6-1 1-7 3-18h1v8l-4 20-4 12-5 1-3-5-4-13-1-9-3-6-2-18-1-8 1-10 9-3 2-10z" fill="#A47BC3"/>
<path transform="translate(571,1323)" d="m0 0h1l2 44 4 31 4 20 3 16 4 9 1 3h8l4-2 13-17 3-5h2l2-5 9-11 3-4 5 1v45l-2 76h-1l-1-95-1-7-1-3-6 2-2 4-3 3h-2l-2 5-4 2-2 5-7 8-6 4h-6l-5-4-4-7-4-17-5-27-3-27-1-16z" fill="#CB8FDD"/>
<path transform="translate(716,1085)" d="m0 0 2 2-1 17-2 11v8l3 7 3 5v4h2l1 3-3 6-1 6 4-1 2-3 1 1 3-7 6-11h2l2-8 3-3v7l-3 6-4 10-10 20h-2l-1 2-5 1-4-2-6-11-1-8v-20l4-17 3-6 1-5z" fill="#D5A2E1"/>
<path transform="translate(1401,806)" d="m0 0h2l4 4 12 1 46-1h30l7 2 1 3-7 2-24 1-4 1-42 2-13-3-1 4-7-2-5-5v-7z" fill="#040612"/>
<path transform="translate(1359,646)" d="m0 0h5l1 3-4 6 2 5v9l4 2 1 4h-7l5 6-1 6 2 5v3l-2 1-3 7h-7v5l2 1-4 2 1 3 1-2 6-1-3 6-7 2-7-1-1-11 1-3 4-1-4-2 1-2 7-2-3-6 1-5 1-7 3-1-2-4-3-1 4-3h2v-2l-3-1 3-9 2-5v-5z" fill="#06111F"/>
<path transform="translate(652,1442)" d="m0 0 4 1 1 5 3 24-1 9v10l-1 12 1 23 1 9v8l-3 6h-4l-2-6-1-7v-74l1-17z" fill="#895CAD"/>
<path transform="translate(662,988)" d="m0 0h2l-1 20v12l7 31 1 11-4 2-7-13-1-1h-5l-4 2-1-1v-10l3-27 2-13 5-10 3-1z" fill="#FEFEFE"/>
<path transform="translate(647,201)" d="m0 0h8l4 1 5-1 9 2 12 7-1 5h-9l-8 1h-19l-12 4-10 2-7-1 2-5 3-3h2l2-4 4-3 7-3 5-1z" fill="#040612"/>
<path transform="translate(612,578)" d="m0 0 2 3-1 69 2 49 6 38 3 17h3l3-12 2-18 2-7 3-14 2-1v8l-3 20-2 12-3 21-2 4h2l-1 7-4 3-3-3-2-6 1-5-2-12-1-2 1-4h-2v-5l-1-3-2-17-3-24-1-18-1-5v-87l1-7z" fill="#E9C9E9"/>
<path transform="translate(579,536)" d="m0 0 3 2 3 12 3 24 2 36-1 21-1 6h-1l-2-62-3-27-1-6h-2l-1 4v38l1 43v105l-5 5-2-1v-2l-3-1-1-4h-2l-4-12v-6l2 3 4 10 6 2h1v-34l1-41v-40l-1-47v-19h2v-6z" fill="#D5A2E1"/>
<path transform="translate(656,340)" d="m0 0 5 1 3 7 4 18 3 22 1 17 2 49 1 25 4-1 2-16h1l-1 14-2 9-4 3-2-7-2-35-1-31v-25h-2l-1-14-5-25-3-6-4 2-3 7-3 15-1 11-1 27-3 41-1 3-2 34-1 10h-3l-2-5-3-18v-6h-2l-3-16-4-4-2 3h-2l-3 13h-1l1-9 4-10 4-3 4 4 6 25 2 12 2 2 1-3 2-35 2-24 2-41 3-24 4-12z" fill="#CF96DE"/>
<path transform="translate(610,1208)" d="m0 0h6l6 7 3 15 1 12 1 6-5-2-2-3-1 7-2-2-4-15-2-4h-5l-4 2-1 4-4 9-1 10-4 12-5 30-2 21-2 16h-1v-15l3-25 5-32 3-11 4-16 8-19 2-4z" fill="#D5A2E1"/>
<path transform="translate(785,1086)" d="m0 0 1 4-7 22-4 12-1 8-3 7-4 24-1 16-1 30-3 26-5 45h-1l1-36 2-20 1-18v-34l2-15 1-16 3-12 2-3h2l1-5 8-16z" fill="#9D6CC0"/>
<path transform="translate(738,560)" d="m0 0h1l1 84 1 31 1 9h2v-2h2v-9l2-11 5-6 3-5 4-1 3 3v7l-1-2-4 1-4 9-2 17-5 34-5 2-2-3-1-25-1-46z" fill="#CB8EDD"/>
<path transform="translate(724,969)" d="m0 0 5 1 4 2 2 9v5l-2-4-3-7-5-4-1 4-3 15-1 12 3 16 1 14v18l-2 17-2 9-2-1 3-20v-25l-4 1-6 17-5 1-1-2 3-23 8-33 3-14 3-6z" fill="#D5A2E1"/>
<path transform="translate(520 1e3)" d="m0 0h1l1 34 6 37 7 31 5 12 5 6 2-1 7-11 4-1 1-2 3 1 3 12v7l-2 3-9-1-5-3-1-2-2 2-2 10 2 16 5 20-1 6-2-3-3-13-5-18-3-19-4-16-6-26-4-26-3-20z" fill="#A37AC2"/>
<path transform="translate(1225,1302)" d="m0 0h2l1 62v183l-2 1-2-31v-84l1-1-1-25 1-2v-20l-1-11 1-24z" fill="#0A0D1E"/>
<path transform="translate(737,558)" d="m0 0h1l1 89 1 46 1 25 1 2 5-1 1-13 3-21 2-17 4-9 3-2 3 3 1 4v29l-1 9h-1l-1-33h-3l-4 24-3 21-4 15-3 5-4 1-2-8-1-45z" fill="#D4A1E0"/>
<path transform="translate(575,564)" d="m0 0h1l1 54v45l-1 34v29l-4 1-5-3-4-10v-3h-2l-1-7v-57h1l1 39 2 18 2 6h2v-23l5-13 1-6z" fill="#CB8EDD"/>
<path transform="translate(741,935)" d="m0 0h3l5 18 5 8 2 6 3 8h3l4-10 1 4-4 10h-4l-6-7-3-1v19l2 16 2 10 8 31 4 11 2 6 4-2 3-8 4-16h1l-1 11-4 15-4 6-4-2-5-12-8-28-6-29-4-25-4-22v-15z" fill="#D5A2E1"/>
<path transform="translate(656,1366)" d="m0 0 6 1 5 5 1 2v7l-3 12-1 11-1 2-5-1-1-3h-7l-2-5-1-7v-14z" fill="#FEFEFE"/>
<path transform="translate(1520,1611)" d="m0 0 3 1 2 5 3 14-1 9-1 7v6l-3 2-7 1-5-5-2-6-1-5 1-11 3-5 1-3 1-5h2v-3z" fill="#11172C"/>
<path transform="translate(1466,1702)" d="m0 0 6 1 1 2h-8l-1 5-9 2 1 5-9 3h-9l-9-1h-13l-8-2-6-3 3-4 2 3h2l1-3 5-2 20-2 4 1 4-1 7-1z" fill="#06121F"/>
<path transform="translate(705,475)" d="m0 0 3 1 4 18 2 8 2 15 3 10 2 10 6 2 3-9 3 1-3 4-3 14-3 21h-2l-1 5-3 2-2-7-2-23-1-19-2-13-3-25-3-11z" fill="#9D6CC0"/>
<path transform="translate(739,1302)" d="m0 0h1l1 9v68l-2 28-4 23-4 13-5 5-6 4-6-1-10-9-5-5-3-4v-2l-3-1-9-12-2-1v-2l-4-2v-2l-4 2 2 36 1 16v16h-1l-5-65v-10l1-3 4-1 10 12 8 11 3 4v2l3 1 7 8 9 9h5l5-5 4-8 5-20 3-26 1-29z" fill="#D5A2E1"/>
<path transform="translate(613,1200)" d="m0 0 6 3 13 26 4 11 3 11 3 10 3 9 1 8-2-3-4-8-4-6-10-5h-3l-4-4v-9l2-1 2 4 3 1-2-17-3-15-4-8v-2l-7-1 1-3z" fill="#EAABE8"/>
<path transform="translate(624,452)" d="m0 0h2l2 7v11h1v14l-5 4h-2l-2 16-5 28-3 1v-17l3-27 4-26 2-9z" fill="#F3EBF4"/>
<path transform="translate(658,1075)" d="m0 0 4 3 2 4 1 11-2 18-3 18h-4l-2-4-2-10-1-8v-16l2-9 2-6z" fill="#D5A2E1"/>
<path transform="translate(695,483)" d="m0 0h1l4 21 2 15 1 5 2 28 2 16 1 19v28h-3l-1-1-2-23-1-38-1-4-1-17-2-9-2-20-1-5-1-7h1z" fill="#F3ECF4"/>
<path transform="translate(607,502)" d="m0 0h1v8l-4 17-2 3-3 12-2 13-3 6-4-1-3-5-4-17-2-5-3 1-2 11-1 19-2 1v-20l2-13 3-8 2-1 3 2v4l4 11 3-1 3-4 2-4 3-7h2l1-7 3-10z" fill="#A37AC2"/>
<path transform="translate(573,569)" d="m0 0h1v41l-1 21-4 16-2 4-5 1v-5h-2l-1-17-4 2-2 7-2 29-1 62h-1v-67l2-26 3-12 4-2 3 4v2l4-2 5-10 2-29z" fill="#9D6CC0"/>
<path transform="translate(739,948)" d="m0 0 2 4 4 22 5 30 6 28 8 27 4 9 3 1 3-5 5-20 3-17 2-21 2-11 2-1 3 3 1 6v30l-1 9h-1v-35l-2-3-2 7-2 23-5 24-5 13-3 4-4-2-3-5-4-10-6-23-5-21-7-41-3-17z" fill="#E9CAEA"/>
<path transform="translate(1477,1398)" d="m0 0h30l10 1 2 2-7 2h-19l-35 2h-42l-6-2-4-3z" fill="#1E1F3A"/>
<path transform="translate(1425,1122)" d="m0 0 4 1 12 6 15 1 3-2 11-1h13l7 2 1 3 3 2-3 1h-51l-4-1-17-1-3-1 1-5 5-3h3z" fill="#040612"/>
<path transform="translate(688,1025)" d="m0 0 3 1v15l-4 43-3 9-4 2-3-5v-8l3-16 5-30 1-9z" fill="#FEFEFE"/>
<path transform="translate(733,538)" d="m0 0 2 2 1 8-4-4-2 16-1 15v167l-2 16-5 19h-2v-10l3-4 2-9 1-4 1-22v-13l-1-15v-111l1-24 2-19z" fill="#D5A2E1"/>
<path transform="translate(570,959)" d="m0 0h2v10l-4 21-4 19h-1l1-19h-6l-3-5-3-4-3-1-3-5-2-7v-5l4 8 4 1 5-2 1-3 5-1 5-5z" fill="#CB8EDD"/>
<path transform="translate(626,1036)" d="m0 0h2l3 25 2 9 2 3-1 14-4 6h-5l-8-11v-2h-2l-3-6-2-11v-10l-1-3 1-8h1l4 21 3 7 6 9 4 1v-4l-4 1-2-5 4-1 1-10v-12l-1-4z" fill="#E9CAEA"/>
<path transform="translate(1408,203)" d="m0 0h55l35 1 14 1 3 1-1 2h-86l-19-1h-28v-2l7-1z" fill="#252341"/>
<path transform="translate(731,911)" d="m0 0 4 1-7 7h-3l-2 4-5 8-4 4-4 8-2 11-2 25-3 29-1 10-5 1 1-14 3-28 3-36 1-6 1 2 5-1 3-6 3-4h2l1-4 4-7 5-3z" fill="#EAABE8"/>
<path transform="translate(567,914)" d="m0 0 4 1 3 9 1 8-5 4-3 6-14 7-3-1-2-9 1-6 3-1 7 2 6-18z" fill="#FEFEFE"/>
<path transform="translate(521 1e3)" d="m0 0h1v30h2l3 22 1 8 5 23 4 14 4 10 1 1h6l4-5 4-9 3-8 5-19 6-25 2-9h1v8l-7 33-4 16-4 9-6 9-7 6-6-4-5-13-1-8h-2l-5-25-5-30z" fill="#D5A2E1"/>
<path transform="translate(739,565)" d="m0 0h1l1 78 1 8 10-4 1-3 6-1 2 1 1 7-6 1-4 6-3 4-2 11v7l-1 2h-2v2h-2l-2-9-1-31z" fill="#A47BC3"/>
<path transform="translate(645,1062)" d="m0 0 2 1v10l-2 10-2 17-3 6 2 17v6l-3 2-7-6-3-8v-6l3-3h3l2-12v-13l5-13z" fill="#FEFEFE"/>
<path transform="translate(1662,330)" d="m0 0 3 3 4 12v19l-4 11-3 2-8-1v-9l2-7h2l2-5 1-3-4-7z" fill="#11172C"/>
<path transform="translate(598,1040)" d="m0 0h1l2 25 3 17 5 16 3 10 8 16-1 2-3-1-4-8-4-2-2-6h-2l-4-8-3-9v-34z" fill="#EAABE8"/>
<path transform="translate(956,1654)" d="m0 0h2l2 2 5 1-2 19-4 20-4 3-5-11 1-14 2-13z" fill="#13182F"/>
<path transform="translate(675,1411)" d="m0 0h3l4 4v2l4 2 8 11 3 3 4 5 5 5 8 7 6 1 7-4-2 5-5 3-7-1-3-1v-2l-3-1v-2l-3-1-6-7v-2h-2l-2-5h-2l-4-4v-2h-3v-2h-5l-2 8v48h-1l-4-64 1-5z" fill="#CB8EDD"/>
<path transform="translate(1525,542)" d="m0 0 2 1-6 9-8 3-13 1h-58l-25-1v-1l26-2h22l26-1 8-1 19-1 2-2h3z" fill="#292546"/>
<path transform="translate(543,1466)" d="m0 0 7 1 5 3 2 4v13l1 3-1 2-8 3-5-3-2-5-3-9 2-10z" fill="#11172C"/>
<path transform="translate(614,912)" d="m0 0h1l2 7 2 3 1 14 3 12 2 21 2 19v5h-3l-4-12-4-34-3-32z" fill="#F4EDF5"/>
<path transform="translate(550,1178)" d="m0 0 2 3 5 16 6 12v10l-1 4v15l-1 29v18h-1l-3-32-1-26v-19l-4-16-2-10z" fill="#9D6CC0"/>
<path transform="translate(655,1064)" d="m0 0h4l5 11 3 11v11l-2 9h-1v-15l-1-12-2-1-3-2h-3l-3 15v16l1 11 2 7 2 4h2l2-11h2l-1 9-3 11h-4l-3-8-3-22v-19l3-17z" fill="#EAABE8"/>
<path transform="translate(669,390)" d="m0 0h1l2 56 2 35 1 6 3-2 3-16 2-22 4-8 4-1 4 4 1 6h-2l-1-4h-2v-2l-4 4-2 7-2 26-3 13-4 6-3-1-2-11-1-19-1-44z" fill="#D5A2E1"/>
<path transform="translate(656,363)" d="m0 0 4 1 1 5 2 12v22l-4 5-4-2-2-11v-16l1-12z" fill="#FEFEFE"/>
<path transform="translate(749,1259)" d="m0 0h5v33l-3 9-3 4-3-5-1-5v-12l1-13 2-9z" fill="#D5A2E1"/>
<path transform="translate(525,983)" d="m0 0 5 1 3 5 2 6v19l1 5 4 22 2 6 1 2 6 1 2-5 2-3-1 7-4 10-4 2-3-3-4-12-5-31-3-22-4-4-3 13h-1v-8z" fill="#A379C2"/>
<path transform="translate(206,438)" d="m0 0 8 1 1 3v9l1-1 2-1-1 5-4 1v18l-1 6h2v13l-2 1-1-10h-1l-5 1-1-10 2-5-2-2 2-1 1-7 2-4-2-5 1-2-4-1 1-8z" fill="#06111F"/>
<path transform="translate(1426,801)" d="m0 0h91l3 4h-108l-8-2v-1z" fill="#171B33"/>
<path transform="translate(1516,456)" d="m0 0h8l3 4 1 3v8l-2 9h-2l-1 5-4 1-5-4-1-3v-9z" fill="#10162B"/>
<path transform="translate(544,968)" d="m0 0 2 3 3 9 4 1 3 4 2 4 6 1 1 7-2 12-3 9-3 11h-1v-7l3-12-1-5h-2v-2h-3l-4-13-2-7-3-11z" fill="#A47BC3"/>
<path transform="translate(678,897)" d="m0 0 2 3-1 13-4 28-4 19-2 3h-3v-10l2-10 4-24 4-20z" fill="#FDFDFD"/>
<path transform="translate(742,1620)" d="m0 0 3 3h2l1 15-4 11-2-2-1 2-2-1 1-2h-2l-1 6 3-1-2 5-4 5-1 5-4-2-1-3 1-5h4l-1-5 4-8-1-5 5-11z" fill="#081321"/>
<path transform="translate(611,464)" d="m0 0h1l-1 10-2 11-3 21-3 7-3 11h-2l-1 5-2 5-2 3h-2l-2 4-3-1-4-11-2-2h4l1 4 4 1v-2h2l1-4 4-8 1-5h2l1-6 4-16z" fill="#9D6CC0"/>
<path transform="translate(678,544)" d="m0 0h1v54l-1 79 1 27-2-2-1-13v-104l1-39z" fill="#D5A2E1"/>
<path transform="translate(979,1153)" d="m0 0 1 3-5 31h-4l-4-5-2-8v-11l2-4 10-3z" fill="#14192F"/>
<path transform="translate(813,1008)" d="m0 0 2 1 3 11-1 21v12l-2 1-1-2-3 5-1 3-1-1v-32l1-11z" fill="#06111F"/>
<path transform="translate(646,1452)" d="m0 0h1v66l1 26h2l3 15 3 6 3 1v-3h2l2-9 1 4-3 16-2 4-5-1-4-11-4-24-2-48z" fill="#D5A2E1"/>
<path transform="translate(726,951)" d="m0 0 4 1 4 10 3 9v10l-2-1-1-8-10-2-3 4-3 11h-3v-7h2l-1-6 4-10z" fill="#E9C9EA"/>
<path transform="translate(1806,300)" d="m0 0h1l3 15 1 2h8l2-5h2l-1 6-4 4-7 2-7-6-4-1v-2h-2l-1 3-7-7 1-4 3-1 4 1 1-3 3-1 1-2z" fill="#06121F"/>
<path transform="translate(570,953)" d="m0 0h3l1 2-1 19-6 30-3 11h-2l2-11 3-14 4-21 1-10-5 5-7 4h-2l-4 4-4 1-4-4-2-6v-6h1l3 10 3 1 3-1 2-6 2-2 8-1z" fill="#D5A2E1"/>
<path transform="translate(622,436)" d="m0 0h4v2h2l3 9 2 10 3-2 3-8h1l-1 13-2 6-3-1-1-6h-2l-4-15-4-3-3 4-4 12-5 28-2 17h-2l1-19 3-13v-9l2-8 5-12z" fill="#A37AC2"/>
<path transform="translate(558,1107)" d="m0 0 4 1 3 12v7l-2 3-9-1-5-3-1-2-2-1 4-7 4-6 4-1z" fill="#A47BC3"/>
<path transform="translate(730,1285)" d="m0 0 4 1 2 7 2 20v26l-1 6-3-3-1-19-2-18-1-14z" fill="#F4EDF5"/>
<path transform="translate(687,1441)" d="m0 0 8 1 7 8 2 1v2l5 2 2 3-5-1-8-5-8-1-6 2-2 4-1 14-1 29h-1v-50l2-6z" fill="#9D6CC0"/>
<path transform="translate(666,1194)" d="m0 0h3l-1 13-5 15-3 4-6-1-2-5-1-7 4-2 5-5 4-8z" fill="#D5A2E1"/>
<path transform="translate(712,1044)" d="m0 0 1 3-3 9-4 8-4 5-3 7-2 6-2 3h-3v-8l2-3 2-4 5-19 2-3h3 5z" fill="#EBABE8"/>
<path transform="translate(1226,1436)" d="m0 0h1v112h-1l-2-31v-79z" fill="#040612"/>
<path transform="translate(1825,993)" d="m0 0h5l3 3 4 8-1 5-1 3-16-3-2-1 1-7 1-3h2l1-3z" fill="#11172C"/>
<path transform="translate(766,928)" d="m0 0h2l1 5-2 17-3 7h-4l-5-9v-8l7-7z" fill="#FEFEFE"/>
<path transform="translate(937,331)" d="m0 0h3l3 12 1 7v14l1 3-2 15-4-1 1-5 1-12-4-2 1-5 2-4-5-6-1-11z" fill="#06121F"/>
<path transform="translate(615,1174)" d="m0 0 5 1 3 3 1 8-5 1-10-1h-2l-2 5-3 3h-4v-8h2l1-3 8-4 4-4z" fill="#FEFEFE"/>
<path transform="translate(634,1402)" d="m0 0 5 1v41h-1l-1-28-1-5-6 1-10 13-9 12-4 6h-2l-1 3h-2v2l-9 1-3-3h8l4-2 13-17 3-5h2l2-5 9-11z" fill="#D5A2E1"/>
<path transform="translate(623,440)" d="m0 0 5 4 6 25 2 12 2 2 1-3 2-34 2-1-2 40-1 10h-3l-2-5-3-18v-6h-2l-3-16-4-4-2 3h-2l-3 13h-1l1-9 4-10z" fill="#CB8EDD"/>
<path transform="translate(578,934)" d="m0 0h5l5 4 4 9v11h-4l-3-3-3-1-4-9-1-10z" fill="#FEFEFE"/>
<path transform="translate(579,536)" d="m0 0 3 2 3 12 3 24 2 36-1 21-1 6h-1l-2-62-3-27-1-6h-2l-2 15-2 1v-13h2v-6z" fill="#D5A2E1"/>
<path transform="translate(648,1108)" d="m0 0h2l3 22 2 8h4l3-16v-7h1l2-7h1l-1 13-3 16v3l-1 6-5 3-4-4-4-18z" fill="#E9CAEA"/>
<path transform="translate(676,1528)" d="m0 0h2l-1 21-3 27-4 21-6 15-6 5-6-3-5-9-3-12 2-1 5 14 1 3 4 2 6-1 2-4 5-16 4-24z" fill="#A47BC3"/>
<path transform="translate(681,1226)" d="m0 0h1v8l-3 7v4l2-1-1 9-4 9-2-2-3 9-3 15-3 17-2 8h-1l1-15 6-28 5-18 3-12z" fill="#EAACE8"/>
<path transform="translate(668,1210)" d="m0 0 1 2-4 17-3 10-2 2-5-1-7-17v-5l5 4 1 2 6 1 4-8z" fill="#EBABE8"/>
<path transform="translate(212,313)" d="m0 0 1 3v7l3 1v21l-3 8-1 2-5-1 1-11 1-16 2-13z" fill="#11172C"/>
<path transform="translate(585,969)" d="m0 0 3 2 4 13 4 27 2 27v30l-2-3-1-23-2-38-5-25-1-4-2-1-4 25-2 8h-1l1-11 4-24z" fill="#D5A2E1"/>
<path transform="translate(755,1273)" d="m0 0h1v16l-3 15-5 13-3 6-1 9-1 35-2 30-2 20-2 3 1-13 2-28 1-21 1-39 3-7 4-5 3-10 2-12z" fill="#A073C1"/>
<path transform="translate(717,1030)" d="m0 0h4l1 2v23l-3 21-1 11-2-2v-8l2-11h-1v-6h1l1-14-1-2-6 11-1-4 1-10z" fill="#E9CAEA"/>
<path transform="translate(557,630)" d="m0 0h2l1 3v54h-1l-1-49h-3l-2 17-2 75h-1v-62l2-29 3-8z" fill="#D099DF"/>
<path transform="translate(739,1302)" d="m0 0h1l1 9v68l-2 28-4 23-4 13-3 4h-2l1-5 3-6 5-20 3-26 1-29z" fill="#D19BDF"/>
<path transform="translate(1359,1320)" d="m0 0 4 1 1 4 1 3-1 3 1 6-2 2-2 5h-6l-3-5 1-9 1-4v-3z" fill="#06121F"/>
<path transform="translate(638,702)" d="m0 0h1v8l-3 20-2 12-2 14-3 3-2 5-4-2-1-9 5 1 3-12 2-18 2-7 3-14z" fill="#E9CAEA"/>
<path transform="translate(683,1734)" d="m0 0v3l-5 3-11 6h-4v2l-6-1-7-2-1-8 4 1 5-2 2 1 14 1v-2l3-1v3z" fill="#040612"/>
<path transform="translate(485,1035)" d="m0 0 2 2 3 20v28l-3 6h-1l-1-5z" fill="#040612"/>
<path transform="translate(686,1145)" d="m0 0 4 2 5 12v11l-3 3h-5l-2-8-1-15z" fill="#FEFEFE"/>
<path transform="translate(1384,214)" d="m0 0h40l1 2-10 1-17 2-3 1-1 2h-16l-1-3 4-4z" fill="#040612"/>
<path transform="translate(205,1298)" d="m0 0 6 5 9 16v2l-4-2-4-6-5-3-5 1-2 1-2 4-6 2 2-6 5-9z" fill="#1D1E38"/>
<path transform="translate(718,301)" d="m0 0 7 3v10l4 9v3l-5 3h-6l-1-5v-13z" fill="#11172C"/>
<path transform="translate(655,1417)" d="m0 0 4 4 4 18 3 24 2 25v40l-1 14h-1v-38l-2-33-2-21-3-21-3-7-1-1-4 5 1-6z" fill="#D5A2E1"/>
<path transform="translate(604,596)" d="m0 0h1v79l1 9 1 22-2 7h-1l-2-51v-36l1-29z" fill="#E9CAEA"/>
<path transform="translate(339,886)" d="m0 0 2 2 4-1 2 1-2 6 3 12 3 4-1 3h-5l-2-3-2-7h-6l-1-10 4-4z" fill="#11172C"/>
<path transform="translate(607,273)" d="m0 0h1v9l2 8-1 7-2 5-2 2-4-1-4-7 2-2v-3l3-6 1-6 2-1z" fill="#11172C"/>
<path transform="translate(376,974)" d="m0 0 2 4 3 3 2 3v9l2 1 6 7 1 5h-2l-1 4-5-8-3-3-1-4h-3l-2-7-2-2 1-6z" fill="#11172C"/>
<path transform="translate(969,1405)" d="m0 0h1v105h-1l-2-36v-22l1-33v-9z" fill="#040612"/>
<path transform="translate(1216,1675)" d="m0 0 1 4-7 34-3 10h-3v-2h2l-1-4v-9l2-9 2-7v-6l3-5h2l1-4z" fill="#1A1D36"/>
<path transform="translate(746,904)" d="m0 0 4 2 2 13v7l-2 2h-3l-5-6-2-6 2-9z" fill="#FEFEFE"/>
<path transform="translate(694,785)" d="m0 0h2l1 21-3 10h-1l-1 5h-2l-1 14h-1v-25l5-22z" fill="#FDFDFD"/>
<path transform="translate(623,1047)" d="m0 0h2l2 11v13l-4 2-5-8-1-10 1-6z" fill="#D5A2E1"/>
<path transform="translate(787,984)" d="m0 0 3 3 2 7 1 7v37l-1 12h-1v-47l-1-8h-3l-2 11-3 27-1 5h-1l1-21 3-24z" fill="#D099DF"/>
<path transform="translate(669,388)" d="m0 0h2l1 17 2 49 1 25 4-1 2-16h1l-1 14-2 9-4 3-2-7-2-35z" fill="#CB8EDD"/>
<path transform="translate(692,741)" d="m0 0h1l-1 17-3 26-2 4-4-29-1-6 3 3v2l2-1 2-9z" fill="#EBABE8"/>
<path transform="translate(571,1323)" d="m0 0h1l2 44 4 31 4 20 3 16 2 5-1 3-4-8-7-37-3-27-1-16z" fill="#CE95DE"/>
<path transform="translate(642,1479)" d="m0 0h1l1 52v7l-2 4-2-17-1-28 1-17z" fill="#F4EDF5"/>
<path transform="translate(786,982)" d="m0 0h3v2h2l3 16v42l-3 29-2 10-2 5-1-3 4-22 2-23v-37l-2-12-2-4-3 8-2 15h-1v-10l2-10z" fill="#A379C2"/>
<path transform="translate(695,533)" d="m0 0 2 1 2 20 2 44 1 15-2 1-1-6-2-35-1-9-1-12z" fill="#D5A2E1"/>
<path transform="translate(525,983)" d="m0 0 5 1 3 5 2 6v19l1 5v7h-1l-1-11h-2l-3-22-4-4-3 13h-1v-8z" fill="#9D6CC0"/>
<path transform="translate(557,623)" d="m0 0 3 3v2l1 4v15h-1l-1-17-4 2-2 7-2 29-1 62h-1v-67l2-26 3-12z" fill="#A37AC2"/>
<path transform="translate(683,445)" d="m0 0 1 2-4 27-1 4-4 1-1-2-1-29h2l2 10 2 3 2-8 1-7z" fill="#A47BC3"/>
<path transform="translate(603,379)" d="m0 0 3 3-2 13-2 3h-2l-1 3-4-4-3 1-1-3 4-8 3 1 2-4z" fill="#10162B"/>
<path transform="translate(302,1747)" d="m0 0h6l-4 4-8 4-4 1h-14l-10-3 1-2 11-1 9 2 9-4z" fill="#1D1E39"/>
<path transform="translate(1694,1631)" d="m0 0h2l1 12-4 5h-2l-3 10h-3l-1-4h2v-3h-3l2-8 4-2z" fill="#11172C"/>
<path transform="translate(749,1265)" d="m0 0 3 1 1 2v11l-2 15-3 2-2-6v-9l2-14z" fill="#E9CAEA"/>
<path transform="translate(238,818)" d="m0 0 3 1v7h-2l1 8-3 6-1 3-5 1 1-7-3-4 4-8v-2l4-1z" fill="#06121F"/>
<path transform="translate(702,769)" d="m0 0h1v13l-1 12-1 2h-2l-1 20-1 11-2 3 1-35h1l4-25z" fill="#E9C8E9"/>
<path transform="translate(749,1558)" d="m0 0 6 3v6l-2 6v5l-5 1-3-7v-8z" fill="#06121F"/>
<path transform="translate(925,293)" d="m0 0 6 3 1 3 3 1-1 3-10-2-4 8h2v5l-3 1-2 1-3-9 7-7z" fill="#06121F"/>
<path transform="translate(1185,214)" d="m0 0h2v2l4 1 4 7 1 5-3 2-9-4v-2h-2l1-9z" fill="#040612"/>
<path transform="translate(924,319)" d="m0 0 6 1 1 1v8l-5 1-6 4-4-1-2-2v-3l3-2h7l-1-1v-5z" fill="#06121F"/>
<path transform="translate(789,1042)" d="m0 0h1v9l-4 18-5 16-1 2h-2l-1-6 2-4 2-2 1-7 3-11 1-4z" fill="#E9CAEA"/>
<path transform="translate(726,957)" d="m0 0h2v2l3 1 2 7v5l-5-2-5 1-4 9h-1l1-8 5-13z" fill="#EBABE8"/>
<path transform="translate(1738,171)" d="m0 0h10l9 3-4 2-8-1h-10l-5 3-5 2-4 4-5 2-2 1 2-4 9-7 9-4z" fill="#1B1D37"/>
<path transform="translate(643,1183)" d="m0 0 3 4 4 12v8l-5-2-3-6-1-5v-9z" fill="#D5A2E1"/>
<path transform="translate(646,1452)" d="m0 0h1v66l1 26h2v6h-2l-2-8-2-48z" fill="#D5A2E1"/>
<path transform="translate(1653,1313)" d="m0 0 5 1 6 7v2l-3 1-4-2-8 1-3 4-3-1 5-8z" fill="#1D1E39"/>
<path transform="translate(699,696)" d="m0 0h1l-1 18-3 19v7l-4 1v-8l3-17 2-16z" fill="#E9C5E9"/>
<path transform="translate(1543,1656)" d="m0 0 2 4-2 14-3 14-2-1-1-7v-7l3-13z" fill="#181B33"/>
<path transform="translate(727,1229)" d="m0 0h2l4 17 4 30 2 16v10h-1l-6-44-4-20z" fill="#D5A2E1"/>
<path transform="translate(632,459)" d="m0 0 2 3v3l3-1 2-4h1v20l-2 4-3-3-3-17z" fill="#A47BC3"/>
<path transform="translate(1649,1447)" d="m0 0h2l1 8-4 3v2l8 1 1 3-2 2-5-1-1 3-3-7v-2h-2l-1-5 4-6z" fill="#06121F"/>
<path transform="translate(1404,504)" d="m0 0h7l3 5 2 5-1 5-4-4-2 2-1-3-5-1 2-3-5 2 2-5 2-2z" fill="#10162B"/>
<path transform="translate(204,484)" d="m0 0 2 4 1 3v7l-4 15-2 1-1-8 1-10-1-3 3-5z" fill="#06121F"/>
<path transform="translate(732,544)" d="m0 0 3 1 1 3v8l-3 7h-1l-1 11-2 1v-15l2-14z" fill="#EACFEB"/>
<path transform="translate(317,1383)" d="m0 0h3l-2 17-4 8-4 2h-3l6-14z" fill="#191C34"/>
<path transform="translate(715,1085)" d="m0 0h1v14l-2 8-3 6-3 14h-2v2h-2l4-17 6-21z" fill="#EAABE8"/>
<path transform="translate(1387,1165)" d="m0 0 1 3-1 4 1 8 1 14v2h-2l-1 2-3-9-1-9 4-14z" fill="#11172C"/>
<path transform="translate(1819,967)" d="m0 0 5 1h3 1v6l-3 1-4-1-1 4-6-1-1-5 4-4z" fill="#11172C"/>
<path transform="translate(689,449)" d="m0 0h2l2 3-1 7 1 2v9l-3 2-2-2-2-12 1-2 1-6z" fill="#F3EBF4"/>
<path transform="translate(637,1517)" d="m0 0h1l2 26 2 19 3 12-1 8h-1l-3-15-3-26z" fill="#D098DF"/>
<path transform="translate(585,1680)" d="m0 0 1 2h3l2 6 4 1 3 7-1 4-3 2-8-16-2-5z" fill="#151A31"/>
<path transform="translate(928,214)" d="m0 0h6l7 8-1 4-6-2h-5l-2-5z" fill="#040613"/>
<path transform="translate(1639,1586)" d="m0 0h2l2 10 2 5 2 11v9l-2-2-2-3-1-11-3-4-1-11z" fill="#11172C"/>
<path transform="translate(535,1112)" d="m0 0 2 3 3 8 5 30 2 7-1 4-6-20-3-19-2-9z" fill="#9D6CC0"/>
<path transform="translate(603,984)" d="m0 0h1l4 28 2 20v9l-2 1-1-15-2-20-1-4-2-11z" fill="#E9CAEA"/>
<path transform="translate(579,536)" d="m0 0 3 2 3 12 2 16-2 1-3-19-1-6h-2l-2 15-2 1v-13h2v-6z" fill="#D39FE0"/>
<path transform="translate(733,972)" d="m0 0 2 3 1 5 3 1 3 17v9l-2 3-7-34z" fill="#E9BFE9"/>
<path transform="translate(1385,1362)" d="m0 0 2 1 1 9 1 4 1 2 3 21-3-1-3-19-4-7 1-8z" fill="#06121F"/>
<path transform="translate(562,1009)" d="m0 0 1 3-1 9-3 12-7 22h-1l1-9 4-17 5-18z" fill="#D098DF"/>
<path transform="translate(749,1259)" d="m0 0h5v33l-1 5h-1l-1-8 1-10v-11l-3-3v2h-2v-6z" fill="#D5A2E1"/>
<path transform="translate(774,903)" d="m0 0h1v28l-3 22-2 7-2 5-1-4 4-19 2-17z" fill="#D099DF"/>
<path transform="translate(674,435)" d="m0 0 2 4 1 9 4 1 1-3-1 13-3 3-3-8-1-6z" fill="#9D6CC0"/>
<path transform="translate(538,906)" d="m0 0h1l3 41 2 14v7h-2l-2-16-2-26-1-17z" fill="#A074C1"/>
<path transform="translate(731,911)" d="m0 0 4 1-7 7h-3l-2 4-5 8-4 4h-2l2-5 3-4h2l1-4 4-7 5-3z" fill="#EAACE8"/>
<path transform="translate(623,440)" d="m0 0 5 4 4 15-1 7h-1l-3-16-4-4-2 3h-2l-3 13h-1l1-9 4-10z" fill="#CF97DE"/>
<path transform="translate(555,657)" d="m0 0 2 4 1 14v18h-1l-1-15-1 3-1 14h-1v-18l1-15z" fill="#F4EDF5"/>
<path transform="translate(583,798)" d="m0 0h2l3 9 4 19v6h-1l-2-9h-3l-2-8 1-5-2-10z" fill="#D5A2E1"/>
<path transform="translate(731,931)" d="m0 0h4l1 8-1 7-3 1-3-5-1-6z" fill="#FEFEFE"/>
<path transform="translate(576,1391)" d="m0 0h1l5 27 3 16 2 5-1 3-4-8-6-32z" fill="#D099DF"/>
<path transform="translate(561,1285)" d="m0 0 2 4 3 14 3 8v4l2 1v34h-1l-1-29-4-13-4-16z" fill="#9E6EC0"/>
<path transform="translate(919,1742)" d="m0 0 4 1 4 3h10l2 2-5 4-4 1-6-4-5-6z" fill="#1C1E38"/>
<path transform="translate(689,438)" d="m0 0 5 2 2 4v4h-2l-1-4h-2v-2l-4 4-2 7-1 8-2 1v-8l2-10 3-5z" fill="#CF96DE"/>
<path transform="translate(655,1420)" d="m0 0 3 3 2 6v6l-2-3-3-6h-2l-3 15-1 9h-2v-9l3-15h2l2-5z" fill="#CD92DD"/>
<path transform="translate(787,990)" d="m0 0 3 1 2 3 1 7v37l-1 12h-1v-47l-1-8h-4z" fill="#D19ADF"/>
<path transform="translate(731,529)" d="m0 0h4l3 9 2 17v10h-1l-3-23-2-6-2-1-1 3h-2l1-5 2-2z" fill="#A277C2"/>
<path transform="translate(734,757)" d="m0 0 4 2 1 4-6 13h-2v-11z" fill="#FEFEFE"/>
<path transform="translate(520,518)" d="m0 0 2 1 2 6-1 8-3 1-1 4-1-4v-8h-2l1-4 1-1v-2z" fill="#13182F"/>
<path transform="translate(619,1724)" d="m0 0 4 2 6 4 4 4-1 3-7-1v-2h-4l-1-7z" fill="#040612"/>
<path transform="translate(501,1302)" d="m0 0 2 4 4 4 2 5-3 6h-4l-1-9z" fill="#090A19"/>
<path transform="translate(793,1032)" d="m0 0h1v10l-3 29-2 10-2 5-1-3 4-22 2-23z" fill="#A073C1"/>
<path transform="translate(521 1e3)" d="m0 0h1v30h2l3 22-2-1v-5h-2l-2-12z" fill="#DAADE3"/>
<path transform="translate(546,895)" d="m0 0 2 1 3 9 3 10h2l3-7 1 4-3 7h-4l-5-16v-3l-5 2-2 2 1-6 1-2z" fill="#D5A2E1"/>
<path transform="translate(603,675)" d="m0 0h2l1 9 1 22-2 7h-1l-1-20z" fill="#E9C6E9"/>
<path transform="translate(637,1202)" d="m0 0h2l4 14 3 8-1 3-5-7-3-1z" fill="#F4EDF5"/>
<path transform="translate(524,1048)" d="m0 0h1l7 33 1 7-2 3-5-25-2-11z" fill="#CF96DE"/>
<path transform="translate(526,1025)" d="m0 0 3 4 2 12 1 7v2l-4-1-2-13-1-9z" fill="#FEFEFE"/>
<path transform="translate(755,1273)" d="m0 0h1v16l-3 15-3 8-4 4-1 3h-2l1-5 6-9 4-20z" fill="#A276C2"/>
<path transform="translate(234,800)" d="m0 0 4 2 3 5 2 9-4-1v-2l-5 1-1-4 1-1z" fill="#06121F"/>
<path transform="translate(650,1551)" d="m0 0 2 4 3 9 4 2 1-3 1 2-1 7-3 2-3-1-2-7-2-9z" fill="#CB8EDD"/>
<path transform="translate(192,1586)" d="m0 0 1 4 5 12 1 9-2 2-2-5h-2v-8l-1-4-3-3h2z" fill="#10162B"/>
<path transform="translate(562,1182)" d="m0 0h2v2l4 2 16 9 6 3 1 2-8-1-6-5-5-3-6-2z" fill="#F4EDF5"/>
<path transform="translate(972,1167)" d="m0 0 4 1 1 5-2 8-2-1-2-3-2-1v-7z" fill="#0B1327"/>
<path transform="translate(1170,798)" d="m0 0h2v11l-3 2-2 3-3 2-1-3 2-10 4-2z" fill="#06111F"/>
<path transform="translate(527,1078)" d="m0 0h2l7 29-1 5-2-3-6-26z" fill="#A073C1"/>
<path transform="translate(525,983)" d="m0 0 4 4 2 5 2 12v11h-1l-3-22-4-4-3 13h-1v-8z" fill="#A47BC3"/>
<path transform="translate(650,1547)" d="m0 0 2 3 2 9 4-1 3-9 2-2-2 11-2 8-4-1-3-6-2-8z" fill="#A47BC3"/>
<path transform="translate(525,989)" d="m0 0 4 2 2 9v12h-1l-3-16-3 3-2 3 1-9z" fill="#D098DF"/>
<path transform="translate(298,901)" d="m0 0 1 2h2v4l-6 1-2-1-2 5-2 2v-9l2-3h3z" fill="#06121F"/>
<path transform="translate(327,491)" d="m0 0 3 2 1 7-2 10-1 3-3-13 1-7z" fill="#11172C"/>
<path transform="translate(1526,1011)" d="m0 0h4l2 6-3 9-2 1-2-3v-9h3v-3z" fill="#06121F"/>
<path transform="translate(639,447)" d="m0 0h1l-1 13-2 6-3-1-2-6 1-4v2l3-2z" fill="#9D6CC0"/>
<path transform="translate(584,447)" d="m0 0 3 1-1 6-4 7h-3l-3-1v-2h2l2-5 2-3h2z" fill="#06111F"/>
<path transform="translate(677,929)" d="m0 0h1l-1 10-4 21h-2l1-11 4-19z" fill="#F4EDF5"/>
<path transform="translate(1176,1744)" d="m0 0 5 2 7 1 4-1 3 1-5 5-4 1-6-4z" fill="#1C1E38"/>
<path transform="translate(1355,723)" d="m0 0 3 1v3h-2l-1 10h-3l-3-9z" fill="#06121F"/>
<path transform="translate(612,470)" d="m0 0 1 2-4 30h-2l1-19 3-12z" fill="#A47BC3"/>
<path transform="translate(574,1283)" d="m0 0h1l-1 12-2 28h-1l-1-7 2-28z" fill="#D4A1E0"/>
<path transform="translate(1354,276)" d="m0 0 3 1-2 16h-2v3h-2l-1-3z" fill="#11172C"/>
<path transform="translate(629,750)" d="m0 0h1l-1 9-2 5-4-2-1-9 5 1z" fill="#EAABE8"/>
<path transform="translate(665,1536)" d="m0 0h1v13l-1 5h-2l-2 9h-1l1-9 3-17z" fill="#CD93DE"/>
<path transform="translate(539,1080)" d="m0 0 3 1 4 5v5l-3 1-3-3-2-5z" fill="#FEFEFE"/>
<path transform="translate(655,1425)" d="m0 0 3 4 2 10v5l-2-4-3-9-3 5-2 4 1-9 2-5z" fill="#A47BC3"/>
<path transform="translate(648,1108)" d="m0 0h2l2 15v7h-3l-1-9z" fill="#EACEEB"/>
<path transform="translate(662,269)" d="m0 0 4 2-1 7-6 1-1-4 2-4h2z" fill="#11172C"/>
<path transform="translate(355,881)" d="m0 0 3 2 7 15v5l-3-4-5-8-2-6z" fill="#11172C"/>
<path transform="translate(645,1518)" d="m0 0h2l1 26h2v6h-2l-2-8z" fill="#D39FE0"/>
<path transform="translate(742,1129)" d="m0 0 1 4-7 16-4 6-1-2 7-14 3-9z" fill="#EAB0E8"/>
<path transform="translate(627,475)" d="m0 0h1v7l-4 4-6 1 1-9 4 3 3-2z" fill="#E9CAEA"/>
<path transform="translate(652,191)" d="m0 0 15 1-4 2h-18l-1 2v-2l-3-1z" fill="#2E2A4A"/>
<path transform="translate(671,919)" d="m0 0h1l-1 10-2 14h-2v-8l3-15z" fill="#F4EDF5"/>
<path transform="translate(732,535)" d="m0 0 3 1 2 6 1 7v9l-2-2-2-16-1-1-3 5-1-3z" fill="#CC91DD"/>
<path transform="translate(790,1042)" d="m0 0h1v19l-2 3v3h-2l-1 2 1-7z" fill="#D39FE0"/>
<path transform="translate(756,909)" d="m0 0 2 1 2 3h2l3-3-1 7-2 3-4-1-2-7z" fill="#D5A2E1"/>
<path transform="translate(633,1441)" d="m0 0 2 4v30h-1l-2-26z" fill="#9D6CC0"/>
<path transform="translate(774,420)" d="m0 0 2 1 1 5-1 8v6l-3-2-1-11z" fill="#11172C"/>
<path transform="translate(648,1598)" d="m0 0 3 4 5 6 5 1 2-4 2-2-1 4-5 5-4-1-5-5-2-5z" fill="#CB8EDD"/>
<path transform="translate(555,677)" d="m0 0 2 1v17l-3 1v-17z" fill="#E9CAEA"/>
<path transform="translate(366,591)" d="m0 0 2 1-6 7-6-1-3-4h7z" fill="#2F2A4B"/>
<path transform="translate(1802,319)" d="m0 0 4 2 2 5-1 4-2-2-6-2v-2h3l-2-4z" fill="#06121F"/>
<path transform="translate(1532,1650)" d="m0 0h5l2 6-2 7-2-2-2-7z" fill="#11172C"/>
<path transform="translate(727,1162)" d="m0 0 2 1-3 5-6 4h-5v-3l6-2 5-2z" fill="#EAADE8"/>
<path transform="translate(1804,891)" d="m0 0 5 5v4h2l1 6-5-2z" fill="#11172C"/>
<path transform="translate(1362,715)" d="m0 0h6l2 3-3 4-6-2-1-2z" fill="#06121F"/>
<path transform="translate(1360,928)" d="m0 0 4 1-1 4-3 2-1 4-3-1 2-5-2-1z" fill="#06121F"/>
<path transform="translate(719,1062)" d="m0 0h1l-1 18-1 7-2-2v-8z" fill="#EBABE8"/>
<path transform="translate(649,1353)" d="m0 0h2l-1 5-6 1-6-3v-1l10-1z" fill="#EBABE8"/>
<path transform="translate(650,354)" d="m0 0h1l-1 9-2 17h-1v-16l1-7z" fill="#D099DF"/>
<path transform="translate(1633,1370)" d="m0 0 2 2-3 12-2 2v-9l2-6z" fill="#0B0C1C"/>
<path transform="translate(741,1137)" d="m0 0h1l-1 11-2 5h-1l-1-8z" fill="#EBD2EC"/>
<path transform="translate(774,941)" d="m0 0h1v8l-2 10-2 2v-8z" fill="#9F71C1"/>
<path transform="translate(587,1413)" d="m0 0 3 3-2 4-1 7-2-1-1-12z" fill="#F4EDF5"/>
<path transform="translate(575,1355)" d="m0 0 4 5v10l-2-2-2-5z" fill="#F4EDF5"/>
<path transform="translate(546,1159)" d="m0 0h2l3 13-1 6-2-3z" fill="#A175C1"/>
<path transform="translate(787,984)" d="m0 0 3 3 1 6-4-2-2 8h-1l1-10z" fill="#CB8EDD"/>
<path transform="translate(643,525)" d="m0 0h2l1 2v8l-2-1-1 4-2-3z" fill="#E9CAEA"/>
<path transform="translate(1645,1425)" d="m0 0h2l1 10-5-3-1-3z" fill="#06121F"/>
<path transform="translate(799,1378)" d="m0 0 2 3v4h-2v4l2 2h-2l-1 3-1-1v-10z" fill="#06121F"/>
<path transform="translate(1725,176)" d="m0 0 2 1-6 7-5 2-2 1 2-4z" fill="#2E2A4A"/>
<path transform="translate(641,1562)" d="m0 0 2 4 2 8-1 8h-1l-2-12z" fill="#D19ADF"/>
<path transform="translate(757,905)" d="m0 0 1 2h4v2h2l-1 5-5-1z" fill="#CB8EDD"/>
<path transform="translate(1760,494)" d="m0 0h3v2h2l1 4h-6l-2-2v-3z" fill="#040612"/>
<path transform="translate(529,1073)" d="m0 0 2 3 2 12-2 3-2-8z" fill="#D099DF"/>
<path transform="translate(715,985)" d="m0 0h2l-1 9h-3v-8zm-4 5 2 4-2 3z" fill="#E9CDEA"/>
<path transform="translate(623,440)" d="m0 0 3 3-4 1-5 14-2 4 1-9 4-10z" fill="#CB8EDD"/>
<path transform="translate(753,1279)" d="m0 0h1v13l-1 5h-1l-1-8 1-9z" fill="#D19ADF"/>
<path transform="translate(740,932)" d="m0 0 3 1h-2l-1 15-2-1-1-9 2-2z" fill="#E9BEE9"/>
<path transform="translate(1182,1727)" d="m0 0 5 1-2 2 1 6-4-1-2-7z" fill="#040612"/>
<path transform="translate(580,561)" d="m0 0 3 4v6l-1-2h-2v7h-1v-11z" fill="#F4EDF5"/>
<path transform="translate(301,160)" d="m0 0 8 2 6 3-1 2-6-2-7-3z" fill="#262542"/>
<path transform="translate(730,1436)" d="m0 0h2l-1 7-3 4h-2l1-5z" fill="#CF96DE"/>
<path transform="translate(634,1361)" d="m0 0 6 1-4 2-9 5 2-4z" fill="#F4EDF5"/>
<path transform="translate(692,1197)" d="m0 0h5v2l3 2-1 2-1-1-7-1-1 2 1-5z" fill="#EBABE8"/>
<path transform="translate(1358,687)" d="m0 0h1v5l3-1 1 5h-2v2h-2v-2h-2z" fill="#061021"/>
<path transform="translate(1734,172)" d="m0 0 2 1-3 4-6 2-1-2 3-3z" fill="#21203D"/>
<path transform="translate(1164,1716)" d="m0 0 5 2 1 3-2 6-2-3z" fill="#262442"/>
<path transform="translate(754,1112)" d="m0 0 3 3-1 5-2-1v-2l-4-2z" fill="#F4EDF5"/>
<path transform="translate(710,998)" d="m0 0h1l-1 7-3 3h-2v-6l5-1z" fill="#F4EDF5"/>
<path transform="translate(624,452)" d="m0 0h2l1 7-5-2-1 2v-5z" fill="#F4EDF5"/>
<path transform="translate(622,443)" d="m0 0h5l1 1v6l-5-4-3 3 1-5z" fill="#D39EE0"/>
<path transform="translate(632,1365)" d="m0 0m-1 1v3l-7 6-1-2 2-4z" fill="#EACFEB"/>
<path transform="translate(786,1069)" d="m0 0h2l-3 11h-2l1-8z" fill="#D5A2E1"/>
<path transform="translate(1365,734)" d="m0 0h4l-1 4h-4l-1 3-1-5z" fill="#06121F"/>
<path transform="translate(749,1581)" d="m0 0 2 3-1 6h-3l-1-3z" fill="#06121F"/>
<path transform="translate(1521,1037)" d="m0 0 2 3 1 11-1 2h-2z" fill="#06121F"/>
<path transform="translate(731,911)" d="m0 0v3l-7 5-3 3 1-4 5-5z" fill="#E9CAEA"/>
<path transform="translate(557,630)" d="m0 0h2l1 3v8h-1l-1-6-3-1-1 2 1-5z" fill="#CB8EDD"/>
<path transform="translate(1445,935)" d="m0 0h2l1 4-1 3h-5z" fill="#06111F"/>
<path transform="translate(555,634)" d="m0 0 4 1 1 8-2-1v-4l-5 1v-3h2z" fill="#D39EE0"/>
</svg>
