<?xml version="1.0" encoding="UTF-8"?>
<svg version="1.1" viewBox="0 0 2000 2000" width="500" height="500" xmlns="http://www.w3.org/2000/svg">
<path transform="translate(984,588)" d="m0 0h15l21 3 16 5 12 5 16 8 11 7 14 11 16 16 9 12 9 16 7 15 5 18 2 21v25l-3 20-4 15-8 20-8 15-12 16-11 12-14 11-15 9-16 8-18 6-18 4-7 1h-32l-14-2-17-5-16-7-15-8-14-10-15-14-11-12-10-14-8-16-8-24-2-9-2-20v-18l2-19 8-27 9-19 8-12 8-10 12-12 10-9 13-9 14-8 12-5 26-7z" fill="#FCFCFC"/>
<path transform="translate(1182,1184)" d="m0 0 4 2 8 14 9 17 10 25 7 25 4 27 1 13v18l-3 26-4 15-6 16-10 19-12 16-10 13-16 17-5 5h-2v2l-8 7-11 10-12 9-19 14-11 7-15 10-30 18-18 11-21 13-14 9-19 14-16 12-14 12-22 22-7 8-11 15-9 15-7 14-6 16-6 28-1 7v30l2 16 7 26 9 20v3l-4-2-9-10-12-16-10-18-8-20-6-20-4-22-2-21v-10l3-26 4-18 8-24 8-17 10-16 14-18 7-8 11-11 8-7 11-11 14-11 19-14 20-13 22-14 30-20 14-10 20-14 18-14 15-13 12-11 13-14 18-22 13-19 11-21 8-20 7-25 3-23v-29l-1-21z" fill="#FCFCFC"/>
<path transform="translate(1192,1073)" d="m0 0h2v7l-4 17-10 26-8 16-10 18-14 21-9 10-10 13-12 13-10 10-8 7-10 9-11 9-12 10-11 8-13 10-17 12-18 12-20 14-17 12-18 13-14 10-13 10-16 13-13 11-8 7-18 18-9 11-12 15-14 20-9 15-12 27-10 30-3 19-1 17v29l4 26 5 25-1 9-5 1-5-5-7-10-13-22-10-23-5-18-6-36-1-10v-21l5-29 5-19 8-23 7-16 12-22 10-15 11-14 11-12 2-3h2l2-4 16-16h2l2-4 8-7 9-8 32-24 45-30 38-22 23-13 16-10 14-8 24-15 25-16 17-12 18-14 13-11 11-9 13-13 7-8 11-13 12-17z" fill="#FCFCFC"/>
<path transform="translate(1220,1399)" d="m0 0 7 6 2 5 1 9v10l-4 24-5 25-7 17-13 26-10 15-11 14-11 13-22 22-11 9-16 13-14 11-13 10-22 18-13 11-11 9-17 17-7 8-10 12-10 14-8 13-11 21-9 25-6 29-1 7v12l4 23 6 21 4 10 9 15 10 13 7 9 11 12 9 9h-3l-11-10-8-7-15-14-9-11-11-15-9-15-8-16-8-20-4-11-7-29-2-18-1-14 1-20 2-19 8-26 7-17 9-16 10-15 8-10 30-30 14-11 15-12 33-22 10-7 11-8 30-21 16-12 17-13 10-9 8-7 8-8 7-8 9-11 9-15 11-24 4-15z" fill="#A6B2BD"/>
<path transform="translate(1185,831)" d="m0 0 4 1 5 10 9 27 8 34 3 17 1 11v27l-2 17-4 18-6 20-11 25-11 19-9 11-12 14-23 23-11 9-17 14-17 13-29 19-28 17-16 9-14 8-50 30-16 10-36 25-16 12-13 12-8 7-21 18 4-23 8-24 9-17 10-14 8-10 11-12 20-20 17-13 14-11 18-12 17-10 45-27 41-26 14-10 17-12 17-14 19-19 9-11 11-15 9-16 12-23 6-16 7-28 3-18v-41l-3-21-3-11z" fill="#FBFCFC"/>
<path transform="translate(1157,890)" d="m0 0 1 3-7 23-8 20-8 17-10 17-10 16-14 19-12 13-6 7h-2v2l-8 7-11 10-19 14-18 13-16 10-15 10-14 8-22 14-27 18-16 12-26 22-23 23-13 17-12 19-8 16-8 21-6 21-1 2h-2l-5-17v-31l2-14 6-26 8-21 8-16 8-12 14-18 12-13 4-5 8-7 9-9 11-9 18-14 19-13 10-7 15-9 11-6 24-12 12-7 21-10 16-9 14-7 23-14 17-13 10-9 16-16 9-13 12-21 8-15z" fill="#FCFCFC"/>
<path transform="translate(1141,1232)" d="m0 0 3 1 1 3-3 14-9 19-12 21-6 9-16 21-11 12-13 13-8 7-10 9-13 10-14 11-13 10-12 10-9 7-14 11-13 10-15 13-22 18-6 5-1 2h-2v2l-8 7-19 19-1 2h-2l-2 4-9 11-10 14-13 18-10 13-9 6-3-1-1-2v-25l4-18 8-22 13-26 12-18 11-13 9-10 34-34 11-9 15-12 34-24 13-9 19-13 22-15 18-14 14-10 18-14 11-10 10-8 8-8 9-11 6-4z" fill="#6A7480"/>
<path transform="translate(876,639)" d="m0 0 1 4-3 1-2 6h-2l-2 5-6 9-4 7-4 8-4 11-2 10-3 6-2 13-1 14 4 26-1 2h2l2 3v3h2l3 5 5 9 6 10 8 6 10 4 6 4 10 4 18 8 34 10 12 3 23 1 36-3 8-2 12-2 20-5h12l14-3 16-11 3-2 3-6 3-1v-5l5-5 2-4h2l1-6 3-2 4-11 2-11 1-4v-26l-3-16-6-24-5-13-6-11-5-8 1-2 10 15 11 23 5 18 2 21v25l-3 20-4 15-8 20-8 15-12 16-11 12-14 11-15 9-16 8-18 6-18 4-7 1h-32l-14-2-17-5-16-7-15-8-14-10-15-14-11-12-10-14-8-16-8-24-2-9-2-20v-18l2-19 8-27 9-19 8-12 8-10z" fill="#C7D1DA"/>
<path transform="translate(1083,1548)" d="m0 0 2 3v9l3 4-1 7-4 5-7 10-6 9-9 14-4 10-7 14h-2l-1 6-4 10-7 12-4 9-5 7-2 1-1 3-4 4h-2v2l-6 5-5 5h-2l-2 4h-2l-7 14-3 3-2 5h-2l-2 5-6 10-3 12-2 7-2 4-3 3-5 13-4 4-3 5-5 3-4 7-7 2-2-10-2-5-2-16v-35l1-12-1-3 8-26 7-17 9-16 10-15 8-10 30-30 14-11 15-12 33-22 10-7z" fill="#C7D1DA"/>
<path transform="translate(795,1397)" d="m0 0 1 3-3 10 3 1v2h2l5 5 3 1v2l4 2 5 3 9 5 11 3 9 3h2l-2 5-12 18-6 10-12 27-10 30-3 19-1 17v29l4 26 5 25-1 9-5 1-5-5-7-10-13-22-10-23-5-18-6-36-1-10v-21l5-29 5-19 8-23 7-16 12-22z" fill="#4C5461"/>
<path transform="translate(800,835)" d="m0 0 1 4-5 18v52l3 19 4 18 8 21 10 20 9 14 14 18 11 12 9 9 10 8 5 5-1 4-8 9-4 5-11 9-11 11-12 8-4-2-10-11-13-18-9-16-9-17-7-19-6-24-4-27v-28l4-30 6-26 7-21 10-21z" fill="#FCFCFC"/>
<path transform="translate(1024,1543)" d="m0 0 2 1-28 18-19 14-16 12-14 12-22 22-7 8-11 15-9 15-7 14-6 16-6 28-1 7v30l2 16 7 26 9 20v3l-4-2-9-10-12-16-10-18-8-20-6-20-4-22-2-21v-10l3-26 4-18 8-24 8-17 10-16 12-16h2l-2 6h-2l-1 6-2 3 1 5 3 3v5l-2 5-3 5-1 1v9l5 3 11 2 5 4 8 1 3-2 7 1 9-5 5-6 8-7 4-4h2v-2h2v-2l7-6 3-3h2v-2l17-12 9-7 16-11 9-5z" fill="#C7D1DA"/>
<path transform="translate(1051,1305)" d="m0 0 3 1 5 13-1 13-4 2-2 5-4 5-6 8-3 6h-2v2l-7 6-3 5h-2l-2 5-6 5-2 3h-2l-2 6-5 4-7 7-7 4-5 5-6 5h-2v2l-7 4-5 2-5 4-6 3-6 5-7 1-7 4-10 3-6 2-20 2-8-1-11 1-2-2 9-11 39-39 11-9 15-12 34-24 13-9 19-13 22-15z" fill="#95A1AE"/>
<path transform="translate(1220,1399)" d="m0 0 7 6 2 5 1 9v10l-4 24-5 25-7 17-13 26-10 15-11 14-11 13-22 22-11 9-16 13-4 1 4-9 2-12 3-6h2l1-5 5-12 3-9 1-7h2l1-7v-7l2-7-1-8 5-5 8-16v-2l8-7 10-9 7-7 7-8 9-11 9-15 11-24 4-15z" fill="#4B5360"/>
<path transform="translate(1357,919)" d="m0 0h18l35 2 100 8 55 4 50 3 59 4 73 3 83 5 44 2 23 2 15 3 11 3-1 2-9 1h-44l-99-2-111-5-107-8-76-8-68-9-49-8z" fill="#FCFCFC"/>
<path transform="translate(1182,1184)" d="m0 0 4 2 8 14 9 17 10 25 7 25 4 27 1 13v18l-3 26-4 15-6 16-10 19-12 16-10 13-16 17-5 5h-2v2l-8 7-11 10-12 9-19 14-11 7-15 10-30 18-2-1 13-9 17-10 10-7 4-3h4l1-4 6-2v-2l16-11 7-9 2-3h2l2-4 5-5 3-5 5-4 5-5 3-2 1-3 6-5 3-5 5-5 3-5 2-5 4-4 3-7 3-9 4-9 2-7 1-2h2l2-5 5-12 2-5v-6h2l1-7-1-14-2-5 1-7-1-7v-6l-2-2-2-12-5-12-3-15-2-6-1-2-1 7-1 1-1 10-3 7-2 8-2 4-1-3 5-18 3-23v-29l-1-21z" fill="#C7D1DA"/>
<path transform="translate(603,918)" d="m0 0h15v2l-19 4-51 8-68 8-85 8-85 6-43 2-97 3h-63-2-16l-2-1-1-1-2 1-1-3 2-2 5-1 72-4 58-3 156-10 66-4 142-12z" fill="#FBFCFC"/>
<path transform="translate(1124,675)" d="m0 0 3 4 5 14 3 11 2 21v25l-3 20-4 15-8 20-8 15-12 16-11 12-14 11-15 9-16 8-18 6-18 4-7 1h-32l-14-2-17-5-16-7-15-8-14-10-15-14-11-12-10-14-8-16-6-17 1-3 4 7 3 7 5 11v2h2l6 8 7 5 5 2 9 4 4 4 6 4v2l5 2 11 8 6 1h9l8 2 9 4 8 2 11 4 12 3 14 1h34l10-3 12-4 31-14 9-3 9-7 8-8 5-2 2-4 5-5 6-10 6-17 3-9 4-24v-31l-3-18-7-25z" fill="#94A0AD"/>
<path transform="translate(748,1096)" d="m0 0h3l-2 4-12 13-11 12-32 32-11 9-9 13-14 14-7 8-10 11-7 8-3 4h-2l-2 4-22 22-7 8-10 10h-2l-2 4-12 12-8 7-8 8-8 7-1 2h-2l-2 4-9 9-7 8-9 10-11 12-32 32-8 7-36 36-8 7-16 16-8 7-14 14-14 11-11 9-5 4h-2l2-5 20-20 7-8 24-24 7-8 8-8 8-7 43-43 7-8 16-17 25-25 8-7 21-21 7-8 9-10 7-8 7-7 7-8 9-9 7-8 17-17 7-8 11-11 8-7 10-9 10-10 8-7 12-15 16-16 8-7 13-13 14-11 8-6z" fill="#6B7581"/>
<path transform="translate(1331,1191)" d="m0 0 5 2 35 35 7 8 39 39 7 8 21 21 7 8 8 8 7 8 41 41v2l3 1 5 6 4 3v2l4 2 8 8v2l3 1 7 8 61 61v2l4 2v2l3 1 14 16 2 3-1 4-9-6-11-10-8-7-15-15-8-7-10-9-7-7-8-7-24-24-8-7-16-16-7-8-18-18-2-1v-2l-4-2-14-15-22-22-7-8-26-26-7-8-12-12-7-8-10-10-7-8-7-7-9-11-5-6-6-5-1-5z" fill="#4E5764"/>
<path transform="translate(364,486)" d="m0 0 6 2 22 12 27 16 24 14 27 15 23 13 29 17 23 12 23 13 24 13 45 25 23 14 18 11 15 9 12 8 1 2-6-1-19-8-26-12-29-15-22-12-33-17-23-13-24-13-28-15-24-14-22-12-28-17-59-35-2-5 2-6z" fill="#FAFBFB"/>
<path transform="translate(1600,486)" d="m0 0h6l3 5-4 6-11 8-16 9-29 16-32 19-19 11-11 6-19 11-23 13-24 13-23 13-32 17-44 22-24 11-22 10-5 1 4-4 26-17 20-12 50-28 21-12 22-12 24-14 25-14 27-15 15-9 24-14 25-14 23-13z" fill="#FBFBFB"/>
<path transform="translate(795,1397)" d="m0 0 1 3-3 10 3 1v2h2l5 5 3 1v2l4 2 5 3 9 5 11 3 9 3h2l-2 5-12 18-6 10-10 22h-3l-1 5-3 5-4 1-9-5-7-7-2-7-7-2-1-4-7 1-4 3-4-5 2-10 4-13 3-10 2-3 3-9 2-7 2-5 11-21z" fill="#94A0AD"/>
<path transform="translate(872,1587)" d="m0 0 1 3-8 15-7 17-3 9-2 8v8l2 8 2 16v2l3 1 1 5-1 6v6l10 1 5-7 7-16 4-8 4-4h2v6l-4 7-5 13v10l3-9 7-19 9-13 1 3-8 14-8 21-6 28-1 7v30l2 16 7 26 9 20v3l-4-2-9-10-12-16-10-18-8-20-6-20-4-22-2-21v-10l3-26 4-18 8-24 8-17z" fill="#A6B2BD"/>
<path transform="translate(671,974)" d="m0 0h4l-1 3-15 7-53 20-35 13-30 11-37 13-28 11-28 10-41 14-19 7-43 14-6-2-2-6 6-5 22-8 40-13 25-9 48-17 26-10 50-17 34-12 36-11 43-12z" fill="#C5D2DC"/>
<path transform="translate(826,899)" d="m0 0 3 1 9 19 12 20 11 14 9 10 15 15 14 11 15 10 22 12 10 6-1 4-6 8-8 5-3 1h-12l-12-5-11-7-9-7-10-9-14-14-12-18-8-15-7-20-4-17-3-18z" fill="#C5D0D9"/>
<path transform="translate(875,1311)" d="m0 0 1 2-6 5h-2l-1 3-8 7-5 6-6 5h-2l-2 4-5 4-4 6-3 4-1 5 3 2v17l3 6 7 3h16l6-1 10 2 8-2v-2l5-2v-2h2v-2l13-9 9-6 3 1-14 12-11 9-21 21-9 11-12 15-3 3-7-1-6-3-11-3-11-6-5-4v-2l-5-1-3-3v-2h-2l-3-3 2-13 7-12 13-16 10-11 2-3h2l2-4 16-16h2l2-4 8-7 9-8z" fill="#C7D1DA"/>
<path transform="translate(1153,1497)" d="m0 0 2 2-5 9-4 7-4 4 1 8-2 7v8l-2 6h-2v7l-4 12-2 3-2 6-2 5h-2l-4 16-1 5-3 6-5 5-10 8-14 11-17 14-13 11-11 9-12 12v-3l10-14 6-6h2l2-4 4-5h2l2-6 3-4 1-4h2l1-5 4-9 8-11 4-8 3-1 2-5 9-10 3-2 4-10v-10l-1-4 2-6v-8l4-8-2-1-7 3-6 3 1-3 11-7 11-8 16-12z" fill="#94A0AD"/>
<path transform="translate(1311,976)" d="m0 0h7l19 5 38 12 50 17 49 17 33 12 39 15 19 7 23 8 43 15 7 4 1 4-3 5h-7l-18-6-45-16-43-15-31-12-30-11-35-13-78-30-31-12-7-4z" fill="#BBD4E4"/>
<path transform="translate(1241,1497)" d="m0 0 6 5 12 27 11 27 31 82 21 55 17 46 9 26 11 33 4 15 1 9-4-4-12-25-22-54-12-32-11-29-11-31-13-34-18-48-13-37-8-26z" fill="#4D5562"/>
<path transform="translate(933,1457)" d="m0 0 2 1-9 8-1 2h-2v2l-8 7-19 19-1 2h-2l-2 4-9 11-10 14-13 18-10 13-9 6-3-1-1-2v-25l4-18 8-22 11-22 4-3 26 2 12-2 2-1 10-1 8-4 4-1 1-3z" fill="#4B5360"/>
<path transform="translate(737,232)" d="m0 0h8l3 3 11 27 16 38 9 21 18 43 30 72 9 23 9 24 9 23-1 2-7-8-12-23-8-16-14-29-13-31-18-41-19-45-8-20-15-36-7-20z" fill="#C6D1DB"/>
<path transform="translate(766,1256)" d="m0 0h2l-1 5-16 34-13 23-6 10-9 19-10 19-9 16-8 16-13 24-14 23-60 100-10 14-10 11-1-2 12-23 9-16 12-22 8-16 11-19 13-23 15-26 13-22 9-17 12-21 14-24 12-19 6-10 6-15 12-21 10-14z" fill="#4E5663"/>
<path transform="translate(728,1038)" d="m0 0h2l-2 4-20 20-8 7-10 9-12 9-14 11-11 8-8 7-13 11-14 11-14 12-11 9-15 12-19 14-16 13-19 14-13 10-14 10-12 9-9 5-4-2-1-6 4-5 22-18 19-14 12-9 18-14 38-28 17-12 12-8 17-13 15-11 4-1-2-1 5-5 10-8 31-21 13-10 13-11z" fill="#939FAC"/>
<path transform="translate(1023,1325)" d="m0 0 2 2v5l-4 1-1 6h-2l-1 3-2 1-4 8v7l-2 3h-2l-1 3h-2l-2 5-11 11-6 3-8 7h-2l-2 4-9 8h-2v2l-9 3v2l-10 5-11 3-5-1-9-3-6 1v2l-8 6-5 4v-3l28-28 11-9 15-12 34-24 13-9 19-13z" fill="#A6B2BD"/>
<path transform="translate(1176,1476)" d="m0 0 1 4-2 4h-2l-1 11 3 12 1 2v16l-2 7v9l-3 4h-2v5h-2l-2 4-6 6-3 12-3 4-2 5-10 9-14 11-9 7-2-1 4-8 2-12 3-6h2l1-5 5-12 3-9 1-7h2l1-7v-7l2-7-1-8 5-5 8-16v-2l8-7 10-9z" fill="#6A7480"/>
<path transform="translate(718,1551)" d="m0 0 5 1v7l-4 16-12 36-9 25-13 37-16 42-25 62-8 20-10 26-3 4h-3l1-9 9-29 11-29 16-47 14-37 14-40 9-25 22-58z" fill="#4E5663"/>
<path transform="translate(800,835)" d="m0 0 1 4-5 18v52l3 19 4 18 8 21 9 18-1 2-7-11-8-16-6-16-4-16-2-19-1-4v-41l-2 3-2 4h-2l-1 10-1 2h-2l-1 16-3 19-2 17v23l3 28 3 14 6 17 3 5 4 12v4h2l5 10 1 5h2l2 8 3 3v3l4 1v2l5 1 13 2 1 1h5l5-5 9-2 3-1 2-5 7-8 5-5-2-4-8-6-14-15-8-10-4-6 1-2 11 14 11 12 9 9 10 8 5 5-1 4-8 9-4 5-11 9-11 11-12 8-4-2-10-11-13-18-9-16-9-17-7-19-6-24-4-27v-28l4-30 6-26 7-21 10-21z" fill="#C7D1DA"/>
<path transform="translate(930,1129)" d="m0 0 2 1-13 10-10 8-14 12-8 7-21 21-13 17-12 19-8 16-8 21-6 21-1 2h-2l-5-17v-31l2-14 6-26 8-21 8-16 4-4-2 11-1 1v9l3 3 2 9 1 3h13l4-4h2v-2l4-1 2-4h2v-3l4-1 2-4 11-9 7-6 3-3 11-8 10-8z" fill="#C7D1DA"/>
<path transform="translate(780,1425)" d="m0 0 1 2-4 9-2 7-3 9-3 8-3 9-1 9 4 3 5-4 5 1 2 4 6 2 3 7v2l5 2 4 4 6 3 4-1 3-5 1-4h2l-1 5-10 30-2 4v-3l-5 2-1 5-3 6-11 2-6 2h-9l-6 2-3-24v-28l5-25 11-33z" fill="#6A7480"/>
<path transform="translate(1367,437)" d="m0 0 4 1 5 3-1 5-8 8-7 8-11 12-7 7-7 8-9 9-7 8-12 12-7 8-47 47-8 7-12 11-12 12-11 9h-3l10-12 10-13 14-17 7-8 2-3h2l2-4 15-16 7-7 7-8 13-13 7-8 11-12 9-10 14-15 7-8 18-18z" fill="#FCFCFC"/>
<path transform="translate(1541,234)" d="m0 0 4 1 1 5-7 10-9 10-9 11-12 14-13 14-7 8-9 10-15 16-9 10-11 13-28 30-9 7-4-2-2-4 4-6 12-14 9-11 9-10 7-8 11-12 7-8 9-10 12-13 11-12 7-8 9-10 11-12 7-8 7-7z" fill="#FCFCFC"/>
<path transform="translate(1261,1324)" d="m0 0 5 5 11 17 12 21 15 28 14 24 12 22 9 16 15 27 9 17 8 16 12 25 6 14-1 2-8-12-13-18-11-18-13-22-15-26-13-23-16-29-12-22-14-27-9-17-3-9-1-10z" fill="#6C7682"/>
<path transform="translate(600,439)" d="m0 0h6l10 9 24 24 7 8 17 17 7 8 12 12v2h2l7 8 8 8 7 8 12 12 9 11 12 13 9 11 11 13 7 8h-3l-7-7-11-9-10-9-11-9-8-8-8-7-9-9-8-7-16-17-12-12-7-8-23-23-7-8-9-9-7-8-10-11-3-4v-5z" fill="#F6F8F9"/>
<path transform="translate(1124,675)" d="m0 0 3 4 5 14 3 11 2 21v25l-3 20-4 15-8 20-8 15-3 4-4 2-5 6-7 6-4 4-4 1v2l-9 3-6 3h-2l-1 2-3 2h-4v2l-13 5-10 4-7 3-15 1-11 2h-22l-31-5-9-1-10-5-17-6-10-3-8-7v-2l-4-2-11-9-9-5-5-4v-2l-4-2-5-5-6-10-4-9-2-1-4-12 1-3 4 7 3 7 5 11v2h2l6 8 7 5 5 2 9 4 4 4 6 4v2l5 2 11 8 6 1h9l8 2 9 4 8 2 11 4 12 3 14 1h34l10-3 12-4 31-14 9-3 9-7 8-8 5-2 2-4 5-5 6-10 6-17 3-9 4-24v-31l-3-18-7-25z" fill="#A6B2BD"/>
<path transform="translate(1141,1232)" d="m0 0 3 1 1 3-3 14-9 19-12 21-6 9-16 21-11 12-13 13-8 7-1-3 7-8 5-5 7-5 2-3-1-16-1-8v-9l6-12h2l1-5 5-4h2v-3l4-1-2-4 4-5 8-7 11-12 5-6z" fill="#4C5461"/>
<path transform="translate(1567,934)" d="m0 0h15l33 2 59 4 73 3 83 5 44 2 23 2 15 3 11 3-1 2-9 1h-44l-99-2-48-2v-1l25-1v-1l5-1-1-3-17-1-3-1-24-3-28-2-46-3-7-1-19-1-8-1-27-1-5-1z" fill="#A1ADB9"/>
<path transform="translate(987,45)" d="m0 0h5l2 2 1 60v136l-1 6h-6l-3-2-2-12v-162l1-17 2-10z" fill="#FDFDFD"/>
<path transform="translate(428,237)" d="m0 0 5 2 22 22 7 8 16 17 9 10 13 15 12 13 7 8 11 12 9 11 8 8 9 11 7 10 1 6-5 2-8-6-9-10-16-17-7-8-11-12-9-10-7-8-10-11-7-8-12-13-9-11-10-11-9-11-9-12-1-5z" fill="#F6F9FA"/>
<path transform="translate(1557,1581)" d="m0 0h5l14 14 7 8 15 16 8 8 7 8 12 13 9 11 12 13 7 8 9 10 11 12 12 13 9 10 18 22 5 7v2l-5-2-10-9-8-7-31-31-7-8-12-13-14-15-7-8-15-16-12-12-7-8-11-12-7-8-11-14-4-7z" fill="#4E5663"/>
<path transform="translate(777,1138)" d="m0 0 2 1-10 17-9 12-12 17-9 11-10 13-10 12-13 18-10 13-26 34-14 19-11 14-11 12-2 2-5-1-1-1v-6l6-10 11-13 10-13 11-14 13-16 12-16 12-14 9-11 26-32 11-14 8-9 9-11 8-8z" fill="#4D5562"/>
<path transform="translate(423,1581)" d="m0 0 4 1 1 1-1 7-12 14-9 11-18 18-7 8-7 7-7 8-19 19-7 8-9 10-17 17-1 2h-2l-2 4-9 9-6 5-1 2h-2l-2 4-11 11-6 8-5 2 2-6 7-11 11-13 11-12 9-11 7-7 1-2h2l2-4 15-16 7-8 12-14 7-7 7-8 12-13 7-8 10-11 7-8 13-13z" fill="#4E5663"/>
<path transform="translate(1368,1128)" d="m0 0 5 2 16 12 10 7 19 14 13 10 14 11 18 14 13 11 26 20 8 7-1 4-4 4-6-1-14-11-16-13-17-13-15-12-19-14-16-13-13-10-13-11-8-7-4-4 2-5h2z" fill="#A7B3BD"/>
<path transform="translate(438,1160)" d="m0 0 3 1v5l-9 7-13 8-14 7-19 10-15 8-26 12-16 8-27 13-27 12-10 4-5-2 1-5 18-10 23-12 19-9 19-10 64-32z" fill="#515966"/>
<path transform="translate(1331,1191)" d="m0 0 5 2 35 35 7 8 39 39 7 8 15 15-2 1 3 6 5 5 2 4 3 1 1 3 5 5-1 2 4 6 1 4 4 2v2l4 2v2l3 1 4 4 1 4-2 1v-2l-4-2-14-15-22-22-7-8-26-26-7-8-12-12-7-8-10-10-7-8-7-7-9-11-5-6-6-5-1-5z" fill="#6C7682"/>
<path transform="translate(1124,170)" d="m0 0 7 1 1 1v9l-5 32-9 45-10 45-6 28-4 13-3 3-4-2v-10l7-43 15-76 8-40 2-5z" fill="#F4F6F7"/>
<path transform="translate(1552,1170)" d="m0 0 7 1 18 8 33 16 38 19 23 11 24 11 21 11 2 3-1 6-3 1-15-6-20-9-25-12-48-24-25-13-18-10-11-8-2-3z" fill="#6E7884"/>
<path transform="translate(1579,610)" d="m0 0 4 1 1 2v6l-5 4-26 10-24 9-27 11-38 13-41 15-36 12-3-1 15-8 84-36 25-11 34-14 25-10z" fill="#B6C1CC"/>
<path transform="translate(389,610)" d="m0 0 7 1 25 10 36 16 42 19 32 14 35 15 10 5-2 2h-6l-23-9-21-7-44-17-36-14-53-22-5-3-1-6z" fill="#A5B1BC"/>
<path transform="translate(1230,1161)" d="m0 0 4 2 9 11 14 17 12 16 10 13 8 10 9 10 10 13 14 17 13 17 14 17 11 15 4 9-2 4-5-1-8-7-10-13-14-18-9-12-16-21-12-16-13-17-12-16-16-24-10-17-5-7z" fill="#4E5663"/>
<path transform="translate(690,359)" d="m0 0h5l11 15 12 17 13 18 28 44 12 19 13 21 10 18 5 10-1 2-10-11-14-20-9-13-14-19-12-17-13-18-13-19-16-24-9-16v-5z" fill="#C7DBE8"/>
<path transform="translate(1721,650)" d="m0 0h7l3 4-1 4-15 7-35 11-50 15-29 7-34 6h-6l2-2 26-10 21-8 95-30z" fill="#F9FAFB"/>
<path transform="translate(1529,410)" d="m0 0 6 1v6l-9 10-9 9-11 9-13 11-14 11-13 12-14 11-13 10-12 6h-5l-2-2 1-4 10-10 11-9 15-13 13-11 14-12 11-9 13-11 17-13z" fill="#C5CFD8"/>
<path transform="translate(1268,373)" d="m0 0 8 1 1 1-1 8-10 16-10 14-29 44-12 16-8 11-9 13-13 18-11 13-1-2 12-23 13-21 8-11 9-15 16-28 12-19 11-18 10-15z" fill="#C7D1DA"/>
<path transform="translate(544,1300)" d="m0 0 2 1-3 4-5 6-5 5-6 7h-2v2l-4 4h-2v2h-2v2h-2v2h-2l-2 4-8 8h-2v2h-2v2h-2v2h-2v2h-2v2l-4 1-2 4-6 8h-2l2 5v4l-15 14-33 33-8 7-16 16-8 7-14 14-14 11-11 9-5 4h-2l2-5 20-20 7-8 24-24 7-8 8-8 8-7 43-43 7-8 16-17 25-25 8-7z" fill="#4E5764"/>
<path transform="translate(1e3 1712)" d="m0 0v3l-9 15-11 21-9 25-6 29-1 7v12l4 23 6 21 4 10 9 15 10 13 7 9 11 12 9 9h-3l-11-10-8-7-15-14-9-11-11-15-9-15-8-16-8-20-4-11-2-12 3 1 2 6 1 6 3 2v6l5-2 5-8 4-1 1-10 1-5v-7l3-6h2l1-7 4-12 3-10 5-11 3-9h2l2-6 10-15z" fill="#939FAC"/>
<path transform="translate(846,1710)" d="m0 0 7 5 3 5v2l6 1v3h2l3 7 4 3 2 9h4v-13l1-8h1l1 31 2 16 7 26 9 20v3l-4-2-9-10-12-16-10-18-8-20-6-20-3-16z" fill="#6B7581"/>
<path transform="translate(433,410)" d="m0 0 6 1 13 11 11 9 13 11 14 11 10 9 11 9 13 11 14 12 5 6v5l-2 2-5-1-9-6-18-14-15-13-14-12-11-9-13-11-11-9-7-6-8-10 1-5z" fill="#F6F8FA"/>
<path transform="translate(630,988)" d="m0 0 2 1v3l-5 2v2l-42 16-44 16-34 12-13 3-10 3-10 2-16 5-13 5-26 8-4-1v-2l4-1 8-4 7-3 9-3 16-6 8-2 16-5 20-8 20-7 35-12 17-6h2v-2l21-7 22-7z" fill="#FCFCFC"/>
<path transform="translate(1343,817)" d="m0 0h106l1 9-1 1-37 1h-38l-57-1-37-2-10-1v-1l31-4z" fill="#FBFBFC"/>
<path transform="translate(533,817)" d="m0 0h84l54 2 26 2 9 1-1 2-20 2-38 2h-80l-32-1-5-2 1-6z" fill="#FBFCFC"/>
<path transform="translate(880,1225)" d="m0 0 1 2-5 10 1 7 3 6 12 3 3 6 7-1v-2l3-2 4 1-14 10-10 8-11 10-8 7-21 18 4-23 8-24 9-17 10-14z" fill="#C7D1DA"/>
<path transform="translate(240,648)" d="m0 0 9 1 79 26 30 11 8 5-1 4-5 2-30-8-56-18-32-11-4-3 1-7z" fill="#FBFBFC"/>
<path transform="translate(862,201)" d="m0 0 6 1 2 6 6 35 10 53 6 43-1 3h-5l-3-8-6-27-11-51-8-40-2-13z" fill="#F6F7F8"/>
<path transform="translate(837,932)" d="m0 0 5 3 3 3 2 6 7 6 15 15 9 10 2 1v2l4 2 9 9 2 5-1 2-8 2 2 5v5l-1 1-7-1-13-13v-2h-2v-2l-4-2-4-6v-2h-2l-9-14-7-14-2-6-1-9z" fill="#FDFDFD"/>
<path transform="translate(1363,545)" d="m0 0 5 1 3 4-2 5-14 11-18 14-20 14-21 13-10 7-25 16-16 13-14 10-2-1 13-11 14-12 20-18 11-9 14-12 12-9 21-16 18-13z" fill="#C3CDD7"/>
<path transform="translate(1169,380)" d="m0 0h8l2 2-1 8-5 15-19 38-11 23-12 24-13 18-4 7-1-3 11-26 11-27 8-20 13-31 8-20z" fill="#C9D3DB"/>
<path transform="translate(609,546)" d="m0 0 8 4 21 16 16 12 14 11 17 14 16 13 20 16 10 9 13 10 2 3-5-2-14-10-16-11-43-29-16-11-18-13-18-14-11-9 1-5z" fill="#BDD1DF"/>
<path transform="translate(666,1429)" d="m0 0h3l-1 5 5-1 2-1-1 5-13 21-16 27-36 60-10 14-10 11-1-2 12-23 9-16 12-22 8-16 11-19 13-23 11-19z" fill="#4E5663"/>
<path transform="translate(737,232)" d="m0 0h8l3 3 11 27 16 38 9 21 5 12v10l-2 1-5-8-1-3-2 1-1-2h-4l-15-37-15-36-7-20z" fill="#C8D4DE"/>
<path transform="translate(364,486)" d="m0 0 6 2 22 12 27 16 24 14 27 15 23 13 29 17 23 12 23 13 24 13 45 25 23 14 18 11 15 9 12 8 1 2-6-1-19-8-26-12-29-15-22-12 3-1 10 5 5 3 7 3 2 1v2l6 1 2 1v2l9 2-5-6-4-2-1-2-2 1-1-3-9-4-3-3-4-1v-2h-3l-2-2-1-2-5-1v-2l-5-1-8-4-3-1v-2l-5-1-22-12-17-10-9-5-7-4-11-6-14-9-23-13-11-6-19-10-6-4-11-6-8-5-11-6-9-6-12-6-7-5-7-3-9-6-5-3h-4l-2 7-2-4 2-6z" fill="#ADC1D0"/>
<path transform="translate(826,1178)" d="m0 0 1 3-1 3-1 15 2 12 3 3v8l3 1v2l4-1 3-5h2l2-4 1 2-11 20-9 24-6 21-1 2h-2l-5-17v-31l2-14 6-26z" fill="#95A1AE"/>
<path transform="translate(795,1397)" d="m0 0 1 3-3 10 3 1v2h2l5 5 3 1v2l4 2 5 3 9 5 11 3 9 3h2l-2 5-9 13h-5v2l-4 1-7-2-5-5-12-11-8-6-6-3-2-5v-8l3-12z" fill="#A6B2BD"/>
<path transform="translate(1373,997)" d="m0 0 12 3 16 5 11 3 8 3 11 4 6 2 11 4 9 4 15 6 18 6 33 12 5 3-1 4-4-1-1-1-10-2-5-2-8-1-1-2-15-4-10-2-46-17-52-20-1-2-4-2 4-1z" fill="#F7F8F9"/>
<path transform="translate(986,425)" d="m0 0h8l1 1v84l-1 35-1 17-2 9-3-2-1-13-2-77v-42z" fill="#A1ADB9"/>
<path transform="translate(902,1652)" d="m0 0 1 3-8 14-8 21-6 28-1 7h-1l-2 20h-4l-4-10-4-3-1-6h-2v-3l-6-1-3-5v-2l-4-2-2-2-2 1-2-21v-10l2-20 2-4 1 16 3 8 2 12 6 5 6 7 6 1 5 8v5h2l4-18 3-16 5-11 3-9z" fill="#95A1AD"/>
<path transform="translate(748,1096)" d="m0 0h3l-2 4-12 13-11 12-32 32-11 9-9 13-14 14-7 8-10 11-7 8-3 2 2-4 3-5 11-12-4-1-4 1v2l-3-1 10-11 8-7 11-11 8-7 12-15 16-16 8-7 13-13 14-11 8-6z" fill="#4D5562"/>
<path transform="translate(728,1038)" d="m0 0h2l-2 4-20 20-8 7-10 9-12 9-14 11-11 8-8 7-13 11-14 11-14 12-4 3h-2v-2l5-5 2-5-8 3-1 2-7 4-8 5-2-1 13-10 21-14 17-13 15-11 4-1-2-1 5-5 10-8 31-21 13-10 13-11z" fill="#4D5562"/>
<path transform="translate(1760,945)" d="m0 0h21l49 3 44 2 23 2 15 3 11 3-1 2-9 1h-44l-57-1-3-2h12l-1-5 2-1-36-3-21-2-5-1z" fill="#4F5865"/>
<path transform="translate(1746,485)" d="m0 0h5l2 5-5 5-13 8-22 12-24 13-14 7-10 3-2-2v-6l5-4 24-14 23-12 28-14z" fill="#F7F9FA"/>
<path transform="translate(220,945)" d="m0 0h19v1l-16 3-28 2v2l2 2-10 2-17 2h-63-2-16l-2-1-1-1-2 1-1-3 2-2 5-1 72-4z" fill="#515A67"/>
<path transform="translate(615,448)" d="m0 0 7 6 18 18 7 8 17 17 7 8 12 12v2h2l7 8 8 8 7 8 12 12 9 11 12 13 9 11 11 13 7 8h-3l-7-7-11-9-10-9-11-9-8-8-8-7-9-9-8-7-8-9h3l6 5 2 1 1-5-3-2h2v-2l-4-2-5-6v-2h-2l-7-8v-2h-2l-3-4v-2h-2l-7-8-5-5-1-3-4-2-5-6-5-5-7-6v-2l-4-2-5-5-12-14z" fill="#B2C2CE"/>
<path transform="translate(217,485)" d="m0 0 13 5 22 12 28 15 20 11 2 2v7l-4 1-15-6-23-12-18-10-23-12-6-5-1-3z" fill="#F9FAFB"/>
<path transform="translate(986,285)" d="m0 0 9 1 1 6v84l-2 8-1 1h-5l-1-2-2-24-1-43 1-23z" fill="#C7D2DB"/>
<path transform="translate(1474,558)" d="m0 0 2 1-20 12-16 10-9 5-22 13-22 12-9 6-13 8-16 8-19 11-1 3h-6v3l5-2h3v-2l8-1 1-3 17-8 30-15 3 1-22 12-46 23-24 11-22 10-5 1 4-4 26-17 20-12 50-28 21-12 22-12 24-14 25-14z" fill="#C0CBD4"/>
<path transform="translate(1232,229)" d="m0 0 6 2 1 3-4 15-10 25-12 26-7 12-4 2-2-3v-7l7-21 9-23 8-21 5-8z" fill="#C3CFD9"/>
<path transform="translate(438,1160)" d="m0 0 3 1v5l-9 7-13 8-14 7-19 10-15 8-26 12-8 4h-2l1-3 5-2 2 1 1-3h3v-2l5-2 1-4 2-3 6-3 14-9 11-6v-2l29-14z" fill="#AAB6C0"/>
<path transform="translate(1552,1170)" d="m0 0 7 1 18 8 33 16 34 17-1 3 5 1v3l-10-3-3-2-7-2 1 3-3 1-36-18-18-10-15-9-7-6z" fill="#939FAC"/>
<path transform="translate(914 1e3)" d="m0 0 5 2 26 14 1 4-7 9-8 5-3 1h-12l-12-5-11-7-5-5 5 2 1 1h10l7-6 3-8 1-3z" fill="#95A1AE"/>
<path transform="translate(1557,1581)" d="m0 0h5l14 14 7 8 15 16 8 8 2 5 3 3 4 7v3l4 2 1 6 2 1v4l-3 1-9-10-14-14-7-8-11-12-7-8-11-14-4-7z" fill="#6C7783"/>
<path transform="translate(1300,1259)" d="m0 0 3 2v2h3v2l4 1-1-4 2 1v2l4-1 13 16 10 13 13 16 9 14 2 7-2 2-5-1-8-7-10-13-14-18-24-32z" fill="#6E7884"/>
<path transform="translate(800,835)" d="m0 0 1 4-5 18v52l3 19 4 18 8 21 9 18-1 2-7-11-8-16-6-16-4-16-2-19-1-4v-41l-2 3-2 4h-2l-1 10-1 2h-2l-1 8-4 22-3 23v28l4 29 4 18 5 16-1 2-4-10-5-18-4-20-2-16v-28l4-30 6-26 7-21 10-21z" fill="#9EAAB6"/>
<path transform="translate(1525,418)" d="m0 0h6l1 3-15 15-11 9-4 3h-4l-1 3-8 4-5 1v2l-9 6-5 5-11 9-11 11-10 8h-2v2l-7 5h-5l-1-3 11-9 12-11 8-7 11-10 9-6h3l1-3 9-7 5-4 3-3h2l1-3 11-8z" fill="#FBFBFC"/>
<path transform="translate(1334,1454)" d="m0 0 4 1 16 29 9 17 8 16 12 25 6 14-1 2-8-12-13-18-11-18-13-22-10-17v-2h2l1-6v-3z" fill="#4F5764"/>
<path transform="translate(1068,862)" d="m0 0 2 1-13 8-19 8-22 6-13 2h-32l-14-2-17-5-16-7-13-7-1-2 13 3 7 2 12 3 26 5 9 3h31l25-4 16-6 7-2z" fill="#6A7480"/>
<path transform="translate(423,1581)" d="m0 0 4 1 1 1-1 7-12 14-9 11-9 9-4 2-6 6h-3l-1 3-7 6-8 8-4-1 2-3 3-3 1-4 3-6 7-7 7-8 10-11 7-8 13-13z" fill="#6C7783"/>
<path transform="translate(317,939)" d="m0 0h15v1l-41 4-23 4-14 4-4 2 5 1v1l-15 1-32 1h-29v-1l16-2-1-4 1-1 28-2 10-2 2-2z" fill="#97A3B0"/>
<path transform="translate(673,1268)" d="m0 0h3l-1 5 2 1-1 4-14 19-13 17-11 13-6 6-5-1-1-1v-6l6-10 11-13 20-26 4-2 2-3 3-1z" fill="#6B7582"/>
<path transform="translate(1242,1095)" d="m0 0 7 6 10 10 7 8 14 14v2l3 1 7 8 35 35 3 6 1 8-7-3-16-17-18-20-9-11-16-17-9-11-10-15z" fill="#4E5663"/>
<path transform="translate(987,45)" d="m0 0h5l2 2v55h-1l-1-53-5-1-1 31v140l1 26h2l2-6 1-17 2-115h1v136l-1 6h-6l-3-2-2-12v-162l1-17 2-10z" fill="#AFBAC5"/>
<path transform="translate(579,1157)" d="m0 0h2l-1 5-2 2h-3v2l-3 1-6 7h-2v2h-2l-1 3-4 1v2l-5 4h-2l-1 4-15 12-11 8-12 6h-2v2l-7 2-7 4h-5l-1-2 4-2 1-2 5-3 3-3 7-4 10-7 9-6 5-5 10-8 5-5 16-10 10-7 5-1z" fill="#C7D1DA"/>
<path transform="translate(1368,1128)" d="m0 0 5 2 16 12 10 7 19 14 13 10 14 11 18 14 13 11 2 4-3-1-1-2-7-4-4-2-3-3-9-6-3-1-6-7-7-4v-2l-4-2-1-3-4-2-9-7-3-2v-2l-4-2-5-2-1 3-1-3-4-1-3-3-5-1-3-2 1 1 4 3 5 5-1 2-9-7-11-9-10-9-3-3 2-5h2z" fill="#95A1AE"/>
<path transform="translate(1357,919)" d="m0 0h18l35 2 125 10v1h-23l-6-1-27-1h-25l-10 1h-3l1 2-21-2-62-10z" fill="#BBD4E3"/>
<path transform="translate(1540,1053)" d="m0 0 9 2 16 6 23 8 43 15 7 4 1 4-3 5h-7l-18-6-39-14 4-1 11 4 13 4 4 1v-1l-5-1-4-5h-3l-3-3-5-1-1-2-7-2v-2l-6-1-12-5-13-6-5-2z" fill="#A7B3BE"/>
<path transform="translate(993,1349)" d="m0 0h2l-1 4-2 4h-2l-1 3h-2v2h-2l-2 4h-2l-1 2-6 3-6 5h-2l-1 3-8 5-4 4-16 8-9 5h-6l5-6 11-9 15-12 34-24 6 1z" fill="#C7D1DA"/>
<path transform="translate(878,1761)" d="m0 0h2l6 26 5 15 7 15v3l-4-2-9-10-12-16-10-18 1-5 2 2 3-6 7-2 2 1z" fill="#4D5562"/>
<path transform="translate(752,253)" d="m0 0 1 2h3l18 43 10 23 5 12v10l-2 1-5-8-6-15-5-10v-3l-4-1-1-3 1-4-3-9 1-5-4-1-3-6v-3l-2 3-2-4-4-7-1-9v-5z" fill="#FAFBFB"/>
<path transform="translate(671,974)" d="m0 0h4l-1 3-15 7-29 11-3-1 5-2-2-3-16 4-25 8-12 3v2l-33 12-13 3-21 7-15 6-10 3-11 4-4-1 34-13 50-17 34-12 36-11 43-12z" fill="#9FABB7"/>
<path transform="translate(474,750)" d="m0 0h2l3 15 1 12 10 2 1 5-5 3h-3l-2 5-5 17h-2l-5-16-3-4v-2l-6-2-8-5 2-2 15-2 4-19z" fill="#F2F4F6"/>
<path transform="translate(1280,96)" d="m0 0 6 1-1 7-5 14-10 24-9 19-4 1-2-2v-8l7-20 12-27 5-8z" fill="#C8D2DB"/>
<path transform="translate(1270,1048)" d="m0 0 4 2 10 10 10 8 17 13 13 10 19 14 14 11 8 7-3 5-4-1-11-9-16-13-11-9-16-13-11-10-8-7-11-12z" fill="#4E5663"/>
<path transform="translate(481,649)" d="m0 0 5 1 45 20 35 15 10 5-2 2h-6l-23-9-21-7-39-15v-2l8 2-2-5-4-1v-2h-2v-2l-4-1z" fill="#4F5764"/>
<path transform="translate(386,612)" d="m0 0h7l13 5 1 3 5 1 3 2 8 2 12 5 9 3 12 6 2 4h-2l-1 4-16-6-5-3-7-3-13-4-9-2-15-7-4-2-1-6z" fill="#F9F9FA"/>
<path transform="translate(1460,1464)" d="m0 0 5 2 5 5 13 16 8 10 6 9 3 7 1 7-2 1-6-5-9-11-12-13-10-14-4-7v-5z" fill="#4D5562"/>
<path transform="translate(1169,380)" d="m0 0h7l1 6-1 1-2 9-5 12-8 16-7 13h-3l-2 5-2-2 1-8 4-10-1-2 8-20 7-16z" fill="#FBFCFC"/>
<path transform="translate(1341,303)" d="m0 0 6 1 1 5-9 15-13 18-9 10-3 1-3-2 1-7 4-8 11-17 9-12z" fill="#C8D3DC"/>
<path transform="translate(1296,511)" d="m0 0v3l-10 13-3 1-1 2h-2l-1 4-9 8h-2l-2 5-8 8-4 5h-2l-2 4-3 3-1 3h5v-2l10-7 12-11 2 1-22 22-8 7-12 11-12 12-11 9h-3l10-12 10-13 14-17 7-8 2-3h2l2-4 15-16 7-7 7-8z" fill="#C3CED7"/>
<path transform="translate(967,1830)" d="m0 0 2 2 6 27 7 19 9 15 10 13 7 9 11 12 9 9h-3l-11-10-8-7-15-14-9-11-11-15-2-3 1-7-2-4 1-4h3l-2-10-2-11z" fill="#6F7985"/>
<path transform="translate(1510,761)" d="m0 0 3 1 2 13 6 4v2l-5 3-4 8-2 17-2 3-1-2-2-18-1-4-13-3-3-4 5-1 4-4h-7l-1-4 5-2h7l2-4 5-3z" fill="#9EAAB6"/>
<path transform="translate(1567,934)" d="m0 0h15l33 2 70 5 27 2 19 1 30 5 20 1 2 2-1 3-10 1v1l-5 1h-22l-23-1v-1l25-1v-1l5-1-1-3-17-1-3-1-24-3-28-2-46-3-7-1-19-1-8-1-27-1-5-1z" fill="#B8D0E0"/>
<path transform="translate(989,427)" d="m0 0h4l1 5v41l-2 37-2 11-2-1-1 5h-1l1-96z" fill="#C9D2DB"/>
<path transform="translate(151,785)" d="m0 0 15 1 39 6 4 2v5l-1 1h-9l-36-3-15-3-2-2 1-5z" fill="#ADC0CD"/>
<path transform="translate(1119,243)" d="m0 0h1l-1 10-11 50-6 28-4 13-3 3-4-2v-10l6-37h1v11l1-2 1-1h-1v-5l3 1 2-6 2-2 2-10 5-17z" fill="#C7D1DA"/>
<path transform="translate(609,546)" d="m0 0 8 4 21 16 5 5 4 3 1 6 3 1 1 7h-2v-2l-9-3-12-9-13-10-11-9 1-5z" fill="#BED1DE"/>
<path transform="translate(686,95)" d="m0 0h5l4 5 17 45 4 15v3l-3 1-4-4-13-31-11-31z" fill="#CBD5DE"/>
<path transform="translate(1474,652)" d="m0 0 3 1-3 3h-3l1 3 5-1 2 2-12 5-39 14-26 9-15 5-3-1 15-8 56-24z" fill="#525A67"/>
<path transform="translate(1343,817)" d="m0 0h106l-1 5-2-1-29-1h-37l-44 1-23 2-2 1 6 1v1h-23l-24-2v-1l31-4z" fill="#B0C2D0"/>
<path transform="translate(1311,976)" d="m0 0h7l19 5 38 12 37 13-3 1-19-6-13-2h-2l-4 1 4 2-2 1-40-15-19-8-3-2z" fill="#A6B3BE"/>
<path transform="translate(800,362)" d="m0 0 3 4 16 39 13 31 9 23 9 24 9 23-1 2-7-8-12-23-11-22 1-2 5 8v-9l-3-8-2-8-2-1-4-13-8-21-10-24-5-11z" fill="#9FABB7"/>
<path transform="translate(1814,785)" d="m0 0h14l1 5-2 2-15 3-26 3-11 1h-14l-1-4 12-4 22-4z" fill="#B6CDDC"/>
<path transform="translate(1654,1384)" d="m0 0 6 1 15 8 15 9 17 10 3 4-2 7-4 2-13-9-14-11-13-10-6-5z" fill="#A7B3BE"/>
<path transform="translate(1760,945)" d="m0 0h21l32 2 4 2 22 1 17 2 13 2 2 2v2l-17 1-10 1h-32l-3-2h12l-1-5 2-1-36-3-21-2-5-1z" fill="#6E7884"/>
<path transform="translate(309,1390)" d="m0 0h4l-2 4-7 7-17 13-13 9-7 3h-5l-1-5 5-5 7-6 20-12z" fill="#919DAA"/>
<path transform="translate(384,1185)" d="m0 0 4 1-13 7-11 7-6 4h-3l-2 4-1 3-5 2v2l-3 1-1 2-4 1-3 1-1 3-23 11v-3l3-3v-5l6-1 1-3 7-1v-3h2l-1-3z" fill="#6C7682"/>
<path transform="translate(606,726)" d="m0 0 5 3 8 9 1 5-1 2h-2v2h-2l-2 4-5 4-5-1-6-7-8-5 2-4 9-7z" fill="#F7F9FA"/>
<path transform="translate(1370,726)" d="m0 0 7 1 8 7v8l-5 8-3 2h-7l-6-4-3-6 1-8 4-6z" fill="#98A4B0"/>
<path transform="translate(690,359)" d="m0 0h5l11 15 10 14 3 7 9 14 3 5 1 5-3 2-4-6-2 2-3-5 1-2-1-4-1-5h-2l-3-3v-3l-3-1-3-6h-4v-4h-2l-6-7-5-8-3-3v-5z" fill="#F7F9FA"/>
<path transform="translate(873,1050)" d="m0 0 4 1 2 2-1 4-8 9-4 5-11 9-11 11-12 8-4-2-10-11v-2l4 2 7 3 8 1v-2h2l2-4 5-4 5-6 6-4 6-8 8-8z" fill="#A6B2BD"/>
<path transform="translate(604,633)" d="m0 0 6 1 12 7 7 3 2 1v2l6 1 2 1v2l6 2 12 6 6 2-1-4h-2v-2l-4-1v-2l-5-2-9-6-4-4 5 2 17 10 18 11 15 9 12 8 1 2-6-1-19-8-26-12-29-15-22-12z" fill="#9CA7B3"/>
<path transform="translate(506,1205)" d="m0 0 1 3-10 10h-3l-2 4-2 1h5l8-5h6v-2l9-5 2 1-32 24-12 7-4-2-1-6 4-5 22-18z" fill="#A4B0BB"/>
<path transform="translate(760,457)" d="m0 0 4 4 14 22 12 21 9 17-1 2-10-11-14-20-9-13-10-14 1-2 4 2 1-5z" fill="#4F5764"/>
<path transform="translate(1225,456)" d="m0 0 1 2-8 11-9 12-8 12-14 19-11 14-3 2 2-6 10-19 13-21 8-11 1-2h3v5l7-9 5-5z" fill="#505865"/>
<path transform="translate(818,1242)" d="m0 0h5l2 7 2 1-1 8-7 24-1 2h-2l-5-17v-21z" fill="#6B7581"/>
<path transform="translate(1325,1290)" d="m0 0h3v4l4 2v2l4 1 5 2 4 1 11 14 6 12-2 4-5-1-8-7-10-13-11-14z" fill="#939FAC"/>
<path transform="translate(570,1604)" d="m0 0 1 3-11 23-14 23-12 18-6 7h-2l3-10 10-18 22-33 7-11z" fill="#4F5764"/>
<path transform="translate(935,1012)" d="m0 0 5 1 6 4-1 4-6 8-8 5-3 1h-12l-7-3 2-1v-2l6-5 4-2 3-1v-2l7-1 3-3z" fill="#6A7480"/>
<path transform="translate(1579,610)" d="m0 0 4 1 1 7-2-3-1-2-14 3-6 3-17 6-28 11-18 8-9 6-1 2 12-2 24-8 3 1-28 11-18 6-5-1-4 1-2-2 1-2 5-3v-2l32-14 34-14 25-10z" fill="#9FABB7"/>
<path transform="translate(438,1160)" d="m0 0 3 1v5l-6 5-1-2-16 4-11 5-6 3h-3v2l-22 12-3 3-6 2-1 3h-2l-2 4h-2v4l-23 11h-2l1-3 5-2 2 1 1-3h3v-2l5-2 1-4 2-3 6-3 14-9 11-6v-2l29-14z" fill="#94A0AD"/>
<path transform="translate(1571,616)" d="m0 0h7l1 2-2 3-21 7-22 9-13 5-14 4h-2v-4l14-7 17-6 15-6z" fill="#FDFDFD"/>
<path transform="translate(1182,1184)" d="m0 0 4 2 8 14 9 17-2 6-5 3h-2l-4-8v-3h-4v20h-1l-2-38z" fill="#A6B2BD"/>
<path transform="translate(826,1178)" d="m0 0 1 3-1 3-1 15 2 12 3 3v8l3 1v2l4-1 3-5h2l2-4 1 2-10 18-4-1-5-8-8-7-1-5 1-4h-2l4-16z" fill="#A6B2BD"/>
<path transform="translate(1600,486)" d="m0 0h6l3 5-4 6-4 2 4-7-2-2-5 3-7 3-19 10-16 9-11 6-14 8-23 13-16 8-13 8-3-1 27-16 21-12 23-13 16-9 25-14z" fill="#C0CAD4"/>
<path transform="translate(1378,612)" d="m0 0v3l-13 8-27 14-20 12-4 3h-2l2 4 3 1-38 18-8 2 4-4 26-17 20-12 50-28z" fill="#A1ADB9"/>
<path transform="translate(1192,1073)" d="m0 0h2v7l-4 17-4 10-1-3 1-5-8 7-11 9-10 8h-2v2l-4 1 6-7 7-8 11-13 12-17z" fill="#929DAA"/>
<path transform="translate(523,1464)" d="m0 0h4v5l-10 13-11 12-23 23-3 1 2-6 9-11 11-13 12-14z" fill="#4E5764"/>
<path transform="translate(1232,246)" d="m0 0 2 1-10 23-10 19-7 17-2 1 1-14h2l1-9 4-11 4-10 5-10 4-3 2 1 1-3h3z" fill="#FDFDFD"/>
<path transform="translate(1184,1099)" d="m0 0h2v9l-8 19-8 16-13 22-7 10-1-2 9-15 4-7 7-12 8-16v-6l-5-1-6 4h-2v2l-10 7-7 4-3-1 6-6 5-1v-2l8-6 17-14z" fill="#C7D1DA"/>
<path transform="translate(1361,550)" d="m0 0 4 1-3 7-6 4-10 8-6 2v2l-5 3-5 4-7 3-8 6-7 4h-2v-3l11-9 17-13h2v-2l9-6 14-9h2z" fill="#FDFDFD"/>
<path transform="translate(673,1268)" d="m0 0h3l-1 5 2 1-1 4-14 19-8 10-2-1 2-5 3-3 2-5-5 3h-3v3l-5 1 2-5 13-16 2-3 4-2 2-3 3-1z" fill="#6B7581"/>
<path transform="translate(220,945)" d="m0 0h19v1l-16 3-28 2v2l2 2-10 2-17 2h-23l3-3 23-2 1-2h-6v-1l17-2v-2z" fill="#6D7784"/>
<path transform="translate(364,486)" d="m0 0 6 2 22 12 27 16 24 14 27 15 23 13 24 14-1 2-5-2-5-4-12-6-10-6-11-6-19-10-6-4-11-6-8-5-11-6-9-6-12-6-7-5-7-3-9-6-5-3h-4l-2 7-2-4 2-6z" fill="#B7D1E1"/>
<path transform="translate(519,1535)" d="m0 0 3 1-1 7-3 13-5 10-4 6-3 2-4-1-1-5 4-13 6-11z" fill="#9FABB6"/>
<path transform="translate(1463,1534)" d="m0 0h6l3 3 2 6v11l-3 3-7 1-5-3-3-4-1-3v-7l3-5z" fill="#6B7581"/>
<path transform="translate(1357,919)" d="m0 0h18l35 2 34 3 7 1-2 2h-25l-4 1v-2l-3 2h-15l-43-7z" fill="#A7B4C0"/>
<path transform="translate(624,305)" d="m0 0 7 1 5 5 9 15 6 13v4l-5-1-9-10-14-23z" fill="#BDD4E3"/>
<path transform="translate(1557,1581)" d="m0 0 4 5v2h3l3 7 8 9 5 6 2 1v2l5 2 3 3v2l4 2 8 10 1 3 4 2-1 3 1 1 1 4-4-2-8-8-7-8-11-12-7-8-11-14-4-7z" fill="#97A3B0"/>
<path transform="translate(1382,999)" d="m0 0 8 1 19 6 7 1 47 16 36 13 13 5 1 2-6-1-16-5-11-2-18-7-18-8-7-2-33-11-11-3-8-3z" fill="#B7D0E1"/>
<path transform="translate(798,370)" d="m0 0 4 4 3 7 6 12 4 11 8 28h-3l-6-12v-3l-3-1h2l-8-18-5-9-5-14-1-4 3 1z" fill="#FDFDFD"/>
<path transform="translate(567,1411)" d="m0 0h8l5 4v9l-6 9-6 1-5-4-3-5v-6l4-6z" fill="#4C5461"/>
<path transform="translate(603,918)" d="m0 0h15v2l-19 4-43 7h-8l4-2 7-2 7-1-4-1-8-1v-2l16-2z" fill="#A7B3BE"/>
<path transform="translate(551,817)" d="m0 0h66l54 2 26 2 9 1-1 2-20 2h-14l-2-2-14-1-6-2-44-2-54-1z" fill="#BAD5E6"/>
<path transform="translate(814,401)" d="m0 0h2l11 29 2 6 6 16v10l-4-4-2-4-3-3-12-26-2-5v-3h2l5 12 2 2-2-8-1-5-4-14z" fill="#C6D1DB"/>
<path transform="translate(578,186)" d="m0 0h5l8 9 10 18 2 5-1 5-5-1-6-7-12-21-2-7z" fill="#BED5E3"/>
<path transform="translate(217,485)" d="m0 0 13 5 22 12 28 15 20 11 2 2v7l-4 1v-3l-4-4-6-2-2-3-5-2-13-9-3-1-3-3-12-5-8-5-6-3v-2l-6-2-14-7z" fill="#B8D2E2"/>
<path transform="translate(413,1060)" d="m0 0 3 1-13 6-7 3-10 4-12 5-5 3-4 1-9 4-12 2-2 2h-3l-1 2-1-4 6-5 22-8 40-13z" fill="#A5B1BC"/>
<path transform="translate(867,1243)" d="m0 0 1 2-8 16-5 13-1 11 5 1 9-2 8-6 2 1-13 12-11 9-8 8-1-2 5-25 8-22 8-15z" fill="#97A3AF"/>
<path transform="translate(1392,184)" d="m0 0h5l1 4-9 16-7 11-5 7-5 1-1-3 3-8 14-24z" fill="#C3CED7"/>
<path transform="translate(1417,1609)" d="m0 0h2l15 23 14 25 8 16 1 4-3-1-14-22-10-17-12-22z" fill="#515966"/>
<path transform="translate(1051,382)" d="m0 0 3 1 1 12 6 5-1 5-5 2-2 10h-4l-5-9-5-6 6-7 5-5v-7z" fill="#7D8894"/>
<path transform="translate(720,558)" d="m0 0 5 4 9 11 13 14 11 14 7 7 2 4-4-2-13-12-11-9-15-13-7-7h3l7 6 1 1-1-6-4-6-2-1z" fill="#A2AEB9"/>
<path transform="translate(317,939)" d="m0 0h15v1l-41 4-23 4-14 4-4 2 5 1v1l-25 1-4-4 2-2 14-1 14-4 29-4v-1z" fill="#C4D2DD"/>
<path transform="translate(737,232)" d="m0 0h8l3 3 7 17v3l-3-1-2 1v8l-4 1-8-21-1-4z" fill="#C0D8E7"/>
<path transform="translate(1526,541)" d="m0 0 3 1-24 14-13 7-22 13-25 14-22 12-2-1 11-7 4-3 5-1v-2l11-6 10-7 17-8 5-3 16-9 21-11z" fill="#C4CED7"/>
<path transform="translate(501,1040)" d="m0 0 3 1-28 11-28 10-41 14-19 7-27 9h-4l-1-3h4l2-2 3-2 6 1 6-5 3 2 9-3v-2l8-1 19-7 13-4 10-4 9-3 20-7 18-6h2v-2z" fill="#A7B3BE"/>
<path transform="translate(752,253)" d="m0 0 1 2h3l17 41v2l-3-1-2-5-2-1v-4l-5-2-3-6v-3l-2 3-2-4-4-7-1-9v-5z" fill="#FAFAFB"/>
<path transform="translate(624,1222)" d="m0 0 1 2-1 3 2 4-16 16-6 3-6 5-3 4-6 2 1-6 6-5 8-8 3-4 2-1 1-4 4 1 1-4 6-5z" fill="#929EAB"/>
<path transform="translate(1645,673)" d="m0 0 3 1-12 5-14 5-22 8-5 2-1 4-4 2-23 4h-6l2-2 26-10 21-8z" fill="#9DA9B5"/>
<path transform="translate(551,922)" d="m0 0h3v2h12v3l-18 3v2l-16 1 4-3-2-1v-2l-7 1h-24l-9 1h-10l4-2z" fill="#BED5E4"/>
<path transform="translate(1551,1294)" d="m0 0 7 1 9 6 6 9v5l-1 1h-7l-9-7-6-8-1-5z" fill="#707A86"/>
<path transform="translate(739,424)" d="m0 0 5 5 11 18 6 10 1 5-2 4-6-2-13-18-2-5 3 1v3l2-2 1-5-4-9z" fill="#A6B2BD"/>
<path transform="translate(1341,303)" d="m0 0 6 1 1 5-9 15-5 3-8-3v2l-3 1 2-5 10-14z" fill="#C7D2DC"/>
<path transform="translate(1365,454)" d="m0 0v3l-7 7-7 8-9 9-7 8-9 9-7 8-12 12-7 8-24 24-2-1 18-18 6-8 5-5 5-4 6-7 6-5 6-8h2l4-8h2l2-4 9-9 7-8 6-5h2l2-4z" fill="#C6D0D9"/>
<path transform="translate(425,1581)" d="m0 0 3 2-1 7-5 6-4-1-1 4-3 1-1 4-5 6h-2v2h-2l-2 4-2-1v-2h-2l-1 5-4-2 2-4 7-7h3v-3l4-1 2-4 2-2 2-5 6-5h2z" fill="#94A0AD"/>
<path transform="translate(382,1075)" d="m0 0h3v2l4 1v2l-3 2-8 2-1-2-3 3-4 2-5-1-5 4h-3l1 3-13 4-6-2v-4l5-3 12-2 11-5 4-2z" fill="#C7D1DA"/>
<path transform="translate(1479,985)" d="m0 0h11l5 3 1 8-3 6-2 1h-7l-5-5-3-9z" fill="#FDFDFD"/>
<path transform="translate(1270,377)" d="m0 0 5 1 1 5-10 16-4 5-3 1-2 4-3 3-2 4-1-4 2-5-5 2v-3h3l1-3 6-4 4-5 3-8-3 1-1-4 6-3z" fill="#F8F9F9"/>
<path transform="translate(1748,947)" d="m0 0 17 2 16 1 2 2-1 3-10 1v1l-5 1h-22l-23-1v-1l25-1v-1l5-1-2-3-4-2z" fill="#C6D1DA"/>
<path transform="translate(1401,1407)" d="m0 0 7 1 5 6v7l-5 4h-9l-5-5v-6l5-6z" fill="#4C5461"/>
<path transform="translate(1157,890)" d="m0 0 1 3-7 23-8 20-8 17-10 17-2 1 2-5 2-6 2-1 4-11 4-8 3-7 3-8h2l1-6 1-5-3 1 2-5 10-19z" fill="#8F9AA7"/>
<path transform="translate(255,652)" d="m0 0 9 2 55 18 26 9 17 7 4 4-2 3-6-5-11-4-15-6-9-3-11-4-30-10-11-4-15-5z" fill="#AFBFCC"/>
<path transform="translate(1246,492)" d="m0 0 5 1 3 5 1 4-3 6-5 4-7 1-3-7v-6l4-5z" fill="#BACFDD"/>
<path transform="translate(571 1e3)" d="m0 0 6 1-2 2-31 11-13 3-21 7-15 6-10 3-11 4-4-1 34-13 50-17z" fill="#A8B6C2"/>
<path transform="translate(691,609)" d="m0 0 7 4 14 12 9 7 10 9 13 10 2 3-5-2-14-10-16-11-18-12v-2l2-1-4-5z" fill="#525B68"/>
<path transform="translate(1331,1191)" d="m0 0 5 2 21 21v2h-2l-2-2-6-2-4-2v2h2l6 9 3 5-3-1-9-11-5-6-6-5-1-5z" fill="#4D5562"/>
<path transform="translate(474,750)" d="m0 0h2l3 15 1 12 10 2 1 5-5 3h-3l-2 5-5 17h-2l1-17 3-1v-6h4l-5-6-2-13-1-3 1-2h-2z" fill="#929DA9"/>
<path transform="translate(1794,1092)" d="m0 0 13 1 10 4 1 1v5l-3 2-13-1-10-4-2-3 1-4z" fill="#A1AEB9"/>
<path transform="translate(1124,675)" d="m0 0 3 4 5 14 3 11 2 21v25l-3 20-4 15-5 13-2 1 1-5 6-18 4-24v-31l-3-18-7-25z" fill="#9EAAB6"/>
<path transform="translate(686,524)" d="m0 0 7 6 9 10 6 7 4 4-1 4 7 8-1 2-3-1-2-4-6-3-6-7-6-3-7-6-3-5 4 2 5 4 2 1 1-5-3-2h2v-2l-4-2-5-6z" fill="#BACFDD"/>
<path transform="translate(1552,1170)" d="m0 0 7 1 18 8 17 8 1 2-10-3-6-1-2 4-4-5-3-1-5 1-12-8-3-4z" fill="#6D7783"/>
<path transform="translate(268,942)" d="m0 0h18v1l-30 4-14 4-14 1v2l9 1v1l-7 1h-20l-4-4 1-2 4-1 23-1 5-2 26-4z" fill="#A6B2BD"/>
<path transform="translate(291,1404)" d="m0 0 2 1-5 6-2 4-14 9-5 2h-5l-1-5 4-4 4-1 1-2 5-3 9-2v-2z" fill="#A7B3BE"/>
<path transform="translate(1287,602)" d="m0 0 2 1-7 8h-2l-1 4-5 7-14 9-14 11-13 10-4 1 5-5 15-13 14-12 13-12z" fill="#515A67"/>
<path transform="translate(585,1151)" d="m0 0h6l-1 3h-3v4l-4 4-1 3-16 12-13 10-3 1v-2l5-4h2v-2l4-2 1-2h2v-2h2l2-4 4-4h3v-2l4-2 2-5h-2v2l-8 4-10 7-9 6-3-1 15-11 9-5 10-7z" fill="#A3AFBB"/>
<path transform="translate(1541,234)" d="m0 0 4 1 1 5-4 4-3-2-5 1-8 7-7 7-8 10-9 11h-2l-2 4-10 10h-2v2l-2-1 7-8 10-11 7-8 12-13 7-8 7-7z" fill="#BAC6D0"/>
<path transform="translate(1024,1543)" d="m0 0 2 1-28 18-19 14-16 12-14 12-7 7v-3l4-5h2v-2h2v-2l7-6 3-3h2v-2l17-12 9-7 16-11 9-5z" fill="#C8D2DB"/>
<path transform="translate(339,849)" d="m0 0 8 1 3 3v7l-3 3-4 1h-7l-5-3v-6l4-5z" fill="#BBD3E3"/>
<path transform="translate(716,390)" d="m0 0 5 5 12 17 7 11 1 5 3 5 2 7-1 5h-3v-3h-4l-3-7v-2l5 1-2-2h-3l1-3-1-4h-3l-1-7-3-7-6-10-6-9z" fill="#C6D0DA"/>
<path transform="translate(1642,848)" d="m0 0 9 1 3 3v7l-3 3-7 1-7-2-2-2v-6l4-4z" fill="#A5B1BC"/>
<path transform="translate(875,1051)" d="m0 0 4 2-1 4-8 9-4 5-11 9-11 11-6 4-3-1 3-1 2-4 12-12 5-4 5-7h2v-2h2l2-4h2v-2h2v-2h2z" fill="#909CA8"/>
<path transform="translate(603,622)" d="m0 0 7 1 22 12 6 4 4 4 9 6 5 3v2l4 1v2h2l1 4-8-2-8-4 1-2-5-6-4-2-1-2-2 1-1-3-9-4-3-3-4-1v-2h-3l-2-2-1-2-5-1v-2l-5-1z" fill="#BCD4E4"/>
<path transform="translate(994,107)" d="m0 0h1v136l-2-1-2 4 1-24z" fill="#C8D2DB"/>
<path transform="translate(1236,440)" d="m0 0v3l-9 14h-2l-7 8-8 10-1-2 1-4-2-1 14-24 2 1-1 3h-2v2l5-4 2 1-5 7h2l1-3h2l1-4 5-5z" fill="#9CA8B4"/>
<path transform="translate(533,1019)" d="m0 0 4 1-25 9-24 9-14 5-9 3-12 3-12 5-10 3-1-3 37-13 9-2 15-5 17-6 19-7z" fill="#BED4E2"/>
<path transform="translate(630,988)" d="m0 0 2 1v3l-5 2v2l-16 6-5-1v-2h2v-2l-12 3-15 5-4-1 21-7 22-7z" fill="#BFD3E1"/>
<path transform="translate(1367,437)" d="m0 0 4 1 5 3-1 3-1-3-7-1-14 13-5 5-7 8-9 9-2 3h-2l-2 4-14 14-7 8-6 7h-2l2-4 16-17 7-8 7-7 7-8 9-10 17-17z" fill="#C2CCD5"/>
<path transform="translate(1746,485)" d="m0 0 4 1-7 4-7 1v2l-9 4-12 6h-2v2l-16 8-12 7-11 7-5 1v2l-6 2 2-4 15-9 21-12 42-21z" fill="#ACBCC9"/>
<path transform="translate(333,1012)" d="m0 0 6 2v6l-4 5-2 1h-10l-5-3 2-6 6-4z" fill="#87939F"/>
<path transform="translate(439,412)" d="m0 0 6 4 13 11 11 9 13 11 10 8 13 11-2 1-5-3v-2l-4-2-11-8-9-6v-2l-4-2-11-8-6-8-11-10-3-1z" fill="#A1ADB8"/>
<path transform="translate(146,788)" d="m0 0h17l18 2 5 2v2h-6v2h-10l-21-3-3-1z" fill="#BCD3E1"/>
<path transform="translate(411,630)" d="m0 0 7 1 9 3 9 4 5 3 14 5 2-4-1-3 5 2 7 3-1 4 4 2 1 4-13-3-29-12-19-8z" fill="#BBD3E2"/>
<path transform="translate(993,510)" d="m0 0h1v35l-1 17-2 9-3-2v-28l2-7z" fill="#58616D"/>
<path transform="translate(178,1091)" d="m0 0 5 1v3l-7 6-5 2h-13l-2-4 4-4 11-3z" fill="#6C7682"/>
<path transform="translate(609,546)" d="m0 0 8 4 1 2-6 2 5 5 5 3 1 1 1-3h3v4l2 1-1 2v3l3 2v2l4 2 9 7h-3l-12-9-13-10-11-9 1-5z" fill="#B5CBDB"/>
<path transform="translate(1311,976)" d="m0 0h7l19 5 7 2-1 3-1 1-2 1v-3l-1 4 9 2 12 4v2l-6-1-36-14-7-4z" fill="#97A3B0"/>
<path transform="translate(1467,311)" d="m0 0v3l-7 9-1 3-5 5-8 9-2 1-3 5-4 4h-2l-2 4-13 15-4 5-4 1 4-6 24-28 14-15 7-8z" fill="#BFCAD3"/>
<path transform="translate(669,659)" d="m0 0 5 2 18 10 10 7 4 4-6-1-19-8-13-6 1-2 2-1z" fill="#515966"/>
<path transform="translate(730,496)" d="m0 0h5l4 5 5 8v10l-4-1-9-10-3-5 1-6z" fill="#C0D5E3"/>
<path transform="translate(694,546)" d="m0 0 7 4 2 4 3 1v2l6 2 3 5 2-1-7-8 2-1 1-2v2h2v2l5 1 1 6 4 2 4 8v4h-2l-8-8-5-2-14-14-6-5z" fill="#C2CED8"/>
<path transform="translate(420,1301)" d="m0 0 5 1v6l-4 6-8 4h-7v-6l9-8z" fill="#838E9B"/>
<path transform="translate(914 1e3)" d="m0 0 5 2 1 4 2 1-6 12-9 7-7 1-10-6-2-3 5 2 1 1h10l7-6 3-8 1-3z" fill="#A6B2BD"/>
<path transform="translate(1479,1042)" d="m0 0 7 1 12 3 1 3 9 2 27 10 15 5 12 5 10 4-3 1-46-16-44-17z" fill="#98A4B0"/>
<path transform="translate(1135,476)" d="m0 0h2l-2 6-6 11-10 13-5 9-1-3 11-26 4-8 2-1 1 3 4-2z" fill="#525A67"/>
<path transform="translate(1192,1073)" d="m0 0h2v7l-2 9-5 2-7 8-13 12-2-1 10-12 12-17z" fill="#4F5865"/>
<path transform="translate(987,452)" d="m0 0h2v48l3-1v11l-2 11-2-1-1 5h-1z" fill="#C7D1DA"/>
<path transform="translate(1369,732)" d="m0 0h8l2 6-1 11-1 1h-6l-2-1-4-7 1-6z" fill="#FDFDFD"/>
<path transform="translate(1358,548)" d="m0 0 2 1-2 5-13 8-7 5h-2v2l-19 14-6 5-2-1 4-5 5-5 19-14 16-12z" fill="#C1CBD5"/>
<path transform="translate(603,1041)" d="m0 0h6l3 2v11l-2 4-4 1-5-3-2-4v-8z" fill="#94A0AD"/>
<path transform="translate(794,861)" d="m0 0h1l1 48 3 19 4 18 7 18-1 3-7-15-6-23-2-12-1-20v-30z" fill="#7C8793"/>
<path transform="translate(1301,819)" d="m0 0h19l-2 2-8 1-1 1 8 2v1h-23l-24-2v-1z" fill="#A9B6C1"/>
<path transform="translate(1152,443)" d="m0 0 1 3-15 30h-3v2l-5 3-2-5 8-19 1 3v2l5-1 4-7z" fill="#939EAB"/>
<path transform="translate(842,465)" d="m0 0 3 4 8 22 6 15-1 2-7-8-9-17z" fill="#6C7682"/>
<path transform="translate(879,440)" d="m0 0h6l4 3 1 9-5 5-5-1-3-4-1-9z" fill="#BCD3E2"/>
<path transform="translate(1570,1067)" d="m0 0 6 1v2l7 1 4 2 6 4 4 2 2 4h5v3l-9-3-16-5-8-3 2-4h-2z" fill="#C7D2DB"/>
<path transform="translate(364,486)" d="m0 0 6 2 22 12 27 16 13 8-3 1-11-6-9-6-12-6-7-5-7-3-9-6-5-3h-4l-2 7-2-4 2-6z" fill="#B5C9D6"/>
<path transform="translate(935,1719)" d="m0 0 2 1-1 12v35l2 16 2 5 1 15-2 1-5-22-2-26 1-20z" fill="#9BA7B3"/>
<path transform="translate(673,1415)" d="m0 0 6 2v2l3-1-3 11-4 4-4 3v-2h-3l-1-4h-2l2-5z" fill="#6A7480"/>
<path transform="translate(1223,1322)" d="m0 0h1v14l-3 20-8 24-6 12-1-3 6-15 3-11 1-6 1-4 3-14 1-7z" fill="#939EAB"/>
<path transform="translate(1654,1384)" d="m0 0 6 1 15 8 15 9 17 10v2l-5-2-11-6-3-1h-3v-2h-2v-2l-4-1-5-3-7-2-2-2-7-3z" fill="#95A1AE"/>
<path transform="translate(155,1306)" d="m0 0 5 1 1 1v5l-8 7-2 1h-6l-2-3 1-5 5-5z" fill="#B7D0E0"/>
<path transform="translate(1486,1218)" d="m0 0 4 2 12 9 8 7-1 4-4 4h-2l-5-10-2-1v-2l-4-1-6-9z" fill="#98A4B0"/>
<path transform="translate(943,1017)" d="m0 0h3l-1 4-6 8-8 5-3 1h-10l-1-2 5-2 3-4h3v-2l11-3 1-3z" fill="#4E5663"/>
<path transform="translate(791,869)" d="m0 0h1l1 31 3 25 6 24 7 16v2h2l9 18-1 2-7-11-8-16-6-16-4-16-2-19-1-4z" fill="#C8D2DB"/>
<path transform="translate(1637,1014)" d="m0 0 11 1 7 3 1 2v6l-1 1-7-1-13-7v-4z" fill="#6B7581"/>
<path transform="translate(1516,635)" d="m0 0 3 1-12 6h-2v4l9-3 10-2v2l-24 8-5 1h-7l2-4 10-6z" fill="#C8D2DB"/>
<path transform="translate(1300,591)" d="m0 0v3l-8 9-1 2 8-3 5-3 3 1-30 20v-3l3-6 5-5 3-4 5-5z" fill="#A4B0BB"/>
<path transform="translate(331,337)" d="m0 0 6 1 5 5 5 7-1 5-6-1-5-4-6-9z" fill="#F2F7F9"/>
<path transform="translate(481,1045)" d="m0 0h7l-2 2-29 10-11 4-10 2-4-2 13-4 16-6 13-4z" fill="#C0D3E0"/>
<path transform="translate(944,879)" d="m0 0 8 1 9 2 14 2h32l11-1-2 2-13 2h-32l-14-2-13-4z" fill="#535C69"/>
<path transform="translate(876,639)" d="m0 0 1 4-3 1-2 6h-2l-2 5-6 9-4 7-4 8-4 11-3 1 2-9 9-19 8-12 8-10z" fill="#C1CCD5"/>
<path transform="translate(1387,619)" d="m0 0 3 1-22 12-46 23-3-1 5-3h3l1-3h3v-2l8-1 1-3 17-8 16-8z" fill="#ADB8C3"/>
<path transform="translate(637,322)" d="m0 0 5 2 1-2 8 17v4l-5-1-9-10-3-6 2-2z" fill="#BED4E3"/>
<path transform="translate(1510,279)" d="m0 0 3 1-7 8-10 11-7 8-9 10-15 16-6 7v-3l3-6 3-1 1-3h3l1-4 3-1 2-4h2l2-4 11-12 12-13 4-5 3-3z" fill="#BAC4CE"/>
<path transform="translate(544,1179)" d="m0 0v3l-8 7-6 4-5 5-12 8-8 6-3-1 4-3 3-5 14-10 6-5 8-3z" fill="#A6B2BD"/>
<path transform="translate(1827,1310)" d="m0 0h7l6 4 1 1v6l-5 3-8-4-4-5 1-4z" fill="#B9D1E1"/>
<path transform="translate(1511,770)" d="m0 0 2 3 2 6 6 1-5 4-4 7h-4v-4h-3l-2-9 4-1z" fill="#F2F5F7"/>
<path transform="translate(862,201)" d="m0 0 6 1 1 3-8-1v8l3 21 6 31v6h-1l-10-48-3-19z" fill="#AEBBC6"/>
<path transform="translate(990,438)" d="m0 0h2v34l-1 28h-2l-1-50 1-11z" fill="#FDFDFD"/>
<path transform="translate(826,899)" d="m0 0 3 1 9 19 12 20 4 5-1 2-7-8-11-18-4-5v-2h-2l-1 2-2-10z" fill="#A3AFBA"/>
<path transform="translate(1474,652)" d="m0 0 3 1-3 3h-3l1 3 5-1 2 2-12 5-8 3-7-1-1-2 5-2 8-5v-2z" fill="#6D7884"/>
<path transform="translate(656,1293)" d="m0 0h3l-2 6-10 13h-2v2l-4 2-1-4 2-1-1-5 2-2 2-5h6v-3z" fill="#94A0AD"/>
<path transform="translate(1449,1019)" d="m0 0 11 3 39 14 13 5 1 2-6-1-36-12-22-9z" fill="#9DA9B5"/>
<path transform="translate(1230,584)" d="m0 0 4 4-2 4-11 11-11 9h-3l10-12 10-13z" fill="#57606C"/>
<path transform="translate(788,355)" d="m0 0h2l1 6h2l2 5 1 5h-2l9 21 8 18 2 6-3-1-13-30-9-21h2z" fill="#C8DDEB"/>
<path transform="translate(1185,831)" d="m0 0 4 1 5 10 5 14-1 3-3-5v-4h-2v-3l-1 4 1 9v19h-1l-3-29-4-16z" fill="#A0ACB8"/>
<path transform="translate(1323,421)" d="m0 0 9 2 2 2-1 5-5 6h-5l-3-4v-8z" fill="#BED7E6"/>
<path transform="translate(1633,338)" d="m0 0 5 1-1 5-8 9-6 1-2-5 4-6 5-4z" fill="#ECF2F6"/>
<path transform="translate(1103,314)" d="m0 0h2l-1 8-5 19-3 5h-4l-1-1v-10l2-13h1v12l2 3 2-7 4-11z" fill="#A6B1BD"/>
<path transform="translate(1555,1060)" d="m0 0 4 2 11 4 1 5h2l-1 3-7-1-14-5-1-2h2l1-5z" fill="#BDD4E3"/>
<path transform="translate(1108,648)" d="m0 0 4 4 9 15 3 6 9 34 2 14v31h-2v-30l-3-16-6-24-5-13-6-11-5-8z" fill="#C8D2DB"/>
<path transform="translate(1176,380)" d="m0 0 3 2-1 8-5 15-19 38-1-3 4-11 6-10 5-11 6-14 1-7 1-2-1-4z" fill="#B6C1CB"/>
<path transform="translate(670,592)" d="m0 0 4 2 11 9 6 5 4 7 1 2-4 1-18-12 2-1 6 3-1-5h-2l-7-8z" fill="#A4B0BB"/>
<path transform="translate(760,457)" d="m0 0 4 4 12 19h-3l-3-3-4 1-7-7-4-6 1-2 4 2 1-5z" fill="#6C7682"/>
<path transform="translate(1e3 1712)" d="m0 0v3l-9 15-11 21-9 25-2 8-3-1 5-15 3-10 5-11 3-9h2l2-6 10-15z" fill="#94A0AD"/>
<path transform="translate(518,1546)" d="m0 0h1v8l-6 12-4 6-3 2-4-1v-4l7-5v-6l4-3v-5z" fill="#919DAA"/>
<path transform="translate(447,254)" d="m0 0 7 6 9 10 15 16 5 7-4-2-10-10-9-6-3-3-5-9-5-7z" fill="#BCD3E3"/>
<path transform="translate(821,69)" d="m0 0 5 2 3 5-1 6-3 3h-5l-3-3-1-6 3-6z" fill="#EAF1F6"/>
<path transform="translate(629,565)" d="m0 0h2l1 3 3-1 2 6 5 1 2 1-1 4 5 1 3 1 1 7h-2v-2l-6-2-11-9-7-6 1-3z" fill="#FDFDFD"/>
<path transform="translate(1296,511)" d="m0 0v3l-10 13-3 1-1 2h-2l-1 4-9 8h-2l-2 5-8 8-5 3 2-4 14-15 7-7 7-8z" fill="#A2AFBA"/>
<path transform="translate(1225,456)" d="m0 0 1 2-8 11-6 8h-4l-2 5-4 2v2l-3 1-1-5 8-11 1-2h3v5l7-9 5-5z" fill="#6B7581"/>
<path transform="translate(849,156)" d="m0 0 7 1 2 3v9l-3 4h-5l-2-3v-11z" fill="#B8D1E2"/>
<path transform="translate(317,939)" d="m0 0h15v1l-41 4-23 4-5 1-6-2 5-2 23-3v-1z" fill="#BAD2E1"/>
<path transform="translate(1534,411)" d="m0 0h1v6l-2 3h-2v-2l-7 2-15 11-11 8-3 3-2-1 5-6 14-10 16-12z" fill="#C7D2DB"/>
<path transform="translate(1124,170)" d="m0 0h4v5l-5 2-1 11-7 32-2 7h-1l1-11 8-40 2-5z" fill="#B0BBC6"/>
<path transform="translate(876,1278)" d="m0 0 2 1-9 8-8 4-8 6h-3v-8l2-10 2 1v5l5 1 9-2z" fill="#A6B2BD"/>
<path transform="translate(1685,941)" d="m0 0 37 1 40 2 3 2 21 2v1h-15l-14-2-16-2-32-1-24-2z" fill="#95A1AD"/>
<path transform="translate(734,575)" d="m0 0 4 2 9 10 11 14 7 7 2 4-4-2-13-12-8-7 2-1v-2h-2l-2-4-3-3z" fill="#5B6471"/>
<path transform="translate(953,1505)" d="m0 0 2 1-4 4h-2l-2 4-10 7-8 6-18 18-5 3-1 2h-2l2-4 13-12 9-9 14-11z" fill="#C1CBD5"/>
<path transform="translate(1358,990)" d="m0 0 9 2 14 5 1 2-8-1 1 2h-4l4 2-2 1-13-5v-3l-9-2v-1z" fill="#BAD1E1"/>
<path transform="translate(1357,919)" d="m0 0h18l23 1 9 1-2 4-9-1-4-1h-8l-1 1-13-1-13-3z" fill="#98A4B0"/>
<path transform="translate(1306,653)" d="m0 0 2 1-8 5 3 2-4 3h-3v3l-20 9-5 1 4-4 26-17z" fill="#59626F"/>
<path transform="translate(1329,492)" d="m0 0v3l-12 13-10 10-7 8-24 24-2-1 18-18 6-8 5-5 5-4 6-7 6-5 6-8z" fill="#C7D1DA"/>
<path transform="translate(1401,1071)" d="m0 0 7 1 2 2v7l-2 4-6-1-5-6 1-5z" fill="#B9D2E2"/>
<path transform="translate(1538,521)" d="m0 0 2 1-10 6-2 3-11 6-16 8-22 13-3-1 27-16 21-12z" fill="#BAC5CE"/>
<path transform="translate(601 1e3)" d="m0 0h8l-3 2-59 22-2-1 4-3 10-3 9-4 2-2 9-2 8-4 12-3z" fill="#BFD0DC"/>
<path transform="translate(1524,642)" d="m0 0 3 1-28 11-8 2-2-1-2 1h-6v-4l7-4 2 1-2 3 12-2 15-5z" fill="#A5B1BC"/>
<path transform="translate(1369,729)" d="m0 0h6l6 4 2 4-1 8-3 6-2 1h-7l-4-3-1-7 4 4v3h8l1-11-1-6-8 1-3 6-1-4z" fill="#BAD4E4"/>
<path transform="translate(217,485)" d="m0 0 13 5 33 18-1 2-10-3-10-6-6-3v-2l-6-2-14-7z" fill="#B6CEDD"/>
<path transform="translate(643,418)" d="m0 0 7 2 1 1v8l-3 2-6-1-4-5v-5z" fill="#F7F9FA"/>
<path transform="translate(1341,303)" d="m0 0 6 1 1 5-5 9-1-2-7-1-1-6z" fill="#BCD5E5"/>
<path transform="translate(1529,410)" d="m0 0 5 1-3 2-6 3-13 10-15 11-5 5-13 10v-3l10-8 14-12 14-11 10-7z" fill="#A1ADB9"/>
<path transform="translate(577,1152)" d="m0 0 3 1-4 5-9 6-7 4-10 7-3 4-5 3-5 4-6 2 5-5 18-14 19-14z" fill="#8D99A6"/>
<path transform="translate(984,588)" d="m0 0h15l21 3 4 2-16-1h-36l-15 1 4-2z" fill="#B3BEC9"/>
<path transform="translate(767,307)" d="m0 0 4 1 7 16 2 5v5l-4-2h-2l-7-17 1-5z" fill="#CBD6DE"/>
<path transform="translate(1029,1009)" d="m0 0 2 1-19 10-20 11-16 8-11 6-3-1 18-10 29-15 16-8z" fill="#C0CBD5"/>
<path transform="translate(1211,1240)" d="m0 0 2 2 7 25 4 27v18l-2-4-2-25-6-30-3-10z" fill="#9FABB6"/>
<path transform="translate(471,770)" d="m0 0 1 3-2 6-7 4 6 2h2v10l-4-5-1-3-6-2-8-5 2-2 15-2z" fill="#B8C3CD"/>
<path transform="translate(481,649)" d="m0 0 5 1 11 5-1 3 5 1 6 4-3 1v2l-5-2-1 2-13-5v-2l8 2-2-5-4-1v-2h-2v-2l-4-1z" fill="#6A7480"/>
<path transform="translate(984,199)" d="m0 0h1l2 46h2l1-3h2l1-7h1v14h-6l-3-2-2-16z" fill="#ADB9C4"/>
<path transform="translate(751,443)" d="m0 0 5 5 5 9 1 5-2 4-6-2-4-7 4 1-4-11z" fill="#94A0AD"/>
<path transform="translate(1015,1293)" d="m0 0 2 1-20 14-23 16-16 12-2-1 3-3h2v-2l8-6 21-14 14-10 8-6z" fill="#C8D2DB"/>
<path transform="translate(437,541)" d="m0 0 6 2 8 4v2l9 3 17 10 10 6 11 6 6 4-2 1-27-15-23-13-15-9z" fill="#BAC5CF"/>
<path transform="translate(1175,1292)" d="m0 0 2 1-5 16-5 10-1 4-3 7-4 4-1 4h-2l-2 4-5 6v-3l9-14 11-23z" fill="#BAD5E6"/>
<path transform="translate(638,567)" d="m0 0 4 2 12 9 14 11 1 2-7 1-1-1h-3v-5l2-1-7-1-2-2-4-2v-6l-4-2z" fill="#BEC9D3"/>
<path transform="translate(690,368)" d="m0 0 4 4 4 6v2l4 2v2h2l1 4 2 1 1-2 4 7 2 1 1 4h-7l-11-17-7-12z" fill="#B9D1E1"/>
<path transform="translate(671,974)" d="m0 0h4l-1 3-15 7-8 3-3-1 5-2-6-2 2-2z" fill="#697380"/>
<path transform="translate(483,973)" d="m0 0h6l2 3-3 8-3 3-5-2-2-3 1-6z" fill="#BCD2E1"/>
<path transform="translate(525,340)" d="m0 0 5 4 9 11 8 8 9 11 6 8-1 2-5-5-6-7-3-2v-4l-3-1-5-7-6-5v-2h-2l-3-5-1-3h-2z" fill="#BDD6E7"/>
<path transform="translate(986,285)" d="m0 0 9 1 1 4-2 3-2-3-4-2-1 14-1 55h-1l-1-41 1-23z" fill="#A1ADB9"/>
<path transform="translate(255,652)" d="m0 0 9 2 49 16v2l4 2-10-2-16-6-9-3-11-4-15-5z" fill="#B6CCDC"/>
<path transform="translate(651,582)" d="m0 0 3 1 7 2-1 2-1 4h4l2 1-2 2 5 5 3 1v1h-5l-18-13-4-4 6 2v2h2z" fill="#BDD1DE"/>
<path transform="translate(469,643)" d="m0 0 12 5 1 2 3 1v2h2v2l5 1 1 5-13-2-2-2h3l-3-5v-2h-2v-2l-3 1-4-4z" fill="#94A0AD"/>
<path transform="translate(1051,382)" d="m0 0 3 1 1 12 6 5-1 2-5-2-4-1v-2l-4 2-3 3-3-1 2-4 6-5 1-5z" fill="#545D6A"/>
<path transform="translate(1180,1118)" d="m0 0 1 3-8 16-11 20-12 18-1-2 9-15 4-7 7-12 8-16z" fill="#B6C2CC"/>
<path transform="translate(1797,1097)" d="m0 0h9l12 3-1 4-2 1-13-1-6-2z" fill="#B9D2E2"/>
<path transform="translate(1702,655)" d="m0 0 3 1-38 13-15 5-9 4-4-1 9-3v-2l50-16z" fill="#C6D2DC"/>
<path transform="translate(516,573)" d="m0 0 6 2 23 12 12 7v3l3 1-2 1-10-6-9-5-7-4-11-6-5-3z" fill="#ABBDCA"/>
<path transform="translate(1526,541)" d="m0 0 3 1-24 14-13 7-10 6h-2l2-4 18-10 21-11z" fill="#BDC8D2"/>
<path transform="translate(1474,558)" d="m0 0 2 1-20 12-16 10-9 5-6 3v-2l6-5 23-13z" fill="#BFCAD4"/>
<path transform="translate(1216,1603)" d="m0 0 6 1 2 2v5l-5 4-6-1-2-2 1-6z" fill="#CDDCE6"/>
<path transform="translate(607,1134)" d="m0 0 3 2-1 4-3 5-6 5h-2v-2l5-5 2-5-8 3-1 2-7 4-8 5-2-1 13-10 9-6z" fill="#6A7581"/>
<path transform="translate(249,943)" d="m0 0h16v1l-26 4-5 2h-23v-1l13-1 9-2 2-2z" fill="#95A1AE"/>
<path transform="translate(800,835)" d="m0 0 1 4-6 22-1 6h-1v-10l1-3h-2l-1 4-4 8-1-3 11-24z" fill="#96A2AF"/>
<path transform="translate(151,785)" d="m0 0 15 1 33 5v2h-8l-16-3-12-1h-15v-3z" fill="#909BA7"/>
<path transform="translate(474,750)" d="m0 0h2l3 15 1 12 10 2 1 5-5-2-7-3-3-6-2-10 1-2h-2z" fill="#5A6370"/>
<path transform="translate(702,140)" d="m0 0h2l2 7 2-2 3 1v8l1-2h2l2 11-3 1-4-4-7-16z" fill="#C4D3DE"/>
<path transform="translate(1148,73)" d="m0 0 5 1 2 3-1 6-4 3-5-1-2-2 1-6z" fill="#FDFDFD"/>
<path transform="translate(1093,1499)" d="m0 0h5l-5 4-15 10-19 11-8 5-2-1 13-9 17-10 10-7z" fill="#CAD4DC"/>
<path transform="translate(1512,762)" d="m0 0h1l2 13 6 4-3 1h-4l-3-8-2 2-2 4h-4l2 8-5-2 2-8-4-2 6-3 5-2z" fill="#A2ADB9"/>
<path transform="translate(1490,645)" d="m0 0h3l-1 3-10 4-1 3h6l3-1v3l-11 3-3-1-4 1-2-2 1-2 5-3v-2z" fill="#96A2AF"/>
<path transform="translate(921,604)" d="m0 0 2 1-15 10-11 9-9 6-9 9-2-1 6-7 8-7 18-13z" fill="#C6D3DE"/>
<path transform="translate(1249,573)" d="m0 0 2 1-8 8-8 7-5-5 6-8h3v2h3l1-2z" fill="#9AA6B2"/>
<path transform="translate(701,545)" d="m0 0h6l5 6-1 4 7 8-1 2-3-1-2-4-6-3-3-3-2-5-1-2z" fill="#C0D2DE"/>
<path transform="translate(818,1084)" d="m0 0 4 2 7 3 9 2v2l-6 6-4-2-10-11z" fill="#A6B1BD"/>
<path transform="translate(1392,184)" d="m0 0h5l1 4-7 13-3-3-2-4 1-4z" fill="#BBD3E3"/>
<path transform="translate(958,1660)" d="m0 0 1 3-8 16-5 11-5 14-3 12-2 2 1-7 5-18 9-21z" fill="#A2AEB9"/>
<path transform="translate(1510,761)" d="m0 0h2l-1 7-3 3-8 3-7 1-3 1-1-4 5-2h7l2-4 5-3z" fill="#5D6673"/>
<path transform="translate(986,425)" d="m0 0h8l1 1v52l-1 12h-1v-63l-5 2-1 13h-1z" fill="#A6B2BD"/>
<path transform="translate(709,398)" d="m0 0h7l1 3h2l4 9-1 2v1l-1 4-7-9-5-8z" fill="#BCD6E6"/>
<path transform="translate(830,924)" d="m0 0 2 3 3 13h2l1 7 5 12 7 13-1 3-4-5-6-13-7-20-2-8z" fill="#B7C2CC"/>
<path transform="translate(1320,338)" d="m0 0 3 1 2-1v2l2 1-10 11-3 1-3-2v-4h4l1-4h2v-2l-2-1z" fill="#F9FAFB"/>
<path transform="translate(1384,922)" d="m0 0h13l4 2h9l5 1 2 3h-15l-19-3z" fill="#A9B7C4"/>
<path transform="translate(1143,925)" d="m0 0 1 2-2 7-2 6-1 5-12 22-4 4 2-5 2-6 2-1 4-11 4-8 3-7z" fill="#B4BFC9"/>
<path transform="translate(1636,678)" d="m0 0 3 1-29 11-7 5-7 4-4-1 2-1 1-3 10-5 17-6z" fill="#BFD3E1"/>
<path transform="translate(1584,694)" d="m0 0h4l-1 4-3 3-17 3h-6l2-2z" fill="#515966"/>
<path transform="translate(603,622)" d="m0 0 7 1 22 12 6 4-3 1-4-1-5-2-3-3-4-1v-2h-3l-2-2-1-2-5-1v-2l-5-1z" fill="#B6CEDE"/>
<path transform="translate(414,1177)" d="m0 0h7l-2 4-16 8-4-1-1-3 4-2 5 1-1-4 5-2h3z" fill="#C4CFD8"/>
<path transform="translate(744,235)" d="m0 0h4l7 17v3l-3-1-2 1v2h-2l-1-4h2l-5-15z" fill="#C8D2DC"/>
<path transform="translate(1184,1048)" d="m0 0 1 2-7 11-12 14-11 12-10 10v-3l11-11 7-8 3-4h2l2-4 11-14z" fill="#BDC7D1"/>
<path transform="translate(603,918)" d="m0 0h15v2l-19 4-16 1 3-2 10-1 1-2-2-1z" fill="#69737F"/>
<path transform="translate(638,640)" d="m0 0 5 2 17 10 9 6 3 6-1 2h-6l-3-2 1-2h4l-2-4-9-4v-2l-5-2-9-6z" fill="#8D98A5"/>
<path transform="translate(1090,449)" d="m0 0 7 1v6l-3 6h-5l-1-1v-10z" fill="#AAB7C2"/>
<path transform="translate(1541,234)" d="m0 0 4 1 1 5-4 4-3-2-5 1-8 6 1-4 7-7z" fill="#BAD1E1"/>
<path transform="translate(1280,96)" d="m0 0 6 1-1 7-3 6-4-2v-2l-3 1 1-6z" fill="#B9D3E3"/>
<path transform="translate(987,45)" d="m0 0h5l2 2v55h-1l-1-53-5-1v8l-2 4v-9z" fill="#C2D0DB"/>
<path transform="translate(902,1652)" d="m0 0 1 3-8 14-8 21-2 4-1-4 3-9 6-16z" fill="#9EAAB6"/>
<path transform="translate(515,1023)" d="m0 0 3 1h-2v2l-19 7-12 4-11 4-4-1 34-13z" fill="#A3AFBA"/>
<path transform="translate(1501,786)" d="m0 0 7 1v4l4 1-2 17-2 3-1-2-2-18-1-4z" fill="#87919E"/>
<path transform="translate(411,630)" d="m0 0 7 1 9 3 9 4 5 3 14 5v2l2 1-5-1-20-8-21-9z" fill="#9DA8B4"/>
<path transform="translate(1350,1318)" d="m0 0 4 2 1 2 5 1 2 7-2 2-5-1-2-1v-4l-3-1-1-6z" fill="#A5B1BC"/>
<path transform="translate(1464,1095)" d="m0 0h6l2 2-1 7-5 3-4-3 1-8z" fill="#505966"/>
<path transform="translate(759,265)" d="m0 0 3 4 11 27v2l-3-1-2-5-2-1-1-5-3-3 1-5h-2l-1-7-1-1z" fill="#CCD5DD"/>
<path transform="translate(389,610)" d="m0 0 7 1 25 10 11 5-3 1-7-3-9-3-12-5-8-3h-6v-2z" fill="#919CA8"/>
<path transform="translate(500,477)" d="m0 0 4 2 6 4v2l4 1 12 9 5 5 3 2v2l-4-2-12-9-10-8-8-7z" fill="#ABB7C2"/>
<path transform="translate(849,484)" d="m0 0 2 1 8 21-1 2-7-8-4-7v-4l2-2z" fill="#545D6A"/>
<path transform="translate(780,1425)" d="m0 0 1 2-4 9-2 7-3 9-3 8-4 11-2 1 3-12 8-23z" fill="#757F8B"/>
<path transform="translate(1189,1084)" d="m0 0h3v5l-5 2-7 8-13 12-2-1 8-10 3-1 5-5 5-6h2z" fill="#6C7682"/>
<path transform="translate(1760,945)" d="m0 0h21l22 2-3 2h-14l-21-2-5-1z" fill="#6A7480"/>
<path transform="translate(792,854)" d="m0 0h2v54h-1l-1-8-1-36-2 3-3 4v-5l4-8z" fill="#ACBDCB"/>
<path transform="translate(407,619)" d="m0 0 6 1 11 4 5 2 8 2 18 8 1 3-6-2-10-5-9-3-10-4-7-2-7-3z" fill="#B6CDDD"/>
<path transform="translate(603,1041)" d="m0 0h4v2l-2 1v12h5v2l-4 1-5-3-2-4v-8z" fill="#6C7682"/>
<path transform="translate(674,820)" d="m0 0 23 1 9 1-1 2-25 2 3-3-9-2z" fill="#96A2AE"/>
<path transform="translate(1292,820)" d="m0 0h14l-1 2-4 1-1-1-4 3h-16l-10-1v-1z" fill="#737D89"/>
<path transform="translate(1544,622)" d="m0 0 2 1-4 3-21 8-23 10-5 2-1-2 35-15z" fill="#ABB7C1"/>
<path transform="translate(1367,437)" d="m0 0 4 1 5 3-1 3-1-3-7-1-14 13-5 5-5 4-2-1 21-21z" fill="#909CA8"/>
<path transform="translate(440,1161)" d="m0 0h1v5l-6 5-1-2-16 4-5 1 4-3 9-4 9-3z" fill="#95A1AE"/>
<path transform="translate(1528,1059)" d="m0 0 11 3 7 3 16 6 10 4-3 1-40-14z" fill="#A2AEB9"/>
<path transform="translate(1571,614)" d="m0 0v3l-20 7-28 11-4-1 15-6 21-8 11-4z" fill="#C8D2DB"/>
<path transform="translate(1242,499)" d="m0 0 1 2 7 1 3-2-1 8-5 4-4 1-1-4v-1l1-3-1-1z" fill="#C7D2DB"/>
<path transform="translate(854,1075)" d="m0 0m-1 1m3 0 2 1-14 14-6 4-3-1 3-1 2-4 12-12z" fill="#828D99"/>
<path transform="translate(645,981)" d="m0 0 9 2-1 2-5 1v2l-7 3-3-1 3-2-2-2h-6l2-2z" fill="#95A1AE"/>
<path transform="translate(526,924)" d="m0 0h5l3 3-7 1h-24l-9 1h-10l4-2z" fill="#BDD6E6"/>
<path transform="translate(1222,444)" d="m0 0 2 1-1 3h-2v2l5-4 2 1-5 7h2l1-3 2 1-5 5-4 3v-2l-5 1 6-12z" fill="#A8B4BE"/>
<path transform="translate(1434,348)" d="m0 0 1 4-10 11-9 11-4 1 4-6 12-14z" fill="#B8C4CE"/>
<path transform="translate(1731,944)" d="m0 0h10l16 2 14 2 10 1-2 2-18-1-30-5z" fill="#A6B2BD"/>
<path transform="translate(686,522)" d="m0 0 7 6 7 7 7 8 12 12-1 2-3-1v-2h-2l-3-5-3-2v-2l-4-2-12-14-5-5z" fill="#A2AEB9"/>
<path transform="translate(882,443)" d="m0 0 3 3 1 5-1 6-5-1-3-4-1-4z" fill="#F9FBFB"/>
<path transform="translate(1746,485)" d="m0 0 4 1-7 4-7 1v2l-9 4-12 6h-2v2l-4-1 4-3 30-15z" fill="#BFD2DF"/>
<path transform="translate(1124,675)" d="m0 0 3 4 5 14 3 11v7l-2-1-9-32z" fill="#8D98A5"/>
<path transform="translate(838,457)" d="m0 0h2l3 8v15l-2 1-5-10 1-2 2 1z" fill="#94A0AD"/>
<path transform="translate(439,412)" d="m0 0 6 4 13 11 6 8 9 7 1 2-4-2-11-8-6-8-11-10-3-1z" fill="#BDD4E3"/>
<path transform="translate(1387,619)" d="m0 0 3 1-22 12-12 6-2-1 4-4 26-12z" fill="#B2BDC7"/>
<path transform="translate(832 1e3)" d="m0 0 5 5 8 10 9 10 10 10-1 2-8-7-9-10-11-13-3-5z" fill="#C5D0D9"/>
<path transform="translate(829,913)" d="m0 0h2l4 8 2 6 1 4h-2l-1 2-2-2v-6l-4-2-1-8z" fill="#BDD4E3"/>
<path transform="translate(1135,476)" d="m0 0h2l-2 6-5 9-4-3-1-4 3-6 2-1 1 3 4-2z" fill="#6F7985"/>
<path transform="translate(420,1301)" d="m0 0 5 1v6l-2 2-9 5h-4l-1-3 6-2 4-4h2z" fill="#97A3AF"/>
<path transform="translate(631,985)" d="m0 0h9l2 4-4 1v2l-8 3-3-1 5-2-2-3h-5l3-3z" fill="#A4B0BC"/>
<path transform="translate(228,951)" d="m0 0h13v2h-2v2h16v1l-25 1-4-4z" fill="#C7D1DB"/>
<path transform="translate(835,452)" d="m0 0 3 4 2 10-1 4-4-1-7-14 1-2 5 8z" fill="#A5B1BC"/>
<path transform="translate(147,1310)" d="m0 0 1 2 2 1v4h-2v2l9-5 2 1-6 5-2 1h-6l-2-3 1-5z" fill="#A7B4BF"/>
<path transform="translate(438,1160)" d="m0 0 2 2-5 3-9 3-9 4-19 8v-2l24-11z" fill="#75808C"/>
<path transform="translate(339,849)" d="m0 0 8 1 3 3v7l-3 3h-2v-8-2l-1-1-9 1-3 4 1-5 2-2z" fill="#A7B3BF"/>
<path transform="translate(496,1227)" d="m0 0 2 1-11 9-11 6-4-2v-2l6-1 8-6h3z" fill="#94A0AD"/>
<path transform="translate(171,1092)" d="m0 0h7l-2 5-7 2-3 2-2-1v-2h-2l2-4z" fill="#515966"/>
<path transform="translate(501,1040)" d="m0 0 3 1-28 11-13 5h-3v-2l26-9h2v-2z" fill="#ABB8C4"/>
<path transform="translate(1133,710)" d="m0 0 3 3 1 12v25h-2l-1-29z" fill="#A1ADB8"/>
<path transform="translate(1378,612)" d="m0 0v3l-13 8-16 8-3-1 25-14z" fill="#98A4B0"/>
<path transform="translate(616,552)" d="m0 0 5 1 3 5v7l-5-4-6-4-1-3z" fill="#F8FAFB"/>
<path transform="translate(274,1416)" d="m0 0 4 2-2 4-9 4-4-2 4-5z" fill="#BAD1E1"/>
<path transform="translate(1223,1322)" d="m0 0h1v14l-2 5-4 19-2 6-1-3 1-6 1-4 3-14 1-7z" fill="#A2AEB9"/>
<path transform="translate(628,1321)" d="m0 0h7v6l-5 6-4-2v-6z" fill="#919DAA"/>
<path transform="translate(344,1088)" d="m0 0 6 2 2 5-9 2-4-2v-4z" fill="#BDD4E2"/>
<path transform="translate(1448,817)" d="m0 0 1 4h-3l-29-1h-8l-1-2z" fill="#C3D2DE"/>
<path transform="translate(686,95)" d="m0 0h5l4 5 1 5h-2v-3l-2 1 1 3-5 1-3-10z" fill="#C8DCE9"/>
<path transform="translate(737,1781)" d="m0 0h4l1 5-3 5h-6l-1-5z" fill="#A9BBC9"/>
<path transform="translate(1136,927)" d="m0 0 2 4h-2l-2 4-11 13-9 9-3-1 16-16z" fill="#AFC2D0"/>
<path transform="translate(779,891)" d="m0 0h1v8l-3 19-2 17-2 1v-10l5-30z" fill="#C8D2DB"/>
<path transform="translate(872,1587)" d="m0 0 1 3-8 15-5 10-3 3 1-5 8-17z" fill="#A4B0BB"/>
<path transform="translate(377,1081)" d="m0 0 2 2v3l-18 6h-4l-1-3h4l2-2 3-2 6 1z" fill="#A6B2BD"/>
<path transform="translate(662,497)" d="m0 0h2l7 8 12 12v2h2l1 5h-2l-7-8v-2h-2l-3-4v-2h-2l-7-8z" fill="#BCCBD6"/>
<path transform="translate(151,790)" d="m0 0h12l1 1 9 1v2l-5 1-15-1z" fill="#F0F4F7"/>
<path transform="translate(1323,645)" d="m0 0m-2 1h2v4l4 1-6 3h-2v2l-6 1-1-5 6-4z" fill="#C7D1DA"/>
<path transform="translate(592,211)" d="m0 0 5 1 2 5 2 1 1-2 1 6-5 1-7-8z" fill="#D9E7F0"/>
<path transform="translate(567,1411)" d="m0 0h8l2 2 1 4-5-2-4-1-1 3h-4l-1 7-3 1v-6l4-6z" fill="#6C7682"/>
<path transform="translate(309,1390)" d="m0 0h4l-2 4-7 7h-2l1-4-6 2v-3z" fill="#717B87"/>
<path transform="translate(1184,1255)" d="m0 0 2 3-2 14-3 7-2 8-2 4-1-3 5-18 2-13z" fill="#C0D1DE"/>
<path transform="translate(1187,1090)" d="m0 0h4l-1 7h-3l-6 4-10 9-2-1 16-16z" fill="#96A2AF"/>
<path transform="translate(1157,890)" d="m0 0 1 3-6 20-2 1v-8l-1-2 7-13z" fill="#919DAA"/>
<path transform="translate(1050,603)" d="m0 0 5 1 17 10 12 9 1 2-4-1-11-8-11-7-9-5z" fill="#C5CFD8"/>
<path transform="translate(1642,848)" d="m0 0 9 1 3 3-1 4-2-4-7 1-5-1-1 3h-2v-4z" fill="#939FAB"/>
<path transform="translate(1169,380)" d="m0 0 3 1-1 4-6 7-5 12-3 4 1-5 6-15z" fill="#BECEDB"/>
<path transform="translate(1e3 1712)" d="m0 0v3l-9 15-7 13-3-1 1-4h2l2-6 10-15z" fill="#97A3B0"/>
<path transform="translate(571 1e3)" d="m0 0 6 1-2 2-20 7-3-1h2v-3z" fill="#B1C1CD"/>
<path transform="translate(1363,545)" d="m0 0 5 1 3 4-2 4-5-1v-2l-3-1v2l-4 1 3-6z" fill="#B9CEDD"/>
<path transform="translate(785,866)" d="m0 0h1l-1 11-2 6h-2l-1 8-2 11h-2l1-9 6-21z" fill="#9AA5B1"/>
<path transform="translate(1136,457)" d="m0 0 1 3v2h5l-2 5-3 4-2-1-1 4-2-6 3-9z" fill="#A6B2BD"/>
<path transform="translate(529,1188)" d="m0 0 2 1-3 5-6 4-13 9h-2l2-4 14-10z" fill="#8994A1"/>
<path transform="translate(615,448)" d="m0 0 7 6 13 13 1 4-4-2-5-5-12-14z" fill="#BDCCD8"/>
<path transform="translate(1048,396)" d="m0 0 3 1 1 4h5l-1 4-10 1-1-6z" fill="#CAD2DA"/>
<path transform="translate(887,310)" d="m0 0h1l4 29-1 3h-3z" fill="#9BA6B2"/>
<path transform="translate(1006,1916)" d="m0 0 4 1 7 8 11 11h-3l-11-10-8-7z" fill="#707A86"/>
<path transform="translate(1287,602)" d="m0 0 2 1-7 8h-2l-1 4-5 7-3 1v-2h2v-5l3-5z" fill="#6B7581"/>
<path transform="translate(476,446)" d="m0 0 5 2 8 4 11 10 5 5-5-2-2-1v-2l-4-2-11-8-7-5z" fill="#C0D0DB"/>
<path transform="translate(1205,293)" d="m0 0h1v13l4-9 1 3-2 7-3 5-4-1 1-12z" fill="#C6D1DA"/>
<path transform="translate(1118,190)" d="m0 0h1v12l-4 18-2 7h-1l1-11z" fill="#A9B5C0"/>
<path transform="translate(967,1364)" d="m0 0 2 1-9 8-5 4-10 7h-2l1-3 19-14z" fill="#A9B5C0"/>
<path transform="translate(820,1268)" d="m0 0h2l-1 8-3 8h-2l-2-9h2l1-4h2z" fill="#575F6C"/>
<path transform="translate(1809,950)" d="m0 0 15 1-4 2v2l2 1-1 2h-9v-5z" fill="#95A1AE"/>
<path transform="translate(458,266)" d="m0 0 7 6 12 13 6 8-4-2-10-10-7-8-4-5z" fill="#B5C4CF"/>
<path transform="translate(1401,1071)" d="m0 0 7 1 2 2v7l-2 4-3-1 2-1 1-9-2 2-2 1-2-2h-3l1 6-3-3 1-5z" fill="#A4B1BC"/>
<path transform="translate(1191,847)" d="m0 0h2v3h2l3 9h2l2 10-4-5v-3h-2v-3l-4 2z" fill="#BED2E0"/>
<path transform="translate(1524,642)" d="m0 0 3 1-28 11-4-2 7-3z" fill="#A7B3BE"/>
<path transform="translate(557,595)" d="m0 0 6 2 16 9 5 4-5-1-7-4-9-3-6-5z" fill="#9EABB7"/>
<path transform="translate(1332,316)" d="m0 0 2 3-2 5 4-1-2 4-8-3v2l-3 1 2-5 3-4h4z" fill="#BBD5E5"/>
<path transform="translate(882,326)" d="m0 0 6 2v14l-3-1-3-11z" fill="#E7EFF4"/>
<path transform="translate(1225,269)" d="m0 0 1 3-13 28-3 5-1-2 5-12 8-16z" fill="#A2AEB9"/>
<path transform="translate(1029,1009)" d="m0 0 2 1-19 10-16 9h-2v-2l16-9z" fill="#C0CDD7"/>
<path transform="translate(669,659)" d="m0 0 4 2 5 4 2 4-1 3-11-5 1-2 2-1z" fill="#68727E"/>
<path transform="translate(1214,459)" d="m0 0 2 2v3l2 1-8 10-1-2 1-4-2-1z" fill="#95A1AE"/>
<path transform="translate(1471,1538)" d="m0 0 2 1 1 4v11l-4 2-1-6 1-1v-6l-1-4z" fill="#4D5562"/>
<path transform="translate(1186,1096)" d="m0 0 3 3-3 8-1-3 1-5-8 7-11 9h-3l14-13z" fill="#A6B2BD"/>
<path transform="translate(876,639)" d="m0 0 1 4-3 1-2 6h-2l-2 5-5 3 1-4 9-12z" fill="#BECCD7"/>
<path transform="translate(691,609)" d="m0 0 7 4 7 6h-3l-2-1v5l-7-4v-2l2-1-4-5z" fill="#727C88"/>
<path transform="translate(405,509)" d="m0 0 6 2 21 13-3 1-11-6-9-6-3-1z" fill="#B1C5D3"/>
<path transform="translate(1255,630)" d="m0 0m-1 1m-1 1m-1 1m-2 1 2 1-2 4-17 13-4 1 5-5 15-13z" fill="#525B68"/>
<path transform="translate(1602,486)" d="m0 0 5 1 2 4-4 6-4 2 4-7-2-2-5 3h-4v-2z" fill="#C2D4E1"/>
<path transform="translate(788,355)" d="m0 0h2l1 6h2l2 5 1 5-4 2-4-9h2z" fill="#BDD5E5"/>
<path transform="translate(333,346)" d="m0 0 6 1 3 3 3-3 2 3-1 5-6-1-5-4z" fill="#C1D3E0"/>
<path transform="translate(578,1155)" d="m0 0m-1 1m-1 1m-2 1h2v2l-7 5-7 4-10 7-3-1 15-11 9-5z" fill="#A6B2BD"/>
<path transform="translate(255,652)" d="m0 0 9 2 25 8 1 2-8-1-11-4-15-5z" fill="#BBD5E6"/>
<path transform="translate(1230,584)" d="m0 0 4 4-2 4-4 3-5-2 4-6z" fill="#6F7985"/>
<path transform="translate(364,486)" d="m0 0 6 2 11 6 1 3-4-1-5-4-4-2h-4l-2 7-2-4 2-6z" fill="#B9D1E1"/>
<path transform="translate(471,770)" d="m0 0 1 3-2 6-11 2-5 1-2-3 2-1 15-2z" fill="#636C79"/>
<path transform="translate(1320,484)" d="m0 0 1 3-9 9-7 8-6 7h-2l2-4 16-17z" fill="#C8D2DB"/>
<path transform="translate(732,496)" d="m0 0 4 1 7 10v5l-2-2v-3l-4-2-5-2 1-4-2-1z" fill="#B2BDC8"/>
<path transform="translate(690,368)" d="m0 0 4 4 4 6v2l4 2v2h2v7l-4-4-10-17z" fill="#B3C7D5"/>
<path transform="translate(1225,267)" d="m0 0 1 2-10 21-4 7-1-4 10-19z" fill="#C8D2DB"/>
<path transform="translate(1485,1033)" d="m0 0 8 1 19 7 1 2-6-1-22-7z" fill="#A7B4BF"/>
<path transform="translate(1479,464)" d="m0 0 2 1-7 7-11 9-6 5-2-1 7-7 9-7z" fill="#A0ACB8"/>
<path transform="translate(812,417)" d="m0 0h2l5 12 5 5v4l-3 1-7-14-2-5z" fill="#CADAE5"/>
<path transform="translate(1368,729)" d="m0 0v3l-2 3v12l1 2-3-1-3-6 1-8 1-2z" fill="#8C98A4"/>
<path transform="translate(1425,375)" d="m0 0v3l-10 10-7 5h-2v-2l7-5 7-8h2v-2z" fill="#C2CDD7"/>
<path transform="translate(1255,152)" d="m0 0 6 1 1 6-2 3-4-1-1-1z" fill="#C2D4E1"/>
<path transform="translate(1047,1442)" d="m0 0 2 1-13 11-7 4-5 3-2-1 11-8 13-9z" fill="#BDC9D3"/>
<path transform="translate(1182,1184)" d="m0 0 4 2 5 8-1 3-4-2-1-3v4h-2z" fill="#96A2AF"/>
<path transform="translate(1147,913)" d="m0 0 1 3-3 9-1-3h-2l-2 4-3 1 2-5 4-7z" fill="#BCD3E3"/>
<path transform="translate(437,541)" d="m0 0 6 2 8 4v2l9 3 6 4v2l-5-2-23-13z" fill="#A6B1BD"/>
<path transform="translate(274,515)" d="m0 0 6 2 20 11 2 2-1 3-2-3-8-4-16-9z" fill="#A6B2BE"/>
<path transform="translate(1367,439)" d="m0 0 5 1 3 3-1 2-4-3-4 1-4 2-2 4-8 6-1 2-2-1 12-12z" fill="#C5D1DB"/>
<path transform="translate(1206,286)" d="m0 0 1 3-3 10-2 12h3l-1 3-3-1-1-2v-7z" fill="#9DA9B4"/>
<path transform="translate(841,1087)" d="m0 0m-1 1m-1 1m-1 1m-12 1 6 2 6-2v2l-6 6-4-2-3-3z" fill="#96A2AE"/>
<path transform="translate(1288,603)" d="m0 0v3l-2 4 1 3-11 7 2-5 2-4 5-5z" fill="#9CA8B4"/>
<path transform="translate(1437,485)" d="m0 0 2 1-7 7-6 5-2 4 1 4-4-1-1-4 11-11z" fill="#B3BEC9"/>
<path transform="translate(1368,1128)" d="m0 0 5 2 2 3-6-1 1 5 4 4v2l-4-2-6-6 2-5h2z" fill="#5E6774"/>
<path transform="translate(930,1129)" d="m0 0 2 1-13 10-10 8h-3l9-9 9-6z" fill="#C8D2DB"/>
<path transform="translate(433,410)" d="m0 0 5 1-1 2-2-1 1 5 2 4-3 1-5-6 1-5z" fill="#B8D1E2"/>
<path transform="translate(1176,380)" d="m0 0 3 2-1 8-4 12-3 1 3-9 1-7 1-2-1-4z" fill="#B9C9D5"/>
<path transform="translate(994,362)" d="m0 0h1v20l-2 3h-3l-1-3 4-8z" fill="#9EAAB6"/>
<path transform="translate(993,235)" d="m0 0h1v14h-6l-3-3 1-7h1v6h2l1-3h2z" fill="#C0D3E0"/>
<path transform="translate(1654,1384)" d="m0 0 6 1 8 4-2 1 1 3-8-2z" fill="#7C8793"/>
<path transform="translate(1311,976)" d="m0 0h7l9 4 3 3-5-1-9-1-5-3z" fill="#6E7884"/>
<path transform="translate(1426,585)" d="m0 0 2 1-3 1-2 4-11 6h-5l3-3z" fill="#BAC5CF"/>
<path transform="translate(635,567)" d="m0 0 8 4 4 3v5h-4l1-4-7-1-2-4z" fill="#BBD4E4"/>
<path transform="translate(990,526)" d="m0 0h1v8l-2 7-1 15h-1v-28l2 1 1 4z" fill="#95A1AE"/>
<path transform="translate(1707,504)" d="m0 0h3v2l-19 10-1-3z" fill="#B0BFCB"/>
<path transform="translate(646,419)" d="m0 0 4 1 1 1v8l-7-1 1-8z" fill="#AABCCA"/>
<path transform="translate(775,322)" d="m0 0 3 2 2 5v5l-4-2h-2l-2-5 1-4z" fill="#D5DDE4"/>
<path transform="translate(1572,1076)" d="m0 0 7 1 16 5 8 3v2l-9-2-22-8z" fill="#A3AFBA"/>
<path transform="translate(175,788)" d="m0 0 12 1 12 2v2h-8l-16-3z" fill="#A6B3BE"/>
<path transform="translate(492,558)" d="m0 0 11 6 14 8-1 2-5-2-5-4-12-6-3-3z" fill="#B8CEDD"/>
<path transform="translate(958,1660)" d="m0 0 1 3-8 16-3 7-2-3 8-17z" fill="#A6B2BD"/>
<path transform="translate(1093,1499)" d="m0 0h5l-5 4-15 10v-3l11-8z" fill="#CFD7DF"/>
<path transform="translate(1221,1285)" d="m0 0h2l1 9v18l-2-4-1-12z" fill="#A2ADB9"/>
<path transform="translate(487,1035)" d="m0 0h2l-1 3-14 5h-6l-3 1-1-2 12-3z" fill="#BED2DF"/>
<path transform="translate(1581,612)" d="m0 0 2 3 1 4-3 2-4-1 1-3-6-1v-2z" fill="#BBD4E5"/>
<path transform="translate(1225,456)" d="m0 0 1 2-8 11-5 6-1-4 8-10z" fill="#626B78"/>
<path transform="translate(1474,319)" d="m0 0 1 3-7 8-9 10v-3l3-6 3-1 1-3h3l1-4 3-1z" fill="#C8D2DB"/>
<path transform="translate(718,565)" d="m0 0 4 1 1 2 4 1 2 4v4h-2l-5-5-4-5z" fill="#C4D8E5"/>
<path transform="translate(1502,430)" d="m0 0 2 2-7 5-5 5-13 10v-3l10-8z" fill="#A8B4BF"/>
<path transform="translate(1268,373)" d="m0 0 8 1 1 1v5l-2 1-1-3-9 1 1-5z" fill="#B6CAD9"/>
<path transform="translate(410,1174)" d="m0 0 3 1-12 6h-3v2l-6 2-2-1v-2l6-3 5-1z" fill="#919DA9"/>
<path transform="translate(598,1137)" d="m0 0 1 3-3 3-7 4-8 5-2-1 13-10z" fill="#6E7985"/>
<path transform="translate(839,955)" d="m0 0h2l9 17-1 3-4-5-6-13z" fill="#BCC6D0"/>
<path transform="translate(799,940)" d="m0 0 3 2 7 20 1 5-3-4-6-14z" fill="#9EAAB6"/>
<path transform="translate(848,690)" d="m0 0h1l-1 10-4 8-2 1 1-7 4-11z" fill="#C5CFD8"/>
<path transform="translate(730,504)" d="m0 0 5 5v2h4v2l5 2v4l-4-1-9-10z" fill="#99A4B0"/>
<path transform="translate(400,1076)" d="m0 0m-3 1h3v2l-18 6-3-1 2-2 8-2v-2z" fill="#A4B0BB"/>
<path transform="translate(772,964)" d="m0 0h1l2 14v12l-2-3-2-16z" fill="#9DA9B5"/>
<path transform="translate(1386,921)" d="m0 0h21l-2 4-9-1-4-1-6-1z" fill="#838F9B"/>
<path transform="translate(475,793)" d="m0 0h3v10l-2 6h-2z" fill="#525B67"/>
<path transform="translate(1497,278)" d="m0 0h3l-2 4-10 10h-2v2l-2-1 7-8z" fill="#C1CCD6"/>
<path transform="translate(1824,1314)" d="m0 0 4 1v2l5-1 2 2v4l3 1-2 1-8-4z" fill="#929EA9"/>
<path transform="translate(386,612)" d="m0 0h7l13 5 1 2h-5l-7-4h-9l-1 2z" fill="#BAD4E4"/>
<path transform="translate(735,578)" d="m0 0 3 3v2l3 1 1 4h2v2l-5-1-8-7h3 2z" fill="#95A1AE"/>
<path transform="translate(283,1404)" d="m0 0 2 1-5 4-1 2-5 2-4 1-1 3-4 1 5-6z" fill="#85919D"/>
<path transform="translate(1175,1292)" d="m0 0 2 1-5 16-4 8h-2l3-9z" fill="#BFD4E3"/>
<path transform="translate(1327,1296)" d="m0 0 5 5 2 4 3 1 8 11-1 2-8-9-9-12z" fill="#66707C"/>
<path transform="translate(515,1023)" d="m0 0 3 1h-2v2l-14 5h-6l2-2z" fill="#9EAAB6"/>
<path transform="translate(1449,1019)" d="m0 0 11 3 9 4-1 2-9-3-10-4z" fill="#A3AFBB"/>
<path transform="translate(1645,673)" d="m0 0 3 1-12 5-9 3-4-1 3-2z" fill="#ABB7C2"/>
<path transform="translate(1305,655)" d="m0 0h2v6l-9 5h-2v-2l6-3-3-2z" fill="#95A1AE"/>
<path transform="translate(638,640)" d="m0 0 5 2 15 9 2 4-4-1v-2l-5-2-9-6z" fill="#A3AFBB"/>
<path transform="translate(694,546)" d="m0 0 7 4 2 4 3 1v2l4 2 1 3-4-2-7-7-6-5z" fill="#95A1AD"/>
<path transform="translate(612,548)" d="m0 0 5 2 1 2-6 2-1 2-4-3 2-4z" fill="#BED5E3"/>
<path transform="translate(1213,271)" d="m0 0 1 2-5 15-1 5h-2l1-10 5-11z" fill="#BFC9D3"/>
<path transform="translate(936,1777)" d="m0 0h1l2 10 1 1 1 15-2 1-2-10z" fill="#9BA6B2"/>
<path transform="translate(771,1449)" d="m0 0 1 3-3 8-4 11-2 1 3-12 4-10z" fill="#737D89"/>
<path transform="translate(1621,1201)" d="m0 0 5 2 14 7v2l-6-2-8-3-5-4z" fill="#727D89"/>
<path transform="translate(1735,945)" d="m0 0 13 2 2 3-16-1-1-3z" fill="#BED4E2"/>
<path transform="translate(795,846)" d="m0 0 1 4-1 6-1-2h-2l-1 4-4 8-1-3 6-14z" fill="#9DA9B4"/>
<path transform="translate(685,821)" d="m0 0h12l9 1-1 2h-16l-4-2z" fill="#6F7986"/>
<path transform="translate(1301,819)" d="m0 0h19l-2 2-8 1-1 1h-6l-1-2 4-1h-5z" fill="#9DA9B5"/>
<path transform="translate(1598,691)" d="m0 0 2 1-5 2-1 4-4 2h-5l3-5z" fill="#A0ACB8"/>
<path transform="translate(666,591)" d="m0 0h5l2 5-2 2-3-3-1 4-4-2-1-4z" fill="#D5DEE5"/>
<path transform="translate(564,1428)" d="m0 0h9l1 5-6 1-5-5z" fill="#6F7985"/>
<path transform="translate(1185,831)" d="m0 0 4 1 3 5-1 4-3 1-3-8z" fill="#6C7683"/>
<path transform="translate(435,640)" d="m0 0 6 1 14 5v2l2 1-5-1-17-7z" fill="#A2ADB9"/>
<path transform="translate(921,604)" d="m0 0 2 1-15 10-2 2-4-1 10-7z" fill="#B9C4CE"/>
<path transform="translate(674,598)" d="m0 0 5 3v2h2l1 5-4-1-4-4 1-2h-2z" fill="#BCD4E4"/>
<path transform="translate(902,1652)" d="m0 0 1 3-8 14h-2l-1 2 1-6z" fill="#A1ADB9"/>
<path transform="translate(1557,1581)" d="m0 0 4 5v2h3l-1 5h-3l-4-7z" fill="#939EAB"/>
<path transform="translate(1794,1092)" d="m0 0 13 1 7 3-3 1-12-2-7-1z" fill="#747F8B"/>
<path transform="translate(533,1017)" d="m0 0 7 1v1l-9 2-12 4-3-1h2v-2z" fill="#A3B0BC"/>
<path transform="translate(1143,925)" d="m0 0 1 2-2 7-2 6-1 5-4 6v-3l4-14z" fill="#ABBAC7"/>
<path transform="translate(667,820)" d="m0 0h7l10 2-4 4h-9l4-3-8-2z" fill="#ACBDCA"/>
<path transform="translate(1500,773)" d="m0 0h4v2h4l-1 3h-4l2 8-5-2 2-8-4-2z" fill="#BFCAD4"/>
<path transform="translate(862,657)" d="m0 0h3l-2 5-3 6-5 3 2-6z" fill="#BEC9D3"/>
<path transform="translate(1103,314)" d="m0 0h2l-1 8-3 13-1-4-2-1 4-11z" fill="#ACB7C2"/>
<path transform="translate(1379,1240)" d="m0 0 4 1 9 9 1 5-7-7-4-3v-3h-3z" fill="#58616D"/>
<path transform="translate(178,1091)" d="m0 0 5 1v3l-7 6-1-2z" fill="#6F7985"/>
<path transform="translate(570,1015)" d="m0 0 1 2-24 9-2-1 4-3 10-3z" fill="#C5D2DD"/>
<path transform="translate(810,967)" d="m0 0 3 4 7 14-1 2-7-11-3-7z" fill="#C3CED7"/>
<path transform="translate(1407,921)" d="m0 0 18 2-4 2-5-1-1 2-9-2z" fill="#99A5B2"/>
<path transform="translate(845,779)" d="m0 0 4 5 4 9 1 5-5-4-4-12z" fill="#A5B1BC"/>
<path transform="translate(1497,776)" d="m0 0h3l1 5-3 2-2-2-3 1v3h-2l-3-4 5-1z" fill="#5E6874"/>
<path transform="translate(1380,732)" d="m0 0 4 1 1 1v8l-5 8-1-2 3-7-1-5z" fill="#A1ADB9"/>
<path transform="translate(407,619)" d="m0 0 6 1 11 4 10 4 1 2-4-1-10-4-7-2-7-3z" fill="#BAD5E6"/>
<path transform="translate(1273,550)" d="m0 0 2 1-16 16-2-1 7-8z" fill="#BFC9D3"/>
<path transform="translate(432,524)" d="m0 0 14 8 4 2v2l-6-2-13-8z" fill="#B8D2E3"/>
<path transform="translate(481,1045)" d="m0 0h7l-2 2-9 3h-8l1-2z" fill="#BCD4E4"/>
<path transform="translate(582,1009)" d="m0 0 3 1-3 1v2l-8 3h-6l2-3 9-2z" fill="#BED2DF"/>
<path transform="translate(584,919)" d="m0 0h11l2 1-1 3h-6v-1l-11-1v-1z" fill="#97A3AF"/>
<path transform="translate(826,899)" d="m0 0 3 1 5 11-1 2-4-5v-3l-1 5h-1z" fill="#96A2AF"/>
<path transform="translate(479,774)" d="m0 0 1 3 10 2 1 5-5-2-7-3-1-3z" fill="#545C69"/>
<path transform="translate(606,726)" d="m0 0 4 2-4 2h-2l-2 4-7 4-2-1z" fill="#B4C9D7"/>
<path transform="translate(1311,652)" d="m0 0 3 4 3 1-10 4v-7z" fill="#A8B3BE"/>
<path transform="translate(624,569)" d="m0 0 4 1 3 2v2l4 2 9 7h-3l-12-9z" fill="#BCC8D3"/>
<path transform="translate(1238,503)" d="m0 0 6 2v3l-1 2 1 1-1 2-4-1-2-7z" fill="#BBD4E4"/>
<path transform="translate(544,1179)" d="m0 0v3l-8 7-4 3-4-1 6-5 7-4z" fill="#A0ACB8"/>
<path transform="translate(445,1057)" d="m0 0 1 4-10 2-4-2z" fill="#BDD4E3"/>
<path transform="translate(472,761)" d="m0 0h3l1 7-2 4-2 6h-1v-10z" fill="#B2BEC9"/>
<path transform="translate(660,655)" d="m0 0 5 2 3 3-1 3-6 1-3-3 3-1 2 1-1-4h-2z" fill="#A4B0BB"/>
<path transform="translate(1387,619)" d="m0 0 3 1-18 10-3-2 16-8z" fill="#C1CBD5"/>
<path transform="translate(689,607)" d="m0 0 2 1 4 7 1 2-4 1-7-5h3 2l-2-2z" fill="#939EAB"/>
<path transform="translate(638,567)" d="m0 0 4 2 10 7-2 1v2l2 1-4 1-1-1v-6l-4-2z" fill="#B6C3CE"/>
<path transform="translate(1474,558)" d="m0 0 2 1-20 12-2-1 5-4z" fill="#C8D2DB"/>
<path transform="translate(1363,553)" d="m0 0 6 1-5 5-6 5h-2l2-4 4-2z" fill="#C4CFD9"/>
<path transform="translate(686,524)" d="m0 0 7 6 9 10h-3l-6-3 2-1v-2l-4-2-5-6z" fill="#C6D2DC"/>
<path transform="translate(990,517)" d="m0 0h1v9l-1 7-2-1-1-4v-9l2 1z" fill="#A6B2BD"/>
<path transform="translate(520,492)" d="m0 0 5 2 5 4 4 4v2l-4-2-10-7z" fill="#B7CAD7"/>
<path transform="translate(1444,479)" d="m0 0 2 1-7 6-1-2zm-6 7m-1 1m-1 1v3l-9 8-2-1z" fill="#C2CCD5"/>
<path transform="translate(338,339)" d="m0 0 5 5 1 4-3 3-3-5z" fill="#F5F6F7"/>
<path transform="translate(444,265)" d="m0 0 7 6 7 9 3 3-1 2-10-11-6-7z" fill="#BBD6E6"/>
<path transform="translate(418,1302)" d="m0 0 4 1-1 3-6 2-3 2-3-1z" fill="#68727E"/>
<path transform="translate(1161,1154)" d="m0 0 1 3-12 18-1-2 9-15z" fill="#C3CFD9"/>
<path transform="translate(1528,1059)" d="m0 0 11 3 7 3v2l-9-2-8-3z" fill="#9AA6B2"/>
<path transform="translate(1502,1049)" d="m0 0 8 1 5 2 7 1 2 4-5-1-17-6z" fill="#C0D3E0"/>
<path transform="translate(1150,905)" d="m0 0 1 4v7h-3l-1-2-3 1 2-5 2-4z" fill="#A6B2BD"/>
<path transform="translate(191,797)" d="m0 0h12l6 1-1 2h-9l-10-1z" fill="#9DA8B4"/>
<path transform="translate(538,586)" d="m0 0 6 2 8 5 5 1v3l3 1-2 1-10-6-9-5z" fill="#B8CEDD"/>
<path transform="translate(1049,392)" d="m0 0 2 1v3h-3l-2 4-4 2v-4z" fill="#68717E"/>
<path transform="translate(603,918)" d="m0 0h15v2l-8 2h-5l2-2z" fill="#707A86"/>
<path transform="translate(1726,657)" d="m0 0h2v2l-16 7h-2l1-3 14-5z" fill="#BCD4E3"/>
<path transform="translate(1321,644)" d="m0 0h2v2l-6 4-7 4-3-1 5-4z" fill="#96A2AF"/>
<path transform="translate(450,535)" d="m0 0 5 2 11 6-4 1-11-6z" fill="#B2C8D6"/>
<path transform="translate(1296,511)" d="m0 0v3l-10 13-2-1 3-6z" fill="#BBC8D2"/>
<path transform="translate(1160,425)" d="m0 0 1 4-7 14-1-3 4-11z" fill="#B4BFCA"/>
<path transform="translate(986,425)" d="m0 0h8l1 4-6-1-1 1-1 13h-1z" fill="#8F9BA7"/>
<path transform="translate(1461,1542)" d="m0 0h3v3h-2v7l-1 3-3-1 1-11z" fill="#4C5461"/>
<path transform="translate(1690,1403)" d="m0 0 5 2 12 7v2l-5-2-11-6z" fill="#919CA9"/>
<path transform="translate(1212,1374)" d="m0 0 3 1-8 17-1-3z" fill="#9FABB6"/>
<path transform="translate(388,1183)" d="m0 0 4 1-1 3-10 5-2-1 5-4 2-2z" fill="#939FAC"/>
<path transform="translate(1479,1042)" d="m0 0 7 1 12 3 1 2-5 1-15-6z" fill="#B5C3CE"/>
<path transform="translate(1136,927)" d="m0 0 2 4h-2l-2 4-8 10-1-3 8-10z" fill="#BBD0DE"/>
<path transform="translate(1507,798)" d="m0 0h2l1 2v9l-2 3-1-2-1-11z" fill="#68717E"/>
<path transform="translate(1819,785)" d="m0 0h9l1 5-2 2-4-1 3-1-1-3-8 1z" fill="#ADBFCC"/>
<path transform="translate(1306,653)" d="m0 0 2 1-8 5 3 2-4 3h-3v-5z" fill="#6D7783"/>
<path transform="translate(670,592)" d="m0 0 4 2 11 9-3 1-3-1-7-8z" fill="#9CA8B4"/>
<path transform="translate(879,440)" d="m0 0h6l4 3 1 9-1 2h-2v-11l-8-2z" fill="#A5B0BC"/>
<path transform="translate(1055,399)" d="m0 0 5 2v4l-9 2h-5l4-2h6v-3l-4-2z" fill="#9FABB7"/>
<path transform="translate(859,1615)" d="m0 0 1 2-3 6-2 8-1 2h-2l3-12 1-3h2z" fill="#A9B5C0"/>
<path transform="translate(349,1212)" d="m0 0 2 3-14 7h-2l1-3 5-2 2 1 1-3h3v-2z" fill="#95A1AE"/>
<path transform="translate(1463,1096)" d="m0 0 4 4v7l-5-3z" fill="#6E7884"/>
<path transform="translate(171,1097)" d="m0 0h5l-2 5-8 1z" fill="#6B7581"/>
<path transform="translate(354,1080)" d="m0 0 4 1-11 5-6 1v-2z" fill="#98A4B1"/>
<path transform="translate(600,1043)" d="m0 0h1l2 12 4 2-1 2-5-3-2-4v-8z" fill="#525B67"/>
<path transform="translate(1365,742)" d="m0 0 4 4v3l7 1v2h-6l-4-3z" fill="#B1C5D4"/>
<path transform="translate(1124,675)" d="m0 0 3 4 4 11-1 5-2-4-4-13z" fill="#9CA8B4"/>
<path transform="translate(1300,591)" d="m0 0v3l-8 9-4-1 5-5z" fill="#96A2AE"/>
<path transform="translate(793,372)" d="m0 0 3 3 4 10v5l-2-3-6-14z" fill="#C4DAE8"/>
<path transform="translate(1232,252)" d="m0 0 1 2-6 15-2-3 6-13z" fill="#BDC8D1"/>
<path transform="translate(1709,1244)" d="m0 0 5 2 3 2-1 6-4 1 2-1-1-7h-4z" fill="#525A67"/>
<path transform="translate(545,1176)" d="m0 0v3l-8 7-6 2 5-5z" fill="#8A96A3"/>
<path transform="translate(558,1166)" d="m0 0 3 1-11 8-3 4-2-1 1-3z" fill="#98A4B1"/>
<path transform="translate(1803,1095)" d="m0 0 12 1 3 2v2l-10-1-5-3z" fill="#A3AFBA"/>
<path transform="translate(477,775)" d="m0 0 2 4 7 2 1 3-5 1-5-6z" fill="#B9C8D3"/>
<path transform="translate(677,512)" d="m0 0 6 5v2h2l1 5h-2l-7-8z" fill="#BECAD4"/>
<path transform="translate(518,478)" d="m0 0 4 2 8 7-3 1-3-1-6-7z" fill="#BAD5E6"/>
<path transform="translate(1423,363)" d="m0 0v3l-7 8-4 1 4-6 5-5z" fill="#C9D4DE"/>
<path transform="translate(1525,247)" d="m0 0 1 3-7 7-4 5h-2l2-4z" fill="#B4C0CB"/>
<path transform="translate(1536,237)" d="m0 0 1 4-8 6-3 2 1-4 7-7z" fill="#C2CDD7"/>
<path transform="translate(702,140)" d="m0 0h2l3 9 3 8-1 2-4-8-3-7z" fill="#ABB8C3"/>
<path transform="translate(413,1060)" d="m0 0 3 1-13 6h-4v-2z" fill="#ACB7C2"/>
<path transform="translate(457,1056)" d="m0 0h3v2l-18 6v-2l8-4z" fill="#A8B3BE"/>
<path transform="translate(249,943)" d="m0 0h16v1l-16 2-6-1v-1z" fill="#8B96A3"/>
<path transform="translate(1191,839)" d="m0 0 3 3v3h-2v-2l-2 1 2 5-1 5-2-4-1-8 3-1z" fill="#8B97A4"/>
<path transform="translate(464,643)" d="m0 0 4 1-1 4 4 2 1 4-7-2 2-1v-2h-2z" fill="#C7D2DB"/>
<path transform="translate(604,633)" d="m0 0 6 1 13 8-2 1-17-9z" fill="#949FAB"/>
<path transform="translate(609,546)" d="m0 0 3 1v2l-4 2v2l3 3-2 2-4-3 1-5z" fill="#A5B0BC"/>
<path transform="translate(1285,522)" d="m0 0 1 3-4 5-4 1-2 4h-3z" fill="#8F9AA7"/>
<path transform="translate(1152,443)" d="m0 0 1 3-8 16-3-1 4-7z" fill="#A0ACB8"/>
<path transform="translate(832,444)" d="m0 0 5 4 3 9-4-2v-3h-2l-2-4z" fill="#9EA9B5"/>
<path transform="translate(735,433)" d="m0 0 4 2 4 6-4 1-3-3z" fill="#C2D2DD"/>
<path transform="translate(1467,311)" d="m0 0v3l-7 9-1 3h-2l-1-3z" fill="#C7D2DB"/>
<path transform="translate(986,285)" d="m0 0 9 1 1 4-2 3-2-3-4-2h-2z" fill="#96A1AD"/>
<path transform="translate(1510,279)" d="m0 0 3 1-7 8-5 6-2-2 7-8 3-3z" fill="#C8D2DB"/>
<path transform="translate(1092,1626)" d="m0 0 2 1-13 11-3 1v-2h2v-2l6-5h2v-2z" fill="#747E8A"/>
<path transform="translate(1216,1603)" d="m0 0 6 1 2 2v5l-4-4-7-1z" fill="#97A2AE"/>
<path transform="translate(418,1595)" d="m0 0 3 1-4 6-5 6-2-2 3-3 1-3 3-2z" fill="#717B87"/>
<path transform="translate(1553,1061)" d="m0 0 3 1v4l4 3-2 1-8-3 2-1z" fill="#C7D2DB"/>
<path transform="translate(427,1055)" d="m0 0 4 1v2l-11 3 1-4z" fill="#C3D3DE"/>
<path transform="translate(831,925)" d="m0 0h2l2 7h3l-2 8-2-2-3-11z" fill="#C8D2DB"/>
<path transform="translate(1579,610)" d="m0 0 4 1 1 7-2-3-1-2-10 1v-2z" fill="#A3AFBB"/>
<path transform="translate(1265,545)" d="m0 0 2 1-9 9-5 3 2-4 5-6z" fill="#B1BDC7"/>
<path transform="translate(447,254)" d="m0 0 7 6 3 5h-4l-6-9z" fill="#BDD5E5"/>
<path transform="translate(416,1309)" d="m0 0 3 1-1 3-5 3-4-2v-2l6-2z" fill="#A6B2BD"/>
<path transform="translate(836,917)" d="m0 0 3 3 5 9-1 2-4-4-3-5z" fill="#9CA8B4"/>
<path transform="translate(850,794)" d="m0 0 3 3 5 10v3h-2l-6-13z" fill="#98A4B0"/>
<path transform="translate(465,784)" d="m0 0 6 1v10l-4-5-2-3z" fill="#AFBAC4"/>
<path transform="translate(1597,689)" d="m0 0h3v2l-10 4-3-1 4-3z" fill="#828D99"/>
<path transform="translate(1651,671)" d="m0 0h4v2l-12 5-4-1 9-3v-2z" fill="#C2D3DF"/>
<path transform="translate(1209,548)" d="m0 0h2l-1 5-4 4h-2l1-5z" fill="#5E6774"/>
<path transform="translate(716,406)" d="m0 0 3 1 3 6-1 4-6-8z" fill="#CCDEEA"/>
<path transform="translate(526,357)" d="m0 0 3 1 7 8 1 3 3 1v2l-4-2-7-8-3-3z" fill="#C0D8E8"/>
<path transform="translate(458,266)" d="m0 0 7 6 6 8-4-2-9-10z" fill="#A6B2BD"/>
<path transform="translate(597,216)" d="m0 0 4 2 1-2 1 6-5 1-2-3h2z" fill="#D8E5ED"/>
<path transform="translate(859,210)" d="m0 0 2 2 1 10h-3l-1-11z" fill="#B0BBC6"/>
<path transform="translate(1006,1916)" d="m0 0 4 1 4 6-2 2-7-7z" fill="#798490"/>
<path transform="translate(558,1295)" d="m0 0h2l-2 4-8 7-3 3v-3z" fill="#545D6A"/>
<path transform="translate(1803,947)" d="m0 0h10l-4 4-9-1v-2z" fill="#707B87"/>
<path transform="translate(262,945)" d="m0 0 11 1v1l-10 2-6-2z" fill="#BCD4E4"/>
<path transform="translate(1587,695)" d="m0 0v3l-3 3-10 1 2-2z" fill="#727C88"/>
<path transform="translate(413,620)" d="m0 0h6l13 6-3 1-7-3-9-3z" fill="#A4B0BC"/>
<path transform="translate(557,595)" d="m0 0 6 2 4 4v2l-6-2-4-4z" fill="#A2B1BE"/>
<path transform="translate(1322,588)" d="m0 0 2 1-14 9h-2v-2z" fill="#AAB6C0"/>
<path transform="translate(1367,437)" d="m0 0 4 1 5 3-1 3-1-3-7-1-4 4-2-1 4-5z" fill="#9EAAB6"/>
<path transform="translate(1051,382)" d="m0 0 3 1v8l-4 1v-9z" fill="#565F6C"/>
<path transform="translate(889,325)" d="m0 0h1l2 16-3 1z" fill="#646D7A"/>
<path transform="translate(955,1373)" d="m0 0m-2 1 2 1-5 5-5 4h-2l1-3z" fill="#ADB9C4"/>
<path transform="translate(180,791)" d="m0 0h5l1 3h-6l-1 2-4-2v-2z" fill="#C0D9E8"/>
<path transform="translate(650,577)" d="m0 0 4 1 5 5-6 1-3-5z" fill="#B3C8D7"/>
<path transform="translate(701,545)" d="m0 0 4 1v3h2l-1 4-3-1-3-5z" fill="#FDFDFD"/>
<path transform="translate(736,508)" d="m0 0 5 1h3v6l-5-2v-2h-3z" fill="#BDD2E1"/>
<path transform="translate(1592,492)" d="m0 0h2l-1 3-9 5-3-1 8-5z" fill="#C8D2DB"/>
<path transform="translate(731,430)" d="m0 0 8 1 2 4-4-1-2-1 1 4-5-5z" fill="#BCD6E6"/>
<path transform="translate(1097,339)" d="m0 0h1v5l-3 3-4-2v-3l5-1z" fill="#8893A0"/>
<path transform="translate(637,322)" d="m0 0 5 2 1-2 1 4-3 1 1 4-5-3z" fill="#C7D3DD"/>
<path transform="translate(1486,308)" d="m0 0v3l-10 10-1-3h2l2-4z" fill="#ADB9C4"/>
<path transform="translate(264,1417)" d="m0 0 3 1-2 4v3l-3 1-1-5z" fill="#A0ACB7"/>
<path transform="translate(529,1188)" d="m0 0 2 1-3 5-6 4h-3l5-6z" fill="#86929E"/>
<path transform="translate(867,1066)" d="m0 0h2l-2 4-7 6h-2l2-4h2l1-3z" fill="#77818D"/>
<path transform="translate(1332,983)" d="m0 0 3 1v2h4v3l4 1-2 1-10-4 2-1z" fill="#8C97A4"/>
<path transform="translate(1412,926)" d="m0 0h8l1 4-13-1z" fill="#C4D2DD"/>
<path transform="translate(1384,922)" d="m0 0h13l-1 2-13 1z" fill="#A1ADB9"/>
<path transform="translate(1157,890)" d="m0 0 1 3-4 12-1-3 2-10z" fill="#707B87"/>
<path transform="translate(151,785)" d="m0 0h5v1l7 1v1l-15 1v-3z" fill="#A4B1BC"/>
<path transform="translate(1571,699)" d="m0 0 2 1v3l-12 1 2-2z" fill="#646D7A"/>
<path transform="translate(401,615)" d="m0 0h6l9 4v1l-9-1-6-3z" fill="#97A3AE"/>
<path transform="translate(707,554)" d="m0 0 5 2 6 8h-4l-2-4-2-1v-3l-3-1z" fill="#FDFDFD"/>
<path transform="translate(298,529)" d="m0 0 4 4-1 5-3-1v-3l-2-4z" fill="#BFD3E1"/>
<path transform="translate(1594,502)" d="m0 0 3 1-15 9-2-1 4-3 6-2v-2z" fill="#C8D2DB"/>
<path transform="translate(1602,486)" d="m0 0 4 1-3 1v2l-5 3h-4v-2z" fill="#C2D3DF"/>
<path transform="translate(1323,421)" d="m0 0 9 2 2 4-9-3-4 1z" fill="#B7C2CC"/>
<path transform="translate(594,209)" d="m0 0 5 1 2 3v5l-3-1-2-5-2-1z" fill="#C7D3DD"/>
<path transform="translate(1261,1324)" d="m0 0 5 5-2 1v2l-3-1-1-6z" fill="#808B97"/>
<path transform="translate(866,1287)" d="m0 0 2 1-10 9-2-2 6-6z" fill="#96A2AF"/>
<path transform="translate(567,1275)" d="m0 0 1 3-10 10-2-1z" fill="#535B68"/>
<path transform="translate(633,1211)" d="m0 0h2l-2 5-5 5h-2l1-4h2l1-4h3z" fill="#95A1AE"/>
<path transform="translate(1436,1015)" d="m0 0 9 2 4 2-2 1-10-2z" fill="#ADBECB"/>
<path transform="translate(557,927)" d="m0 0 5 1v2l-6 1h-8l4-2z" fill="#A6B2BD"/>
<path transform="translate(580,923)" d="m0 0h6l-1 3-5 1h-9v-1z" fill="#97A3B0"/>
<path transform="translate(1133,710)" d="m0 0 3 3v13h-1l-2-11z" fill="#9FABB7"/>
<path transform="translate(1490,562)" d="m0 0 2 1-10 6h-2l2-4z" fill="#B9C4CE"/>
<path transform="translate(651,485)" d="m0 0 7 6 5 6-5-2-1-3-4-2z" fill="#A4B2BF"/>
<path transform="translate(1040,400)" d="m0 0 5 1 1 5-2 2-5-6z" fill="#919CA8"/>
<path transform="translate(1124,170)" d="m0 0h4v5l-5 2z" fill="#BAD4E5"/>
<path transform="translate(983,1629)" d="m0 0 2 3-6 4-3-1 4-5z" fill="#BCD6E6"/>
<path transform="translate(274,1416)" d="m0 0 4 2-2 4-4 1-2-1v-2l3-1-1-2z" fill="#C6D0D9"/>
<path transform="translate(1219,1349)" d="m0 0 1 3-4 14-1-3 1-6 1-4z" fill="#A6B2BD"/>
<path transform="translate(276,943)" d="m0 0 7 1-3 2h-12l1-2z" fill="#C4D2DD"/>
<path transform="translate(1511,769)" d="m0 0h2l3 7 5 3-3 1h-4z" fill="#9EA9B4"/>
<path transform="translate(871,648)" d="m0 0 1 2h-2l-2 5-5 3 1-4 1-2 3-1z" fill="#C2D1DD"/>
<path transform="translate(455,637)" d="m0 0 6 2 8 4-4 1-9-5z" fill="#9DA9B5"/>
<path transform="translate(217,485)" d="m0 0 11 4-1 2-5-1-6-3z" fill="#B8D1E1"/>
<path transform="translate(618,467)" d="m0 0 5 3 7 8-1 2-11-11z" fill="#B4C6D2"/>
<path transform="translate(639,419)" d="m0 0 4 1v5l-4 1-1-1v-5z" fill="#D5E3ED"/>
<path transform="translate(724,414)" d="m0 0 4 4-1 2v3l-4-2-2-4z" fill="#BBD4E5"/>
<path transform="translate(807,404)" d="m0 0 3 3 3 9-3-1-3-7z" fill="#C6DCE9"/>
<path transform="translate(332,337)" d="m0 0 5 1 2 7h-3l-2-5-2-1z" fill="#BAD0DF"/>
<path transform="translate(1130,171)" d="m0 0 2 1v9l-1 7h-1l-1-16z" fill="#BFCBD5"/>
<path transform="translate(975,1770)" d="m0 0 1 3-3 11-3-1 4-12z" fill="#97A3B0"/>
<path transform="translate(157,1314)" d="m0 0 2 1-6 5-6 1 3-1 1-3z" fill="#8D99A5"/>
<path transform="translate(438,1160)" d="m0 0 2 2-5 3-4 2-3-1 1-2z" fill="#6D7783"/>
<path transform="translate(1161,1117)" d="m0 0 2 1-6 5h-2v2l-4 1 6-7z" fill="#A4B0BB"/>
<path transform="translate(365,1085)" d="m0 0m-1 1m-3 1 6 2-3 2-7 1-1-3h4z" fill="#B1BDC7"/>
<path transform="translate(438,1051)" d="m0 0 1 4-8 2-1-3z" fill="#BFD3E1"/>
<path transform="translate(1910,955)" d="m0 0 13 3-1 2h-9v-2z" fill="#7A8591"/>
<path transform="translate(487,782)" d="m0 0 3 3-4 2h-3l-1 2v-2l-4-2 9-1z" fill="#A3AEB9"/>
<path transform="translate(1242,641)" d="m0 0m-1 1m-1 1m-1 1m-1 1 2 2-9 6-2-1z" fill="#606A76"/>
<path transform="translate(1320,484)" d="m0 0 1 3-9 9-2-1z" fill="#C5D2DC"/>
<path transform="translate(1529,410)" d="m0 0 5 1-3 2-9 3v-2z" fill="#9FABB7"/>
<path transform="translate(709,398)" d="m0 0 6 1v5l-4-1z" fill="#DCE8F1"/>
<path transform="translate(690,368)" d="m0 0 4 4 4 6-1 4-7-12z" fill="#B2C5D3"/>
<path transform="translate(1627,341)" d="m0 0 2 1-2 4h-3v8l-3-3 2-6z" fill="#BDD2E0"/>
<path transform="translate(993,235)" d="m0 0h1v14h-4z" fill="#9EAAB6"/>
<path transform="translate(712,152)" d="m0 0h2l2 11h-2l-2-5-1-4z" fill="#AFBAC5"/>
<path transform="translate(707,145)" d="m0 0 4 1v8l-3-1-1-2z" fill="#BCD4E3"/>
<path transform="translate(629,864)" d="m0 0 4 1-1 3-4-1z" fill="#95A3AF"/>
<path transform="translate(73,954)" d="m0 0 4 1v2h-2v-2z" fill="#828D9A"/>
<path transform="translate(1382,693)" d="m0 0 2 1-4 1z" fill="#727D89"/>
<path transform="translate(366,692)" d="m0 0 3 2h-3z" fill="#95A1AE"/>
<path transform="translate(767,551)" d="m0 0h2v2h-2z" fill="#CADFEB"/>
<path transform="translate(1028,1937)" d="m0 0h2l-1 2z" fill="#8C97A3"/>
<path transform="translate(1390,1560)" d="m0 0" fill="#7F8A97"/>
<path transform="translate(1389,1558)" d="m0 0" fill="#6A7480"/>
<path transform="translate(67,955)" d="m0 0 2 1z" fill="#95A1AE"/>
<path transform="translate(69,954)" d="m0 0 2 1z" fill="#95A1AE"/>
<path transform="translate(1376,696)" d="m0 0 2 1z" fill="#95A1AE"/>
<path transform="translate(1378,695)" d="m0 0 2 1z" fill="#6A7480"/>
<path transform="translate(370,694)" d="m0 0 2 1z" fill="#9DA9B5"/>
<path transform="translate(581,693)" d="m0 0 2 1z" fill="#6A7480"/>
<path transform="translate(578,692)" d="m0 0 2 1z" fill="#6A7480"/>
<path transform="translate(576,691)" d="m0 0 2 1z" fill="#6A7480"/>
<path transform="translate(1717,1756)" d="m0 0" fill="#95A1AE"/>
<path transform="translate(1391,1562)" d="m0 0" fill="#6A7480"/>
<path transform="translate(801,834)" d="m0 0" fill="#A6B2BD"/>
<path transform="translate(373,695)" d="m0 0" fill="#95A1AE"/>
<path transform="translate(750,656)" d="m0 0" fill="#95A1AE"/>
<path transform="translate(748,655)" d="m0 0" fill="#6A7480"/>
<path transform="translate(746,654)" d="m0 0" fill="#6A7480"/>
<path transform="translate(768,613)" d="m0 0" fill="#6A7480"/>
<path transform="translate(767,612)" d="m0 0" fill="#4B5360"/>
<path transform="translate(799,523)" d="m0 0" fill="#95A1AE"/>
</svg>
